<svg xmlns="http://www.w3.org/2000/svg" xmlns:xlink="http://www.w3.org/1999/xlink" width="694.27" height="653.037" viewBox="0 0 694.27 653.037">
  <defs>
    <linearGradient id="linear-gradient" x1="0.5" x2="0.5" y2="1.727" gradientUnits="objectBoundingBox">
      <stop offset="0" stop-color="#9ce644"/>
      <stop offset="1" stop-color="#4e7322"/>
    </linearGradient>
    <filter id="Path_879" x="92.809" y="316.472" width="233.447" height="234.009" filterUnits="userSpaceOnUse">
      <feOffset dy="3" input="SourceAlpha"/>
      <feGaussianBlur stdDeviation="3" result="blur"/>
      <feFlood flood-opacity="0.161"/>
      <feComposite operator="in" in2="blur"/>
      <feComposite in="SourceGraphic"/>
    </filter>
    <clipPath id="clip-path">
      <rect id="Rectangle_246" data-name="Rectangle 246" width="165.209" height="36.67" fill="none"/>
    </clipPath>
    <linearGradient id="linear-gradient-2" x1="0.5" x2="0.5" y2="1.132" gradientUnits="objectBoundingBox">
      <stop offset="0" stop-color="#a0ea47"/>
      <stop offset="1" stop-color="#4e9000"/>
    </linearGradient>
  </defs>
  <g id="Group_669" data-name="Group 669" transform="translate(-1098.091 -232.963)">
    <g id="Group_668" data-name="Group 668" transform="translate(10542.144 609.115)">
      <path id="Path_878" data-name="Path 878" d="M91.158,269.526l-45.947-4.8-19.388-44.12-15.1,3.94s11.163,46.621,23.639,53.843,55.157,8.536,55.157,8.536Z" transform="translate(-9518.317 -175.962) rotate(-22)" fill="#72a932"/>
      <path id="Path_885" data-name="Path 885" d="M74.3,275.311a20.356,20.356,0,1,0,20.356-20.356A20.356,20.356,0,0,0,74.3,275.311" transform="translate(-9511.881 -175.24) rotate(-22)" fill="#263238"/>
      <path id="Path_886" data-name="Path 886" d="M94.653,295.7a20.382,20.382,0,1,1,14.413-5.97,20.249,20.249,0,0,1-14.413,5.97m0-40.711a20.33,20.33,0,1,0,14.374,5.954,20.2,20.2,0,0,0-14.374-5.954" transform="translate(-9511.879 -175.243) rotate(-22)" fill="#263238"/>
      <path id="Path_884" data-name="Path 884" d="M21.36,264.481a15.267,15.267,0,1,0,15.266-15.267A15.266,15.266,0,0,0,21.36,264.481" transform="translate(-9516.473 -173.94) rotate(-22)" fill="#263238"/>
      <g id="Group_659" data-name="Group 659" transform="translate(-9447.144 2.764) rotate(-22)">
        <path id="Path_402" data-name="Path 402" d="M5.191,216.822a12.474,12.474,0,1,0,12.473-12.473A12.473,12.473,0,0,0,5.191,216.822" transform="translate(0.758 -191.504)" fill="#263238"/>
        <path id="Path_403" data-name="Path 403" d="M25.381,218.674l10.255-8.661a2.673,2.673,0,0,0,.318-3.767l-.253-.3a2.673,2.673,0,0,0-3.767-.317l-10.256,8.661Z" transform="translate(3.956 -196.747)" fill="#263238"/>
        <path id="Path_404" data-name="Path 404" d="M22.983,208.272V195.235a2.674,2.674,0,0,0-2.674-2.674h-.391a2.674,2.674,0,0,0-2.673,2.674v13.037a.386.386,0,0,0,.386.386H22.6a.386.386,0,0,0,.386-.386" transform="translate(1.839 -192.561)" fill="#263238"/>
        <path id="Path_405" data-name="Path 405" d="M17.335,207.956l-2.846-12.723a2.673,2.673,0,0,0-3.193-2.025l-.381.085a2.673,2.673,0,0,0-2.026,3.193l2.846,12.723a.387.387,0,0,0,.461.292l4.847-1.084a.386.386,0,0,0,.292-.461" transform="translate(1.084 -192.509)" fill="#263238"/>
        <path id="Path_406" data-name="Path 406" d="M11.847,209.386,5.328,198.1a2.675,2.675,0,0,0-3.653-.98l-.339.2a2.672,2.672,0,0,0-.979,3.65l6.518,11.291a.386.386,0,0,0,.527.141l4.3-2.483a.384.384,0,0,0,.142-.526" transform="translate(0 -188.507)" fill="#263238"/>
      </g>
      <rect id="Rectangle_372" data-name="Rectangle 372" width="14.926" height="101.281" transform="translate(-9176.709 -0.51) rotate(-45)" fill="#72a932"/>
      <path id="Path_894" data-name="Path 894" d="M252.509,283.26a20.356,20.356,0,1,0-25.451,13.452,20.356,20.356,0,0,0,25.451-13.452" transform="translate(-9500.308 -179.728) rotate(-22)" fill="#263238"/>
      <path id="Path_895" data-name="Path 895" d="M233.086,297.656a20.414,20.414,0,1,1,9.5-2.372,20.392,20.392,0,0,1-9.5,2.372m-.051-40.731a20.333,20.333,0,1,0,19.453,26.328l.025.009-.025-.009a20.357,20.357,0,0,0-19.453-26.328" transform="translate(-9500.312 -179.729) rotate(-22)" fill="#263238"/>
      <path id="Path_962" data-name="Path 962" d="M271.56,333.418a15.267,15.267,0,1,0-19.089,10.089,15.267,15.267,0,0,0,19.089-10.089" transform="translate(-9495.988 -175.985) rotate(-22)" fill="#263238"/>
      <path id="Path_983" data-name="Path 983" d="M289.687,368.336a12.474,12.474,0,1,0-7.883,15.782,12.474,12.474,0,0,0,7.883-15.782" transform="translate(-9492.474 -172.941) rotate(-22)" fill="#263238"/>
      <path id="Path_985" data-name="Path 985" d="M268.878,372.267l-6.986,11.462a2.674,2.674,0,0,0,.892,3.674l.333.2a2.673,2.673,0,0,0,3.674-.891l6.986-11.462Z" transform="translate(-9492.376 -171.777) rotate(-22)" fill="#263238"/>
      <path id="Path_997" data-name="Path 997" d="M274.053,381.652l4.128,12.367a2.673,2.673,0,0,0,3.382,1.689l.372-.123a2.674,2.674,0,0,0,1.689-3.382L279.5,379.836a.385.385,0,0,0-.488-.244l-4.712,1.573a.384.384,0,0,0-.243.487" transform="translate(-9491.087 -171.59) rotate(-22)" fill="#263238"/>
      <path id="Path_998" data-name="Path 998" d="M279.706,380.109l6.728,11.167a2.673,2.673,0,0,0,3.67.91l.336-.2a2.674,2.674,0,0,0,.91-3.67l-6.728-11.167a.386.386,0,0,0-.53-.131l-4.255,2.563a.386.386,0,0,0-.131.53" transform="translate(-9490.707 -171.997) rotate(-22)" fill="#263238"/>
      <path id="Path_986" data-name="Path 986" d="M284.669,376.859l9.758,8.645a2.673,2.673,0,0,0,3.774-.228l.26-.293a2.674,2.674,0,0,0-.229-3.773l-9.758-8.645a.385.385,0,0,0-.544.033l-3.294,3.718a.385.385,0,0,0,.033.544" transform="translate(-9490.452 -172.535) rotate(-22)" fill="#263238"/>
      <g transform="matrix(1, 0, 0, 1, -9444.05, -376.15)" filter="url(#Path_879)">
        <path id="Path_879-2" data-name="Path 879" d="M87.387,255.892s1.469,142.891,81.658,145.686S252.6,256.914,252.6,255.892c0,0-9.47-21.311-82.6-20.476s-82.6,20.476-82.6,20.476" transform="translate(-67.39 198.84) rotate(-22)" fill="url(#linear-gradient)"/>
      </g>
      <path id="Path_880" data-name="Path 880" d="M129.394,232.53h67.781a8.008,8.008,0,0,0,8.008-8.009V223.35a8.008,8.008,0,0,0-8.008-8.009H129.394a8.009,8.009,0,0,0-8.009,8.009v1.171a8.009,8.009,0,0,0,8.009,8.009" transform="translate(-9482.094 -223.715) rotate(-6)" fill="#263238"/>
      <path id="Path_865" data-name="Path 865" d="M63.246,180.333A17.194,17.194,0,1,0,80.44,163.139a17.194,17.194,0,0,0-17.194,17.194" transform="translate(-9487.771 -227.824) rotate(-6)" fill="#86c63a"/>
      <path id="Path_1000" data-name="Path 1000" d="M63.246,180.333A17.194,17.194,0,1,0,80.44,163.139a17.194,17.194,0,0,0-17.194,17.194" transform="translate(-9312.514 -246.942) rotate(-6)" fill="#86c63a"/>
      <path id="Path_866" data-name="Path 866" d="M163.5,108.623s-69.912-.84-80.979,59.712,48.056,61.684,65.06,62.831c7.712.52,24.208.573,38.765.32,32.228-.559,55-6.8,62.749-36.7a56.834,56.834,0,0,0,1.74-10.708c2.05-32.771-20.133-77.073-87.335-75.459" transform="translate(-9486.684 -232.858) rotate(-6)" fill="#91d63f"/>
      <path id="Path_867" data-name="Path 867" d="M213.232,196.43l-101.568,1.585a19.278,19.278,0,1,1-.6-38.552l101.568-1.585a19.278,19.278,0,1,1,.6,38.552" transform="translate(-9485.248 -228.564) rotate(-6)" fill="#263238"/>
      <path id="Path_873" data-name="Path 873" d="M130.4,175.977a6.187,6.187,0,1,1-4.882-7.262,6.186,6.186,0,0,1,4.882,7.262" transform="translate(-9482.822 -227.852) rotate(-6)" fill="#fff"/>
      <path id="Path_883" data-name="Path 883" d="M195.521,174.938a6.187,6.187,0,1,1-4.882-7.261,6.187,6.187,0,0,1,4.882,7.261" transform="translate(-9477.029 -228.555) rotate(-6)" fill="#fff"/>
      <path id="Path_897" data-name="Path 897" d="M195.646,311.925a30.632,30.632,0,1,1-28.317-32.783,30.631,30.631,0,0,1,28.317,32.783" transform="translate(-9510.814 -171.303) rotate(-22)" fill="#263238"/>
      <path id="Path_910" data-name="Path 910" d="M185.931,309.892A22.321,22.321,0,1,1,165.3,286a22.321,22.321,0,0,1,20.634,23.889" transform="translate(-9508.957 -170.514) rotate(-22)" fill="#fff"/>
      <g id="Group_660" data-name="Group 660" transform="translate(-9322.422 -174.492) rotate(-6)">
        <rect id="Rectangle_245" data-name="Rectangle 245" width="5.851" height="29.589" transform="translate(6.719 10.235)" fill="#263238"/>
        <path id="Path_426" data-name="Path 426" d="M151,87.606a9.645,9.645,0,1,0,9.645-9.645A9.645,9.645,0,0,0,151,87.606" transform="translate(-151 -77.961)" fill="#86c63a"/>
      </g>
      <path id="Path_874" data-name="Path 874" d="M145.778,172.751c.46.049.231,2.213,1.581,5.09a12.792,12.792,0,0,0,3.284,4.316,9.914,9.914,0,0,0,12,1.1,12.782,12.782,0,0,0,4.011-3.65c1.849-2.585,2.016-4.753,2.477-4.719.18,0,.368.55.369,1.573a9.6,9.6,0,0,1-1.126,4.179,12.846,12.846,0,0,1-4.344,4.833,11.743,11.743,0,0,1-15.151-1.384,12.836,12.836,0,0,1-3.4-5.539,9.589,9.589,0,0,1-.35-4.314c.185-1.007.47-1.51.647-1.481" transform="translate(-9480.385 -227.734) rotate(-6)" fill="#fff"/>
      <path id="Path_898" data-name="Path 898" d="M231.143,201.906c-.1-.059,1.151-1.961,2.357-5.395a58.936,58.936,0,0,0,2.835-13.888,102.749,102.749,0,0,0,.327-14.22c-.085-1.821-.17-3.3-.253-4.313a8.464,8.464,0,0,1-.056-1.589,8.479,8.479,0,0,1,.276,1.567c.149,1.012.3,2.487.433,4.312a86.633,86.633,0,0,1-.162,14.3,53.532,53.532,0,0,1-3.024,13.971,26.822,26.822,0,0,1-1.85,3.93,8.557,8.557,0,0,1-.883,1.326" transform="translate(-9472.805 -229.455) rotate(-6)" fill="#263238"/>
      <path id="Path_868" data-name="Path 868" d="M82.768,161.6a8.661,8.661,0,0,1-.345,1.555c-.134.492-.292,1.1-.435,1.808s-.355,1.509-.49,2.411a53.754,53.754,0,0,0-.766,6.349,52.711,52.711,0,0,0,1.379,15.545,53.7,53.7,0,0,0,1.872,6.116c.292.864.636,1.614.908,2.286s.527,1.242.746,1.7a8.579,8.579,0,0,1,.613,1.469,8.473,8.473,0,0,1-.812-1.372c-.251-.448-.543-1-.838-1.672s-.672-1.409-.992-2.271A47.994,47.994,0,0,1,81.6,189.4a49.507,49.507,0,0,1-1.394-15.7A47.7,47.7,0,0,1,81.1,167.3c.161-.906.4-1.7.576-2.41s.362-1.309.531-1.794a8.6,8.6,0,0,1,.557-1.494" transform="translate(-9486.281 -228.119) rotate(-6)" fill="#263238"/>
      <path id="Path_887" data-name="Path 887" d="M87.081,254.088a2.565,2.565,0,0,1,.421.123l1.214.413,4.647,1.638,3.352,1.2c1.235.413,2.594.8,4.045,1.253,2.912.865,6.188,1.984,9.913,2.86l5.812,1.491c2.024.51,4.164.889,6.359,1.365,4.384,1.007,9.14,1.691,14.129,2.5a252.347,252.347,0,0,0,32.769,2.344,252.511,252.511,0,0,0,32.778-2.339c4.988-.806,9.746-1.49,14.13-2.5,2.2-.476,4.336-.855,6.359-1.364l5.813-1.49c3.724-.876,7-2,9.913-2.859,1.45-.451,2.81-.839,4.045-1.251l3.352-1.2,4.646-1.638,1.214-.412a2.565,2.565,0,0,1,.421-.123,2.377,2.377,0,0,1-.4.177l-1.194.465-4.614,1.739-3.34,1.244c-1.23.427-2.587.832-4.035,1.3-2.906.895-6.181,2.042-9.905,2.943l-5.814,1.529c-2.025.521-4.167.912-6.366,1.4-4.389,1.029-9.153,1.73-14.151,2.553a247.72,247.72,0,0,1-32.852,2.388,247.585,247.585,0,0,1-32.845-2.394c-5-.824-9.761-1.527-14.149-2.555-2.2-.488-4.34-.878-6.365-1.4l-5.814-1.529c-3.724-.9-7-2.051-9.905-2.946-1.448-.466-2.8-.871-4.035-1.3l-3.34-1.245-4.614-1.739-1.194-.466a2.549,2.549,0,0,1-.4-.177" transform="translate(-9510.845 -175.743) rotate(-22)" fill="#263238"/>
      <g id="Group_661" data-name="Group 661" transform="translate(-9342.242 8.208) rotate(-22)" opacity="0.3">
        <g id="Group_415" data-name="Group 415" transform="translate(0)">
          <g id="Group_414" data-name="Group 414" clip-path="url(#clip-path)">
            <path id="Path_431" data-name="Path 431" d="M87.387,255.892s9.47-19.642,82.6-20.476,82.6,20.476,82.6,20.476-73.77,36.384-165.208,0" transform="translate(-87.387 -235.392)"/>
          </g>
        </g>
      </g>
      <path id="Path_869" data-name="Path 869" d="M154.373,112.778a.871.871,0,0,1-.252.042l-.739.066c-.648.068-1.611.088-2.84.235a76.686,76.686,0,0,0-10.317,1.71A74.895,74.895,0,0,0,88.893,157.2,76.555,76.555,0,0,0,85.257,167c-.378,1.178-.581,2.118-.769,2.742-.083.286-.15.52-.206.714a.885.885,0,0,1-.089.239.861.861,0,0,1,.033-.252c.041-.2.09-.436.151-.727.154-.634.321-1.585.668-2.776a69.52,69.52,0,0,1,3.483-9.907,73.676,73.676,0,0,1,7.688-13.549,72.62,72.62,0,0,1,29.162-24.065,73.651,73.651,0,0,1,14.759-4.978,69.382,69.382,0,0,1,10.389-1.54c1.236-.114,2.2-.1,2.853-.13l.743-.01a.824.824,0,0,1,.253.015" transform="translate(-9486.371 -232.513) rotate(-6)" fill="#fff"/>
      <path id="Path_870" data-name="Path 870" d="M86.049,191.066a8.082,8.082,0,0,1-.994-2.176,30.919,30.919,0,0,1-1.779-11.356,8.058,8.058,0,0,1,.281-2.374c.178.008-.069,3.646.636,8.049.675,4.406,2.022,7.8,1.856,7.858" transform="translate(-9485.873 -226.94) rotate(-6)" fill="#fff"/>
      <path id="Path_871" data-name="Path 871" d="M69.255,186.111c-.027.023-.247-.177-.589-.587a10.536,10.536,0,0,1-1.232-1.9A12.425,12.425,0,0,1,69.3,169.556a10.539,10.539,0,0,1,1.687-1.517c.437-.307.7-.442.721-.414.063.082-.919.748-2.1,2.192a12.855,12.855,0,0,0-1.808,13.628c.767,1.7,1.542,2.6,1.46,2.665" transform="translate(-9487.477 -227.451) rotate(-6)" fill="#fff"/>
      <path id="Path_899" data-name="Path 899" d="M248.344,172.833c-.119.129-1.814-1.49-4.375-2.715-2.549-1.252-4.869-1.582-4.841-1.755a12.47,12.47,0,0,1,9.216,4.471" transform="translate(-9469.76 -228.267) rotate(-6)" fill="#fff"/>
      <path id="Path_889" data-name="Path 889" d="M112.3,355.235a.831.831,0,0,1-.138-.209c-.1-.176-.215-.386-.356-.643l-1.324-2.5c-.284-.549-.6-1.156-.938-1.815l-1.024-2.205c-.741-1.579-1.577-3.382-2.386-5.424q-.628-1.527-1.31-3.191-.624-1.687-1.3-3.5c-.936-2.409-1.728-5.055-2.663-7.8-1.707-5.552-3.383-11.716-4.854-18.255-1.439-6.548-2.542-12.841-3.411-18.582-.8-5.75-1.437-10.942-1.786-15.32-.211-2.185-.34-4.167-.449-5.907s-.2-3.24-.239-4.467q-.06-1.782-.094-2.824c0-.294-.008-.536-.01-.736a.856.856,0,0,1,.015-.251.839.839,0,0,1,.043.248c.017.2.039.439.066.732l.2,2.818c.07,1.224.183,2.72.336,4.456s.294,3.713.532,5.893c.4,4.366,1.074,9.544,1.9,15.28.895,5.726,2.01,12,3.447,18.535,1.468,6.524,3.124,12.677,4.8,18.222.919,2.747,1.692,5.392,2.608,7.8q.654,1.818,1.263,3.508.664,1.666,1.272,3.195c.785,2.047,1.592,3.857,2.3,5.445q.525,1.192.98,2.221.485,1,.892,1.834.773,1.605,1.227,2.544c.122.267.222.487.306.669a.827.827,0,0,1,.087.237" transform="translate(-9510.346 -175.218) rotate(-22)" fill="#fff"/>
      <path id="Path_900" data-name="Path 900" d="M72.6,266.1a56.189,56.189,0,0,1-7.962-.281,55.941,55.941,0,0,1-7.923-.85,56.008,56.008,0,0,1,7.963.283,56.555,56.555,0,0,1,7.922.848" transform="translate(-9513.006 -173.823) rotate(-22)" fill="#fff"/>
      <path id="Path_882" data-name="Path 882" d="M34.315,245.838a59.467,59.467,0,0,1-4.147-7.059,59.492,59.492,0,0,1-3.648-7.33,59.261,59.261,0,0,1,4.147,7.06,59.433,59.433,0,0,1,3.648,7.329" transform="translate(-9519.036 -172.948) rotate(-22)" fill="#fff"/>
      <path id="Path_984" data-name="Path 984" d="M148.052,380.556a5.589,5.589,0,0,1-1.276-.156,26.93,26.93,0,0,1-3.408-.823,35.446,35.446,0,0,1-4.86-1.868,36.971,36.971,0,0,1-10.4-7.312,35.341,35.341,0,0,1-3.4-3.941,26.95,26.95,0,0,1-1.928-2.928,5.6,5.6,0,0,1-.579-1.148c.093-.056,1,1.531,2.824,3.832a40.449,40.449,0,0,0,3.45,3.813,39.662,39.662,0,0,0,10.259,7.214,40.325,40.325,0,0,0,4.756,1.956c2.781.935,4.582,1.255,4.561,1.361" transform="translate(-9504.288 -167.92) rotate(-22)" fill="#fff"/>
      <path id="Path_901" data-name="Path 901" d="M167.54,342.906a4.317,4.317,0,0,1-.846.087,22.026,22.026,0,0,1-2.439.07,31.894,31.894,0,0,1-8.852-1.437,36.679,36.679,0,0,1-5.766-2.319,37.462,37.462,0,0,1-6-3.872,32.507,32.507,0,0,1-12.529-28.855,37.475,37.475,0,0,1,1.264-7.025,36.73,36.73,0,0,1,2.243-5.8,31.911,31.911,0,0,1,4.993-7.448,21.993,21.993,0,0,1,1.717-1.734,4.239,4.239,0,0,1,.641-.559c.047.048-.8.856-2.173,2.453a33.924,33.924,0,0,0-4.778,7.48,37.335,37.335,0,0,0-2.14,5.744,37.749,37.749,0,0,0-1.189,6.928A32.279,32.279,0,0,0,144,334.984a37.718,37.718,0,0,0,5.873,3.86,37.284,37.284,0,0,0,5.66,2.359,33.878,33.878,0,0,0,8.727,1.615c2.1.091,3.274.021,3.276.088" transform="translate(-9511.096 -170.082) rotate(-22)" fill="#fff"/>
      <path id="Path_888" data-name="Path 888" d="M41.365,254.166c-.046.091-.842-.315-2.217-.628a12.161,12.161,0,0,0-10.3,2.472c-1.083.9-1.609,1.626-1.691,1.565a5.3,5.3,0,0,1,1.425-1.865,11.255,11.255,0,0,1,10.671-2.56,5.306,5.306,0,0,1,2.117,1.016" transform="translate(-9515.87 -173.844) rotate(-22)" fill="#fff"/>
      <path id="Path_875" data-name="Path 875" d="M192.777,154.643c0,.157-13.379.283-29.879.283s-29.882-.126-29.882-.283,13.376-.283,29.882-.283,29.879.126,29.879.283" transform="translate(-9481.627 -229.262) rotate(-6)" fill="#fff"/>
      <path id="Path_876" data-name="Path 876" d="M145.024,218.079a1.769,1.769,0,0,1-.506.082l-1.458.126c-.632.053-1.409.1-2.311.119s-1.932.071-3.067.035a78.951,78.951,0,0,1-7.971-.478,80.969,80.969,0,0,1-19.01-4.476,79.322,79.322,0,0,1-7.349-3.13c-1.032-.476-1.93-.981-2.729-1.4s-1.473-.806-2.016-1.138l-1.248-.763a1.7,1.7,0,0,1-.415-.3,1.774,1.774,0,0,1,.472.2l1.3.668c.557.3,1.242.663,2.054,1.049s1.715.87,2.755,1.32c2.05.959,4.543,1.982,7.353,3a87.04,87.04,0,0,0,18.894,4.45c2.968.343,5.658.539,7.919.6,1.132.061,2.154.038,3.053.048s1.675,0,2.308-.022l1.461-.018a1.744,1.744,0,0,1,.512.032" transform="matrix(0.956, -0.292, 0.292, 0.956, -9507.488, -186.075)" fill="#fff"/>
      <path id="Path_890" data-name="Path 890" d="M229.838,262.215a1.111,1.111,0,0,1-.26.119l-.783.293-3.031,1.079c-1.315.474-2.932,1.028-4.838,1.587s-4.05,1.28-6.476,1.884l-3.793,1c-1.321.343-2.712.625-4.144.959-2.858.693-5.952,1.237-9.2,1.85a210.638,210.638,0,0,1-21.352,2.513,210.467,210.467,0,0,1-21.5.119c-3.3-.21-6.438-.372-9.359-.709-1.462-.155-2.878-.266-4.23-.445l-3.888-.532c-2.481-.3-4.7-.744-6.658-1.078s-3.632-.672-5-.982l-3.14-.7-.813-.2a.144.144,0,1,1,.012-.057l.825.141,3.16.6c1.368.276,3.045.595,5.006.887s4.178.715,6.658.993l3.884.494c1.351.167,2.766.266,4.223.411,2.917.317,6.049.46,9.34.656,6.589.265,13.845.279,21.446-.163,7.594-.492,14.792-1.394,21.3-2.462,3.243-.6,6.332-1.124,9.188-1.795,1.431-.321,2.821-.593,4.142-.924l3.794-.965c2.427-.579,4.58-1.261,6.487-1.8s3.536-1.052,4.86-1.493l3.064-.977.8-.24a1.083,1.083,0,0,1,.28-.064" transform="translate(-9507.744 -176.21) rotate(-22)" fill="#fff"/>
      <path id="Path_943" data-name="Path 943" d="M-1.124,27.734s2.851-1.672,3.955-2.254c.344-.181.682-.372,1.024-.556.176-.095.213-.172.03-.325A13.766,13.766,0,0,1-.179,18.833a13.482,13.482,0,0,1-.845-5.855A13.76,13.76,0,0,1,3.348,3.773a13.3,13.3,0,0,1,7.1-3.55,13.633,13.633,0,0,1,11.82,3.395,13.2,13.2,0,0,1,4.367,7.947,13.6,13.6,0,0,1-4.253,12.6,13.318,13.318,0,0,1-7.86,3.629M22.075,14a.833.833,0,0,0-.312-.639q-1.814-1.812-3.626-3.625a2.4,2.4,0,0,0-.4-.328.459.459,0,0,0-.616.078.449.449,0,0,0-.074.592,1.6,1.6,0,0,0,.271.336q1.545,1.544,3.087,3.09c.37.371.368.55-.007.9-.468.439-.944.871-1.406,1.316-.644.621-1.286,1.246-1.915,1.882a.46.46,0,0,0-.071.7.554.554,0,0,0,.752.135,1.471,1.471,0,0,0,.336-.272l2.385-2.372c.468-.465.938-.929,1.4-1.4a.47.47,0,0,0,.187-.4M8.3,9.292a.687.687,0,0,0-.382.19c-.3.291-.595.581-.889.875Q5.59,11.794,4.152,13.235c-.557.562-.551.857.008,1.411.212.21.427.417.64.626,1.03,1.016,2.056,2.036,3.092,3.046a.518.518,0,0,0,.751.072.573.573,0,0,0-.01-.787,1.565,1.565,0,0,0-.128-.14c-.99-.979-1.977-1.962-2.972-2.935-.526-.514-.532-.63-.006-1.158q1.483-1.49,2.964-2.983a1.24,1.24,0,0,0,.285-.392.561.561,0,0,0-.474-.7m6.561-.13c-.288-.028-.451.163-.574.433Q12.7,13.081,11.1,16.564c-.221.484-.447.967-.645,1.461a.426.426,0,0,0,.194.6.505.505,0,0,0,.7-.125,1.666,1.666,0,0,0,.205-.348q1.82-3.977,3.635-7.956a1.3,1.3,0,0,0,.154-.6c-.012-.286-.153-.427-.479-.438" transform="translate(-9257.398 44.929) rotate(-22)" fill="url(#linear-gradient-2)"/>
      <path id="Path_999" data-name="Path 999" d="M41.365,254.166c-.046.091-.842-.315-2.217-.628a12.161,12.161,0,0,0-10.3,2.472c-1.083.9-1.609,1.626-1.691,1.565a5.3,5.3,0,0,1,1.425-1.865,11.255,11.255,0,0,1,10.671-2.56,5.306,5.306,0,0,1,2.117,1.016" transform="translate(-9263.9 -198.618) rotate(-22)" fill="#fff"/>
    </g>
    <path id="Path_859" data-name="Path 859" d="M660.431,814.031H155.569a.569.569,0,1,1,0-1.137H660.431a.569.569,0,0,1,0,1.137Z" transform="translate(986.361 -6.043)" fill="#cacaca"/>
    <path id="Path_835" data-name="Path 835" d="M902.645,649.263a393.534,393.534,0,0,1-63.161,90.456c-.581.629-1.168,1.242-1.76,1.866l-62-29.354c.379-.63.8-1.337,1.242-2.111C803.6,664.549,964.378,386.559,959.3,323.6,959.889,328.79,978.942,500.518,902.645,649.263Z" transform="translate(795.181 123.365)" fill="#59aca7" opacity="0.4"/>
    <path id="Path_836" data-name="Path 836" d="M854.486,772.154c-.868.493-1.758.976-2.654,1.443l-46.515-22.02c.65-.461,1.408-1.007,2.279-1.62,14.25-10.232,56.625-40.929,98.088-73.921,44.558-35.454,88.073-73.547,94.535-91.73C998.9,588.475,958.123,715.22,854.486,772.154Z" transform="translate(792.142 96.593)" fill="#59aca7" opacity="0.4"/>
    <circle id="Ellipse_25" data-name="Ellipse 25" cx="71.785" cy="71.785" r="71.785" transform="translate(1183.568 726.62)" fill="#144645"/>
    <path id="Path_837" data-name="Path 837" d="M265.6,699.586H208.087a9.6,9.6,0,0,0-9.585,9.585v41.078a9.6,9.6,0,0,0,9.585,9.585H265.6a9.6,9.6,0,0,0,9.585-9.585V709.171a9.6,9.6,0,0,0-9.585-9.585Zm0,5.477a4.093,4.093,0,0,1,1.017.133L236.849,728.94l-29.591-23.792a4.1,4.1,0,0,1,.83-.084Zm0,49.293H208.087a4.112,4.112,0,0,1-4.108-4.108V709.54l31.146,25.043a2.739,2.739,0,0,0,3.424.007L269.7,709.737v40.512a4.113,4.113,0,0,1-4.108,4.107Z" transform="translate(1018.512 68.695)" fill="#fff"/>
    <path id="b82a9922-ead1-40af-af3b-f133b244cde7" d="M882.439,240.291H878.85V142a56.889,56.889,0,0,0-56.889-56.889H613.707A56.889,56.889,0,0,0,556.818,142V681.254a56.889,56.889,0,0,0,56.889,56.889H821.959a56.889,56.889,0,0,0,56.889-56.889V310.259h3.589Z" transform="translate(817.66 147.857)" fill="#3f3d56"/>
    <path id="b2a7827b-2d2c-407d-93be-35e4c67116bc" d="M826.051,101.6H798.867a20.185,20.185,0,0,1-18.689,27.811H660.873A20.185,20.185,0,0,1,642.185,101.6H616.791A42.486,42.486,0,0,0,574.3,144.087V682.552a42.486,42.486,0,0,0,42.486,42.486H826.044a42.486,42.486,0,0,0,42.486-42.486h0V144.085A42.486,42.486,0,0,0,826.044,101.6h.008Z" transform="translate(815.865 146.163)" fill="#fff"/>
    <circle id="e6b07811-3d0f-4972-ba4c-46b0c6566e33" cx="23.33" cy="23.33" r="23.33" transform="translate(1514.316 794.45)" fill="#144645" opacity="0.84"/>
    <path id="Path_846" data-name="Path 846" d="M632.724,496.4a4.605,4.605,0,0,0,0,9.131H821.287a4.605,4.605,0,0,0,0-9.131Z" transform="translate(810.277 105.62)" fill="#e6e6e6"/>
    <path id="Path_847" data-name="Path 847" d="M632.724,616.405a4.605,4.605,0,0,0,0,9.131H821.287a4.605,4.605,0,0,0,0-9.131Z" transform="translate(810.277 93.297)" fill="#e6e6e6"/>
    <path id="Path_848" data-name="Path 848" d="M632.724,526.932a4.605,4.605,0,0,0,0,9.131h81.139a4.605,4.605,0,0,0,0-9.131Z" transform="translate(810.277 102.485)" fill="#e6e6e6"/>
    <path id="Path_849" data-name="Path 849" d="M632.724,556.03a4.605,4.605,0,0,0,0,9.131H821.287a4.605,4.605,0,0,0,0-9.131Z" transform="translate(810.277 99.497)" fill="#e6e6e6"/>
    <path id="Path_850" data-name="Path 850" d="M632.724,586.558a4.605,4.605,0,0,0,0,9.131h81.139a4.605,4.605,0,0,0,0-9.131Z" transform="translate(810.277 96.362)" fill="#e6e6e6"/>
    <path id="Path_851" data-name="Path 851" d="M672.293,264.733h117.38a4.9,4.9,0,0,1,4.891,4.891V391.871a4.9,4.9,0,0,1-4.891,4.891H672.293a4.9,4.9,0,0,1-4.891-4.891V269.624a4.9,4.9,0,0,1,4.891-4.891Z" transform="translate(806.305 129.41)" fill="#59aca7"/>
    <path id="Path_852" data-name="Path 852" d="M767.7,383.017a3.32,3.32,0,1,0,0-6.641H700.347a3.32,3.32,0,1,0,0,6.641Z" transform="translate(803.264 117.945)" fill="#fff"/>
    <path id="Path_853" data-name="Path 853" d="M767.7,361.215a3.32,3.32,0,1,0,0-6.641H700.347a3.32,3.32,0,1,0,0,6.641Z" transform="translate(803.264 120.184)" fill="#fff"/>
    <path id="Path_854" data-name="Path 854" d="M735.868,292.828a20.9,20.9,0,1,1-20.9,20.9h0A20.924,20.924,0,0,1,735.868,292.828Z" transform="translate(801.421 126.525)" fill="#fff"/>
  </g>
</svg>
