<svg xmlns="http://www.w3.org/2000/svg" xmlns:xlink="http://www.w3.org/1999/xlink" width="665.727" height="691.901" viewBox="0 0 665.727 691.901">
  <defs>
    <linearGradient id="linear-gradient" x1="0.5" x2="0.5" y2="1.132" gradientUnits="objectBoundingBox">
      <stop offset="0" stop-color="#a0ea47"/>
      <stop offset="1" stop-color="#4e9000"/>
    </linearGradient>
  </defs>
  <g id="Group_812" data-name="Group 812" transform="translate(-1025.272 -2873.098)">
    <g id="Group_425" data-name="Group 425" transform="translate(9.939 -230.034)">
      <path id="Path_446" data-name="Path 446" d="M308.463,454.682c0,4.08-26,7.388-58.075,7.388s-58.075-3.308-58.075-7.388,26-7.386,58.075-7.386,58.075,3.306,58.075,7.386" transform="translate(1109.688 3322.59)" fill="#e0e0e0"/>
      <path id="Path_567" data-name="Path 567" d="M270.877,453.321c-.313-.069,0-1.826,1.608-3.142s3.387-1.3,3.394-.976c.052.338-1.327.8-2.632,1.9-1.331,1.07-2.047,2.334-2.37,2.218" transform="translate(1148.181 3323.435)" fill="#263238"/>
      <path id="Path_616" data-name="Path 616" d="M222.547,178.226a14.048,14.048,0,1,0,14.048-14.048,14.048,14.048,0,0,0-14.048,14.048" transform="translate(1288.445 3039.757)" fill="#86c63a"/>
      <path id="Path_617" data-name="Path 617" d="M246.658,172.006c-.1.105-1.482-1.217-3.574-2.219-2.082-1.023-3.978-1.293-3.955-1.434a10.188,10.188,0,0,1,7.53,3.653" transform="translate(1286.625 3039.303)" fill="#fff"/>
      <rect id="Rectangle_262" data-name="Rectangle 262" width="4.351" height="22.002" transform="translate(1474.778 3164.333)" fill="#263238"/>
      <path id="Path_615" data-name="Path 615" d="M151,85.133a7.172,7.172,0,1,0,7.172-7.172A7.172,7.172,0,0,0,151,85.133" transform="translate(1318.782 3078.761)" fill="#86c63a"/>
      <path id="Path_447" data-name="Path 447" d="M169.018,138.536a62.983,62.983,0,0,1,15.37-6.68l3.166-15.215,25.7-.45,3.7,15.091a62.979,62.979,0,0,1,15.6,6.135l12.991-8.514,18.494,17.858-8.052,13.279a62.936,62.936,0,0,1,6.68,15.373l15.212,3.166.452,25.7-15.091,3.7a63.05,63.05,0,0,1-6.135,15.595l8.513,12.991-17.855,18.5-13.28-8.052a63.022,63.022,0,0,1-15.373,6.678L215.942,268.9l-25.7.452-3.7-15.093a63.051,63.051,0,0,1-15.6-6.135l-12.991,8.514-18.5-17.856,8.052-13.28a62.944,62.944,0,0,1-6.68-15.373l-15.213-3.166-.45-25.7,15.093-3.7a63.057,63.057,0,0,1,6.134-15.594l-8.513-12.991,17.855-18.5Zm13.7,34.241a27.578,27.578,0,1,0,38.995-.686,27.576,27.576,0,0,0-38.995.686" transform="translate(1076.744 3160.14)" fill="#9ca7ad" opacity="0.72"/>
      <path id="Path_448" data-name="Path 448" d="M270.238,165.669a48,48,0,0,1,12.521-2.536l4.782-10.84,19.235,3.755.356,11.839a48.041,48.041,0,0,1,10.652,7.055l11.04-4.281,10.947,16.257-8.115,8.617a48.019,48.019,0,0,1,2.533,12.526l10.838,4.78-3.752,19.234-11.842.359a48.069,48.069,0,0,1-7.054,10.649l4.28,11.04-16.254,10.947-8.62-8.115a47.921,47.921,0,0,1-12.523,2.533l-4.782,10.838-19.234-3.752-.358-11.842a48.035,48.035,0,0,1-10.651-7.055l-11.04,4.283-10.947-16.255,8.115-8.619a48.009,48.009,0,0,1-2.534-12.523L227,209.783l3.753-19.235,11.84-.358a48.087,48.087,0,0,1,7.055-10.651L245.363,168.5l16.254-10.949Zm4.769,27.706a21.023,21.023,0,1,0,29.181,5.693,21.025,21.025,0,0,0-29.181-5.693" transform="translate(1126.704 3177.853)" fill="#455a64" opacity="0.53"/>
      <path id="Path_449" data-name="Path 449" d="M301.219,22.068a3.07,3.07,0,0,1,.352.261c.23.176.553.459,1,.795a36.331,36.331,0,0,0,4.086,2.731,34.012,34.012,0,0,0,7.115,3.086,31.419,31.419,0,0,0,10.144,1.334,103.418,103.418,0,0,0,12.4-1.492,52.114,52.114,0,0,1,14.373-.462,48.022,48.022,0,0,1,15.254,4.435A43.7,43.7,0,0,1,388.193,57.7a41.6,41.6,0,0,1,2.331,15.7c-.186,5.08-.9,9.847-1.024,14.332a34.262,34.262,0,0,0,1.6,12.278,33.562,33.562,0,0,0,9.923,14.812c.789.723,1.576,1.257,2.221,1.765.683.455,1.246.866,1.726,1.158l1.1.665a2.607,2.607,0,0,1,.365.239,2.633,2.633,0,0,1-.391-.194c-.273-.152-.645-.358-1.124-.622-.489-.28-1.064-.678-1.76-1.124-.657-.5-1.458-1.023-2.261-1.735a32.587,32.587,0,0,1-5.347-5.691,33,33,0,0,1-4.789-9.158,34.481,34.481,0,0,1-1.677-12.405c.109-4.518.8-9.3.976-14.335a41.241,41.241,0,0,0-2.334-15.52A43.321,43.321,0,0,0,365.728,33.2a47.682,47.682,0,0,0-15.09-4.418,51.874,51.874,0,0,0-14.259.414,102.679,102.679,0,0,1-12.45,1.435,31.515,31.515,0,0,1-10.236-1.421,33.679,33.679,0,0,1-7.131-3.188,33.846,33.846,0,0,1-4.05-2.82c-.443-.353-.756-.648-.975-.835a2.493,2.493,0,0,1-.318-.3" transform="translate(1163.121 3113.96)" fill="#e0e0e0"/>
      <path id="Path_450" data-name="Path 450" d="M318.326,0a55.5,55.5,0,0,1,4.748,4.83,52.5,52.5,0,0,1,4.846,6.307,30.176,30.176,0,0,1,4.283,9.609,20.8,20.8,0,0,1,.458,2.981c.058,1.033.064,2.079.042,3.141q-.06,3.193-.125,6.633c-.1,4.581-.246,9.477-.161,14.62a46.928,46.928,0,0,0,3.036,15.716,41.687,41.687,0,0,0,9.185,14.458,38.116,38.116,0,0,0,14.452,9.142A33.938,33.938,0,0,0,374.913,89.1c5.085-.687,9.774-2.2,14.309-2.99a35.314,35.314,0,0,1,6.629-.631,31.568,31.568,0,0,1,6.107.674,32.792,32.792,0,0,1,9.793,3.853,30.609,30.609,0,0,1,6.261,4.9,29.415,29.415,0,0,1,3.22,3.858l.713,1.1c.158.247.227.382.227.382s-.1-.115-.27-.353c-.183-.258-.432-.613-.753-1.066a31.73,31.73,0,0,0-3.276-3.777,30.91,30.91,0,0,0-6.265-4.8,32.79,32.79,0,0,0-9.722-3.746,31.307,31.307,0,0,0-6.036-.634,34.945,34.945,0,0,0-6.553.654c-4.5.8-9.179,2.328-14.322,3.038a34.341,34.341,0,0,1-16.048-1.658,38.528,38.528,0,0,1-14.65-9.255,42.045,42.045,0,0,1-9.29-14.638,47.217,47.217,0,0,1-3.039-15.884c-.072-5.164.091-10.059.209-14.641q.078-3.434.154-6.627c.028-1.066.027-2.1-.025-3.108a20.808,20.808,0,0,0-.432-2.929,30.1,30.1,0,0,0-4.171-9.534,53.914,53.914,0,0,0-4.757-6.329c-1.421-1.649-2.594-2.869-3.388-3.7l-.912-.935c-.2-.213-.3-.331-.3-.331" transform="translate(1171.514 3103.133)" fill="#e0e0e0"/>
      <path id="Path_451" data-name="Path 451" d="M332.367,16.883c.107.091-2.875,3.835-6.662,8.364s-6.943,8.128-7.051,8.037,2.874-3.834,6.662-8.364,6.943-8.127,7.051-8.037" transform="translate(1171.674 3111.415)" fill="#e0e0e0"/>
      <path id="Path_452" data-name="Path 452" d="M333.905,10.511c.1.1-5.1,5.536-11.62,12.144S310.4,34.542,310.3,34.444s5.1-5.535,11.621-12.144,11.882-11.886,11.982-11.788" transform="translate(1167.577 3108.289)" fill="#e0e0e0"/>
      <path id="Path_453" data-name="Path 453" d="M331.969,4.6c.1.1-6.214,6.575-14.1,14.464s-14.362,14.2-14.462,14.1,6.213-6.574,14.1-14.464S331.87,4.5,331.969,4.6" transform="translate(1164.194 3105.389)" fill="#e0e0e0"/>
      <path id="Path_454" data-name="Path 454" d="M366.061,50.358c.091.106-3.591,3.425-8.224,7.413s-8.465,7.134-8.556,7.028,3.589-3.425,8.224-7.413,8.465-7.134,8.556-7.028" transform="translate(1186.701 3127.838)" fill="#e0e0e0"/>
      <path id="Path_455" data-name="Path 455" d="M365.308,41.606a6.317,6.317,0,0,1-.856.96c-.574.6-1.422,1.44-2.482,2.468-2.12,2.059-5.105,4.845-8.494,7.823s-6.536,5.579-8.851,7.417c-1.157.918-2.1,1.65-2.767,2.142a6.375,6.375,0,0,1-1.061.726,6.206,6.206,0,0,1,.938-.879L344.4,60c2.254-1.907,5.36-4.548,8.744-7.522s6.4-5.712,8.583-7.7c1.034-.939,1.9-1.726,2.591-2.349a6.233,6.233,0,0,1,.993-.817" transform="translate(1182.539 3123.545)" fill="#e0e0e0"/>
      <path id="Path_456" data-name="Path 456" d="M361.2,34.88a7.964,7.964,0,0,1-1.081.951L357.09,38.3c-2.561,2.084-6.07,5-9.85,8.318s-7.122,6.432-9.515,8.7c-1.145,1.087-2.1,1.991-2.838,2.691a7.514,7.514,0,0,1-1.081.948,7.69,7.69,0,0,1,.942-1.087c.626-.678,1.556-1.64,2.725-2.81,2.333-2.34,5.639-5.494,9.43-8.828s7.343-6.2,9.963-8.218c1.31-1.008,2.382-1.807,3.136-2.343a7.754,7.754,0,0,1,1.2-.793" transform="translate(1179.108 3120.245)" fill="#e0e0e0"/>
      <path id="Path_457" data-name="Path 457" d="M350.511,30.328a4.638,4.638,0,0,1-.774.8q-.906.836-2.218,2.047c-1.88,1.722-4.466,4.107-7.276,6.791s-5.307,5.164-7.11,6.964l-2.144,2.124a4.7,4.7,0,0,1-.832.738,4.71,4.71,0,0,1,.687-.874c.467-.541,1.16-1.306,2.03-2.239,1.74-1.866,4.2-4.39,7.018-7.082s5.445-5.038,7.388-6.691c.97-.827,1.766-1.486,2.327-1.927a4.709,4.709,0,0,1,.9-.648" transform="translate(1177.318 3118.011)" fill="#e0e0e0"/>
      <path id="Path_458" data-name="Path 458" d="M341.913,26.738a89.2,89.2,0,0,1-6.788,6.668,89.066,89.066,0,0,1-7.136,6.295,89.187,89.187,0,0,1,6.788-6.668,89.423,89.423,0,0,1,7.136-6.295" transform="translate(1176.254 3116.25)" fill="#e0e0e0"/>
      <path id="Path_459" data-name="Path 459" d="M379.135,57.493a3.8,3.8,0,0,1-.687.729l-1.987,1.856-6.589,6.077-6.539,6.132-1.993,1.848a3.889,3.889,0,0,1-.777.632A3.694,3.694,0,0,1,361.2,74c.432-.476,1.076-1.146,1.881-1.966,1.61-1.638,3.877-3.858,6.444-6.246s4.946-4.488,6.7-5.976c.875-.744,1.592-1.336,2.1-1.735a3.831,3.831,0,0,1,.817-.58" transform="translate(1192.236 3131.339)" fill="#e0e0e0"/>
      <path id="Path_460" data-name="Path 460" d="M390.253,60.567c.1.1-6,5.937-13.6,13.03S362.793,86.357,362.7,86.256s5.994-5.936,13.605-13.031,13.855-12.76,13.951-12.657" transform="translate(1193.284 3132.848)" fill="#e0e0e0"/>
      <path id="Path_461" data-name="Path 461" d="M396.56,63.707c.1.1-6.462,6.744-14.65,14.838S367,93.124,366.9,93.024s6.459-6.742,14.65-14.839,14.909-14.577,15.008-14.477" transform="translate(1195.347 3134.389)" fill="#e0e0e0"/>
      <path id="Path_462" data-name="Path 462" d="M427.494,378.983s.094-.207.288-.605l.162-.332c.052-.127.094-.273.146-.428a5.99,5.99,0,0,0,.3-1.094c.039-.212.091-.434.125-.672.018-.24.036-.492.055-.757a5.142,5.142,0,0,0,.007-.832,8.7,8.7,0,0,0-.052-.906,17.062,17.062,0,0,0-1.037-4.21,38.93,38.93,0,0,0-6.082-10.214,87.547,87.547,0,0,0-10.964-11.368,135.96,135.96,0,0,0-15.279-11.557,155.667,155.667,0,0,0-19.18-10.747c-3.509-1.643-7.171-3.185-10.983-4.566a95.436,95.436,0,0,0-11.891-3.51,51.265,51.265,0,0,0-12.73-1.379,21.624,21.624,0,0,0-6.422,1.109,12.229,12.229,0,0,0-2.91,1.507,7.841,7.841,0,0,0-3.254,5.512,12.18,12.18,0,0,0,.089,3.276,21.585,21.585,0,0,0,2.136,6.159,51.339,51.339,0,0,0,7.374,10.472,95.425,95.425,0,0,0,8.832,8.7c3.056,2.667,6.18,5.125,9.316,7.4a155.863,155.863,0,0,0,18.7,11.576,136.078,136.078,0,0,0,17.512,7.768,87.445,87.445,0,0,0,15.257,4.084,38.96,38.96,0,0,0,11.879.371,16.96,16.96,0,0,0,4.186-1.131,8.856,8.856,0,0,0,.817-.392,5.357,5.357,0,0,0,.726-.41l.635-.416c.191-.145.361-.3.528-.434a6.064,6.064,0,0,0,.811-.793c.109-.122.218-.228.3-.335s.149-.213.213-.3c.253-.362.389-.544.389-.544s-.121.191-.368.559l-.209.31c-.083.109-.191.216-.3.34a5.969,5.969,0,0,1-.808.806c-.165.139-.335.294-.526.443l-.637.422a4.989,4.989,0,0,1-.726.417,8.541,8.541,0,0,1-.82.4,16.936,16.936,0,0,1-4.2,1.161,38.865,38.865,0,0,1-11.919-.329,87.129,87.129,0,0,1-15.294-4.055,135.619,135.619,0,0,1-17.549-7.751,155.429,155.429,0,0,1-18.736-11.572c-3.144-2.275-6.276-4.734-9.339-7.405a95.513,95.513,0,0,1-8.86-8.722,51.512,51.512,0,0,1-7.413-10.524,21.763,21.763,0,0,1-2.161-6.232,12.48,12.48,0,0,1-.091-3.351,8.1,8.1,0,0,1,3.357-5.687,12.539,12.539,0,0,1,2.975-1.541,21.9,21.9,0,0,1,6.5-1.124,51.532,51.532,0,0,1,12.793,1.389,95.626,95.626,0,0,1,11.921,3.525c3.819,1.386,7.487,2.934,11,4.582a155.58,155.58,0,0,1,19.2,10.785,135.59,135.59,0,0,1,15.282,11.6,87.117,87.117,0,0,1,10.956,11.417,38.815,38.815,0,0,1,6.062,10.267,17.007,17.007,0,0,1,1.02,4.236,8.759,8.759,0,0,1,.046.911,5.054,5.054,0,0,1-.013.839c-.021.265-.042.52-.061.762-.037.238-.092.462-.133.674a6.025,6.025,0,0,1-.314,1.1c-.055.155-.1.3-.152.426s-.119.232-.17.332c-.2.395-.311.593-.311.593" transform="translate(1176 3257.94)" fill="#e0e0e0"/>
      <path id="Path_463" data-name="Path 463" d="M437.093,334.968s-.069-.218-.188-.642c-.03-.107-.064-.225-.1-.358s-.112-.265-.176-.416a6.089,6.089,0,0,0-.5-1.017c-.112-.183-.221-.385-.353-.584l-.464-.6a5.146,5.146,0,0,0-.549-.626,8.969,8.969,0,0,0-.642-.641,16.93,16.93,0,0,0-3.576-2.451,38.938,38.938,0,0,0-11.336-3.575,87.521,87.521,0,0,0-15.75-1.185,135.986,135.986,0,0,0-19.093,1.546,155.973,155.973,0,0,0-21.468,4.748c-3.712,1.109-7.471,2.4-11.236,3.9a95.407,95.407,0,0,0-11.21,5.3,51.293,51.293,0,0,0-10.418,7.443,21.6,21.6,0,0,0-4.053,5.1,12.211,12.211,0,0,0-1.169,3.062,7.842,7.842,0,0,0,1.242,6.28,12.143,12.143,0,0,0,2.248,2.385,21.5,21.5,0,0,0,5.694,3.174,51.236,51.236,0,0,0,12.472,2.907,95.547,95.547,0,0,0,12.386.616c4.054-.043,8.023-.289,11.877-.68a156.073,156.073,0,0,0,21.656-3.807,136.033,136.033,0,0,0,18.239-5.86,87.441,87.441,0,0,0,14.1-7.109,38.941,38.941,0,0,0,9.112-7.629,17.014,17.014,0,0,0,2.37-3.631,9,9,0,0,0,.349-.836,5.191,5.191,0,0,0,.268-.789q.1-.385.2-.733c.045-.236.07-.464.1-.675a6.078,6.078,0,0,0,.079-1.133c0-.163.009-.313,0-.45s-.03-.259-.043-.37c-.052-.438-.072-.665-.072-.665s.037.224.1.663c.016.109.033.233.051.37s0,.288,0,.452a6.035,6.035,0,0,1-.066,1.139c-.033.215-.055.443-.1.681q-.092.351-.194.739a5.166,5.166,0,0,1-.264.795,8.728,8.728,0,0,1-.346.845,16.963,16.963,0,0,1-2.361,3.661A38.854,38.854,0,0,1,424.8,352a87.254,87.254,0,0,1-14.113,7.155,135.469,135.469,0,0,1-18.256,5.9,155.378,155.378,0,0,1-21.684,3.837c-3.861.395-7.835.644-11.9.69a95.831,95.831,0,0,1-12.418-.611A51.553,51.553,0,0,1,333.9,366.05a21.793,21.793,0,0,1-5.763-3.212,12.489,12.489,0,0,1-2.3-2.44,8.1,8.1,0,0,1-1.279-6.478,12.408,12.408,0,0,1,1.194-3.13,21.881,21.881,0,0,1,4.1-5.165,51.547,51.547,0,0,1,10.472-7.48,95.742,95.742,0,0,1,11.242-5.3c3.773-1.508,7.541-2.795,11.259-3.9a155.3,155.3,0,0,1,21.505-4.731,135.506,135.506,0,0,1,19.123-1.518,87.311,87.311,0,0,1,15.777,1.225,38.829,38.829,0,0,1,11.359,3.628,17.01,17.01,0,0,1,3.581,2.482,8.466,8.466,0,0,1,.641.65,5.2,5.2,0,0,1,.549.634l.461.61c.131.2.24.405.35.592a6,6,0,0,1,.5,1.027c.061.154.125.291.168.42s.067.253.1.361c.112.429.162.65.162.65" transform="translate(1174.481 3261.454)" fill="#e0e0e0"/>
      <path id="Path_464" data-name="Path 464" d="M398.934,302.7s-.213-.079-.623-.244l-.344-.14c-.13-.043-.277-.075-.435-.118a6.19,6.19,0,0,0-1.112-.224c-.215-.024-.44-.061-.68-.079l-.759,0a5.177,5.177,0,0,0-.832.051,8.622,8.622,0,0,0-.9.115,16.919,16.919,0,0,0-4.129,1.325,38.961,38.961,0,0,0-9.771,6.771,87.458,87.458,0,0,0-10.585,11.721,135.81,135.81,0,0,0-10.476,16.038,155.86,155.86,0,0,0-9.4,19.875c-1.4,3.613-2.683,7.374-3.8,11.272a95.265,95.265,0,0,0-2.683,12.1,51.282,51.282,0,0,0-.5,12.794,21.606,21.606,0,0,0,1.55,6.331,12.247,12.247,0,0,0,1.7,2.8,7.846,7.846,0,0,0,5.724,2.866,12.249,12.249,0,0,0,3.263-.315,21.557,21.557,0,0,0,6-2.556A51.268,51.268,0,0,0,370.081,395a95.448,95.448,0,0,0,8.075-9.412c2.451-3.232,4.688-6.518,6.741-9.8a155.888,155.888,0,0,0,10.259-19.448,135.7,135.7,0,0,0,6.544-18.005,87.523,87.523,0,0,0,3.025-15.5,38.946,38.946,0,0,0-.447-11.877,17.036,17.036,0,0,0-1.418-4.1,8.551,8.551,0,0,0-.449-.787,5.116,5.116,0,0,0-.458-.7l-.459-.605c-.158-.18-.322-.34-.47-.5a6.086,6.086,0,0,0-.847-.754c-.13-.1-.243-.2-.355-.279l-.319-.191c-.379-.228-.569-.352-.569-.352s.2.107.583.329l.323.186c.115.076.23.174.361.274a5.951,5.951,0,0,1,.859.75c.151.156.318.314.478.495s.3.393.465.605a5.153,5.153,0,0,1,.467.7,8.452,8.452,0,0,1,.456.79,16.9,16.9,0,0,1,1.447,4.11,38.885,38.885,0,0,1,.493,11.913,87.172,87.172,0,0,1-2.992,15.537,135.415,135.415,0,0,1-6.525,18.041A155.41,155.41,0,0,1,385.1,375.911c-2.054,3.293-4.292,6.587-6.745,9.826a95.526,95.526,0,0,1-8.091,9.44,51.5,51.5,0,0,1-9.989,8.121,21.829,21.829,0,0,1-6.068,2.586,12.512,12.512,0,0,1-3.336.32,8.092,8.092,0,0,1-5.9-2.957,12.445,12.445,0,0,1-1.743-2.862,21.829,21.829,0,0,1-1.57-6.405,51.545,51.545,0,0,1,.505-12.86,95.52,95.52,0,0,1,2.7-12.134c1.118-3.907,2.41-7.672,3.813-11.29A155.5,155.5,0,0,1,358.1,337.8a135.4,135.4,0,0,1,10.518-16.044,87.142,87.142,0,0,1,10.634-11.718,38.846,38.846,0,0,1,9.825-6.754,16.936,16.936,0,0,1,4.157-1.31,8.752,8.752,0,0,1,.906-.109,5.2,5.2,0,0,1,.836-.045l.765.009c.24.021.467.06.683.086a6,6,0,0,1,1.115.237c.158.045.306.077.435.124l.344.146c.407.174.613.27.613.27" transform="translate(1182.856 3251.215)" fill="#e0e0e0"/>
      <path id="Path_465" data-name="Path 465" d="M328.315,361.66a2.129,2.129,0,1,1-2.953.586,2.127,2.127,0,0,1,2.953-.586" transform="translate(1174.79 3280.398)" fill="#e0e0e0"/>
      <path id="Path_466" data-name="Path 466" d="M399.045,303.016a2.129,2.129,0,1,1-2.5-1.674,2.128,2.128,0,0,1,2.5,1.674" transform="translate(1209.048 3250.96)" fill="#e0e0e0"/>
      <path id="Path_467" data-name="Path 467" d="M337.339,364.537a.541.541,0,1,1-.636-.426.542.542,0,0,1,.636.426" transform="translate(1180.316 3281.772)" fill="#e0e0e0"/>
      <path id="Path_468" data-name="Path 468" d="M337.151,323.772a.541.541,0,1,1-.636-.425.542.542,0,0,1,.636.425" transform="translate(1180.224 3261.772)" fill="#e0e0e0"/>
      <path id="Path_469" data-name="Path 469" d="M396.495,331.833a.541.541,0,1,1-.637-.425.542.542,0,0,1,.637.425" transform="translate(1209.34 3265.727)" fill="#e0e0e0"/>
      <path id="Path_470" data-name="Path 470" d="M398.151,314.253a.541.541,0,1,1-.637-.425.542.542,0,0,1,.637.425" transform="translate(1210.153 3257.102)" fill="#e0e0e0"/>
      <path id="Path_471" data-name="Path 471" d="M375.8,339.78a10.365,10.365,0,1,1-12.183-8.149A10.364,10.364,0,0,1,375.8,339.78" transform="translate(1189.639 3265.743)" fill="#9ca7ad"/>
      <path id="Path_472" data-name="Path 472" d="M380.18,145.245a92.052,92.052,0,0,0-20.322-31.7c-15.386-15.7-32.891-29.6-52.709-39.342S255,55.813,231.465,55.936c-12.155-.464-18.3.3-29.357,4.567-6.909,2.667-12.708,8.822-13.186,16.12-.443,6.753,3.725,15.054,9.309,18.988,23.971,16.9,42.125,17.779,65.372,25.219s47.17,18.461,59.707,39.141c6.8,11.22,10.68,25.584,22.489,31.537,11.444,5.773,26.542.167,33.557-10.445s5.35-23.962.823-35.818" transform="translate(1108.009 3130.518)" fill="#e0e0e0"/>
      <path id="Path_473" data-name="Path 473" d="M132.144,265.505s-.581.34-1.734.967-2.889,1.52-5.092,2.825a187.317,187.317,0,0,0-18.752,12.2,192.694,192.694,0,0,0-40.615,40.411A125.38,125.38,0,0,0,53.089,343.02,97.8,97.8,0,0,0,48.3,355.425a72.629,72.629,0,0,0-2.653,13.6,52.234,52.234,0,0,0,.765,14.365,50.126,50.126,0,0,0,1.972,7.142,47,47,0,0,0,3.2,6.826c5.041,8.844,13.006,16.27,22.41,21.628,9.424,5.4,20.3,8.656,31.589,10.537,5.658.942,11.438,1.576,17.3,2.027,2.929.25,5.887.35,8.857.479s5.958.258,8.962.386c3,.189,6.025.127,9.063.125s6.089-.016,9.157-.024c3.069.055,6.146-.2,9.239-.312l9.322-.431A464.514,464.514,0,0,0,253.939,420.3c51.719-12.02,98.991-30.737,140.608-50.164,20.845-9.64,40.348-19.715,56.778-31.886a142.16,142.16,0,0,0,21.857-19.775l2.331-2.655c.766-.885,1.452-1.829,2.178-2.734s1.425-1.822,2.133-2.725q.982-1.413,1.951-2.811a64.683,64.683,0,0,0,6.659-11.487c3.531-7.882,5.55-16.1,5.217-23.9-.32-7.765-3.288-15-8.26-19.773a32.359,32.359,0,0,0-16.9-8.352,45.708,45.708,0,0,0-16.045.01,75.8,75.8,0,0,0-12.459,3.285c-3.533,1.23-6.46,2.445-8.82,3.43l-5.35,2.3c-1.2.523-1.828.774-1.828.774s.6-.3,1.795-.847,2.971-1.355,5.322-2.372,5.272-2.249,8.8-3.5a75.326,75.326,0,0,1,12.487-3.366,45.926,45.926,0,0,1,16.16-.078,32.731,32.731,0,0,1,17.136,8.407c5.068,4.836,8.108,12.2,8.449,20.061.355,7.9-1.667,16.2-5.211,24.15a65.153,65.153,0,0,1-6.684,11.588q-.975,1.406-1.957,2.831-1.064,1.362-2.141,2.741c-.726.911-1.416,1.86-2.184,2.752s-1.555,1.777-2.339,2.673a142.468,142.468,0,0,1-21.921,19.892c-16.471,12.237-36.009,22.354-56.859,32.017-41.629,19.478-88.942,38.235-140.737,50.273-51.679,12.088-102.992,15.471-148.646,9.172-11.347-1.9-22.3-5.186-31.81-10.651-9.488-5.418-17.533-12.93-22.631-21.9a47.523,47.523,0,0,1-3.238-6.925,50.44,50.44,0,0,1-1.989-7.242,52.781,52.781,0,0,1-.751-14.535,72.994,72.994,0,0,1,2.7-13.72,98.178,98.178,0,0,1,4.845-12.474,125.5,125.5,0,0,1,12.961-21.167,191.737,191.737,0,0,1,40.834-40.362,180.381,180.381,0,0,1,18.852-12.1c4.473-2.5,6.9-3.656,6.9-3.656" transform="translate(1037.339 3222.354)" fill="#e0e0e0"/>
      <path id="Path_474" data-name="Path 474" d="M419.481,176.925l-18.658,68.623L344.166,261.21a3.927,3.927,0,0,0-2.582,4.575l61.986-15.945,2.185-.678,73.481-19.675,8.157-32.546,10.6-38.156c.778-2.322-1.14-4.7-3.311-4.1l-73.238,20.113a2.857,2.857,0,0,0-1.963,2.132" transform="translate(1182.89 3178.978)" fill="#455a64"/>
      <path id="Path_475" data-name="Path 475" d="M401.964,176.774l-16.972,62.492L451.563,221l14.9-61.6Z" transform="translate(1204.222 3181.341)" fill="#fafafa"/>
      <path id="Path_476" data-name="Path 476" d="M480.444,154.65a1.447,1.447,0,0,1-.055.364c-.063.277-.139.623-.234,1.052-.234.975-.557,2.325-.97,4.041-.887,3.567-2.153,8.649-3.722,14.954-3.238,12.726-7.729,30.373-12.8,50.315l-.055.216-.219.06-10.658,2.869-57.373,15.31-17.409,4.554-4.745,1.2-1.239.294a1.741,1.741,0,0,1-.428.075,1.72,1.72,0,0,1,.408-.151l1.218-.368,4.706-1.34c4.151-1.148,10.063-2.782,17.345-4.792l57.313-15.531,10.661-2.863-.271.276c5.171-19.915,9.749-37.54,13.049-50.251,1.665-6.28,3.008-11.342,3.95-14.894.468-1.7.835-3.042,1.1-4.008.124-.422.224-.762.3-1.035a1.377,1.377,0,0,1,.127-.346" transform="translate(1197.129 3179.009)" fill="#e0e0e0"/>
      <path id="Path_477" data-name="Path 477" d="M118.546,365.532a28.146,28.146,0,1,1,11.52-38.1,28.146,28.146,0,0,1-11.52,38.1" transform="translate(1053.163 3256.49)" fill="#455a64"/>
      <path id="Path_478" data-name="Path 478" d="M91.86,334.919a4.59,4.59,0,1,1,1.878-6.214,4.591,4.591,0,0,1-1.878,6.214" transform="translate(1057.086 3263.217)" fill="#fff"/>
      <rect id="Rectangle_248" data-name="Rectangle 248" width="9.183" height="9.182" transform="translate(1142.188 3589.498)" fill="none"/>
      <path id="Path_479" data-name="Path 479" d="M96.7,325.683a2.67,2.67,0,1,1,1.093-3.615,2.671,2.671,0,0,1-1.093,3.615" transform="translate(1060.849 3260.458)" fill="#fff"/>
      <rect id="Rectangle_249" data-name="Rectangle 249" width="5.342" height="5.342" transform="translate(1153.618 3581.116)" fill="none"/>
      <path id="Path_480" data-name="Path 480" d="M94.406,319.166c-.371.341-32.286-10.032-33.7-2.193s22.176,24.989,48.681,36.182,55.513,18.851,57.993,11.174-25.9-24.209-25.9-24.209l-.3,3.953s17.552,9.784,16.366,16.489-22.889,1.029-46.9-10.524-43.555-24.676-41.285-29.555,22.119,1.769,22.119,1.769Z" transform="translate(1045.086 3257.209)" fill="#e0e0e0"/>
      <path id="Path_481" data-name="Path 481" d="M114.239,316.961c-.133.328-2.461-.589-6.344-.957a25.908,25.908,0,0,0-25.36,12.942c-1.98,3.361-2.6,5.784-2.947,5.7-.241-.033-.158-2.644,1.585-6.419a24.34,24.34,0,0,1,4.034-6.037,24.409,24.409,0,0,1,15.652-7.987,24.276,24.276,0,0,1,7.255.277c4.077.8,6.241,2.267,6.126,2.482" transform="translate(1054.332 3257.217)" fill="#fff"/>
      <rect id="Rectangle_250" data-name="Rectangle 250" width="34.755" height="20.593" transform="translate(1133.82 3571.27)" fill="none"/>
      <path id="Path_482" data-name="Path 482" d="M91.821,32.871l1.45,6.674a7.719,7.719,0,0,1-2.234,7.24l-44.81,42.44A11.227,11.227,0,0,0,48.3,107.082l28.322,16.469a11.88,11.88,0,0,0,17.546-7.6l13.818-59.9a7.715,7.715,0,0,1,5.424-5.693l5.709-1.608Z" transform="translate(1036.292 3119.26)" fill="#e0e0e0"/>
      <path id="Path_483" data-name="Path 483" d="M98.86,70.174a20.058,20.058,0,0,1-8.373-5.119c-2.234-2.287-3.888-5.076-6-7.473s-4.916-4.478-8.111-4.6L48.423,80.346A9.54,9.54,0,0,0,50.3,95.409L75.69,110.171a9.54,9.54,0,0,0,14.01-5.779Z" transform="translate(1037.685 3129.125)" fill="#455a64"/>
      <path id="Path_484" data-name="Path 484" d="M53.2,92.329c-.064.092-.72-.161-1.529-1.108a7.9,7.9,0,0,1-1.6-4.91,10.35,10.35,0,0,1,.622-3.578,15.2,15.2,0,0,1,1.93-3.616A62.018,62.018,0,0,1,58.671,72.4c8.836-9.045,16.315-16.066,16.707-15.683s-6.453,8.023-15.289,17.068A81.857,81.857,0,0,0,54.1,80.194a14.781,14.781,0,0,0-1.877,3.139,9.683,9.683,0,0,0-.751,3.023,8.221,8.221,0,0,0,.839,4.435c.525.958.99,1.418.89,1.538" transform="translate(1039.902 3130.953)" fill="#fff"/>
      <rect id="Rectangle_251" data-name="Rectangle 251" width="25.32" height="35.644" transform="translate(1089.977 3187.656)" fill="none"/>
      <path id="Path_485" data-name="Path 485" d="M86.152,72.145a5.655,5.655,0,0,1-1.088-.088c-.7-.088-1.705-.225-2.938-.484a16.948,16.948,0,0,1-4.2-1.434,11.168,11.168,0,0,1-2.19-1.473,13.991,13.991,0,0,1-1.911-2.084c-1.163-1.544-2.075-3.127-3.041-4.46a13.644,13.644,0,0,0-3.016-3.112,7.449,7.449,0,0,0-2.632-1.231c-.677-.146-1.067-.145-1.066-.185a.77.77,0,0,1,.283-.025,4.566,4.566,0,0,1,.812.06,7,7,0,0,1,2.762,1.152,13.3,13.3,0,0,1,3.15,3.126c1,1.342,1.921,2.922,3.063,4.436A13.885,13.885,0,0,0,76,68.374a11.023,11.023,0,0,0,2.1,1.441,17.694,17.694,0,0,0,4.09,1.483c1.213.292,2.211.473,2.9.607a5.873,5.873,0,0,1,1.064.24" transform="translate(1046.77 3131.376)" fill="#fafafa"/>
      <path id="Path_486" data-name="Path 486" d="M128.676,32.771c-.461-2.974-2.436-5.493-4.619-7.562A25.509,25.509,0,0,0,110.3,18.16a20.618,20.618,0,0,0-15.653,4.381,19.037,19.037,0,0,0-7.119,13.873c-.508,3.507,3.154,6.474,6.693,6.66s6.863-1.526,10.044-3.092,6.677-3.06,10.16-2.407c3.531.66,6.857,3.479,10.3,2.461,2.886-.853,4.406-4.292,3.946-7.265" transform="translate(1058.256 3111.951)" fill="#b7bfc4"/>
      <path id="Path_487" data-name="Path 487" d="M134.9,26.163c-.212-2.762-2.339-7.127-7.4-6.493-2.091-.043-4.341,2.583-4.883,4.6a5.71,5.71,0,0,0,1.859,5.654,6.934,6.934,0,0,0,5.9,1.389c2.443-.523,4.722-2.664,4.532-5.155" transform="translate(1075.41 3112.753)" fill="#b7bfc4"/>
      <path id="Path_488" data-name="Path 488" d="M1.078,175.78l-.772,2.078a4.88,4.88,0,0,0,.249,3.956l42.179,80.719a4.881,4.881,0,0,0,3.051,2.449l2.389.645a4.9,4.9,0,0,0,1.653.154l49.246-3.87a4.878,4.878,0,0,0,3.916-7.164L58.331,171.373a4.875,4.875,0,0,0-4.681-2.559l-48.384,3.8a4.877,4.877,0,0,0-4.189,3.163" transform="translate(1015.333 3185.951)" fill="#455a64"/>
      <path id="Path_489" data-name="Path 489" d="M2.794,174.03l44.749,83.651,50.7-3.984-44.4-83.678Z" transform="translate(1016.704 3186.549)" fill="#fafafa"/>
      <path id="Path_490" data-name="Path 490" d="M37.777,215.488a7.52,7.52,0,1,1-3.961,9.871,7.519,7.519,0,0,1,3.961-9.871" transform="translate(1031.627 3208.56)" fill="#455a64"/>
      <path id="Path_491" data-name="Path 491" d="M39.165,217.672l-.207,1.362a.367.367,0,0,0,.227.4l.256.1a.425.425,0,0,1,.319.543c-.1.3-.869,2.167-.869,2.167s-.188.5-.572.332l-.374-.149a.312.312,0,0,0-.361.094l-.951,1.187a.314.314,0,0,0,.027.42l.346.34a.594.594,0,0,0,.224.139,1.265,1.265,0,0,0,.717.019c.45-.131,1.768-1.067,2.618-3.519.808-2.336.042-3.223-.136-3.448a1.064,1.064,0,0,0-.626-.3l-.279,0a.368.368,0,0,0-.358.312" transform="translate(1033.272 3209.774)" fill="#fff"/>
      <path id="Path_492" data-name="Path 492" d="M50.347,226.071a7.52,7.52,0,1,1,10.6-.833,7.52,7.52,0,0,1-10.6.833" transform="translate(1038.741 3207.555)" fill="#455a64"/>
      <path id="Path_493" data-name="Path 493" d="M50.825,219.818l1.312-.42a.366.366,0,0,0,.255-.377l-.022-.276a.427.427,0,0,1,.346-.528c.315-.045,2.327-.182,2.327-.182s.529-.052.552.365l.033.4a.314.314,0,0,0,.244.282l1.485.325a.316.316,0,0,0,.367-.21l.149-.462a.6.6,0,0,0,.025-.262,1.26,1.26,0,0,0-.3-.65c-.318-.346-1.741-1.111-4.315-.783-2.452.313-2.907,1.394-3.029,1.652a1.061,1.061,0,0,0,.009.7c.03.057.079.152.127.247a.366.366,0,0,0,.438.182" transform="translate(1039.961 3209.581)" fill="#fff"/>
      <path id="Path_494" data-name="Path 494" d="M39,197.879c1.9-1.331,2.466-4,1.173-6.855-1.7-3.742-5.931-6.368-9.458-5.867s-5,3.937-3.294,7.677a10.53,10.53,0,0,0,6.957,5.724c-9.1,2.908-3.759,13.457-3.759,13.457l24.94-1.96S49.36,197.916,39,197.879" transform="translate(1028.437 3193.946)" fill="#455a64"/>
      <path id="Path_495" data-name="Path 495" d="M67.945,207.576c.031.392-8.95,1.418-20.056,2.291s-20.138,1.263-20.168.871,8.947-1.416,20.058-2.288,20.135-1.264,20.167-.874" transform="translate(1028.934 3204.902)" fill="#ebebeb"/>
      <path id="Path_496" data-name="Path 496" d="M66.378,399.383l1.634,2.714a18.592,18.592,0,0,0,7.689,7.08l2.84,1.4-2.714,1.634a18.591,18.591,0,0,0-7.081,7.689l-1.4,2.84-1.634-2.714a18.6,18.6,0,0,0-7.689-7.08l-2.84-1.4,2.714-1.634a18.6,18.6,0,0,0,7.081-7.689Z" transform="translate(1042.406 3299.083)" fill="#8ccf3d"/>
      <path id="Path_497" data-name="Path 497" d="M419.107,41.608l1.634,2.714A18.591,18.591,0,0,0,428.43,51.4l2.84,1.4-2.714,1.634a18.591,18.591,0,0,0-7.081,7.689l-1.4,2.84-1.634-2.714a18.591,18.591,0,0,0-7.689-7.081l-2.84-1.4,2.714-1.634a18.6,18.6,0,0,0,7.08-7.689Z" transform="translate(1215.466 3123.547)" fill="#91d63f"/>
      <path id="Path_498" data-name="Path 498" d="M431.157,69.862l1.419,2.36a16.161,16.161,0,0,0,6.684,6.153l2.467,1.221-2.358,1.421a16.16,16.16,0,0,0-6.155,6.683l-1.221,2.468-1.419-2.36a16.151,16.151,0,0,0-6.684-6.153l-2.467-1.221,2.358-1.421a16.16,16.16,0,0,0,6.155-6.683Z" transform="translate(1222.097 3137.409)" fill="#91d63f"/>
      <path id="Path_499" data-name="Path 499" d="M44.159,378.814l1.155,1.92a13.154,13.154,0,0,0,5.441,5.01l2.008.994-1.92,1.155a13.169,13.169,0,0,0-5.01,5.439l-.993,2.009-1.155-1.92a13.155,13.155,0,0,0-5.441-5.01l-2.009-.993,1.921-1.157a13.147,13.147,0,0,0,5.009-5.439Z" transform="translate(1033.111 3288.991)" fill="#8ccf3d"/>
      <path id="Path_500" data-name="Path 500" d="M374.973,392.936l1.155,1.92a13.16,13.16,0,0,0,5.439,5.01l2.009.994-1.92,1.155a13.16,13.16,0,0,0-5.01,5.439l-.993,2.009-1.155-1.92a13.164,13.164,0,0,0-5.441-5.01l-2.009-.993,1.921-1.157a13.147,13.147,0,0,0,5.008-5.439Z" transform="translate(1195.419 3295.92)" fill="#8ccf3d"/>
      <path id="Path_501" data-name="Path 501" d="M34.508,24.234l1.155,1.921a13.165,13.165,0,0,0,5.441,5.01l2.008.991-1.92,1.158a13.161,13.161,0,0,0-5.01,5.439l-.993,2.009-1.155-1.92a13.155,13.155,0,0,0-5.441-5.01l-2.009-.994,1.921-1.155a13.147,13.147,0,0,0,5.009-5.439Z" transform="translate(1028.376 3115.022)" fill="#8ccf3d"/>
      <path id="Path_502" data-name="Path 502" d="M418.9,259.625l1.155,1.92a13.154,13.154,0,0,0,5.441,5.01l2.008.994-1.92,1.155a13.15,13.15,0,0,0-5.01,5.439l-.993,2.009-1.155-1.92a13.164,13.164,0,0,0-5.441-5.01l-2.009-.994,1.921-1.155a13.147,13.147,0,0,0,5.009-5.439Z" transform="translate(1216.969 3230.513)" fill="#8ccf3d"/>
      <path id="Path_503" data-name="Path 503" d="M31.215,117.157l1.155,1.92a13.155,13.155,0,0,0,5.441,5.01l2.008.993-1.92,1.157a13.151,13.151,0,0,0-5.01,5.439l-.993,2.009-1.155-1.92a13.164,13.164,0,0,0-5.441-5.01l-2.009-.994,1.921-1.155a13.148,13.148,0,0,0,5.009-5.439Z" transform="translate(1026.76 3160.614)" fill="#8ccf3d"/>
      <rect id="Rectangle_252" data-name="Rectangle 252" width="665.727" height="691.901" transform="translate(1015.333 3103.133)" fill="none"/>
      <path id="Path_504" data-name="Path 504" d="M623.926,444.1c0,.215-132.273.388-295.4.388-163.187,0-295.431-.173-295.431-.388s132.244-.388,295.431-.388c163.13,0,295.4.173,295.4.388" transform="translate(1031.568 3320.831)" fill="#263238"/>
      <rect id="Rectangle_253" data-name="Rectangle 253" width="665.727" height="691.901" transform="translate(1015.333 3103.133)" fill="none"/>
      <path id="Path_505" data-name="Path 505" d="M83.776,133.591l1.075,1.787a12.247,12.247,0,0,0,5.061,4.66l1.869.924L90,142.038a12.223,12.223,0,0,0-4.661,5.061l-.924,1.869-1.075-1.787a12.247,12.247,0,0,0-5.061-4.66L76.4,141.6l1.786-1.075a12.232,12.232,0,0,0,4.661-5.061Z" transform="translate(1052.82 3168.677)" fill="#91d63f"/>
      <path id="Path_506" data-name="Path 506" d="M343.347,265.286l1.075,1.787a12.247,12.247,0,0,0,5.061,4.66l1.869.924-1.786,1.075a12.235,12.235,0,0,0-4.661,5.062l-.924,1.869-1.075-1.787a12.25,12.25,0,0,0-5.061-4.661l-1.869-.924,1.786-1.075a12.232,12.232,0,0,0,4.661-5.061Z" transform="translate(1180.174 3233.291)" fill="#8ccf3d"/>
      <path id="Path_507" data-name="Path 507" d="M202.356,17.974l1.075,1.787a12.247,12.247,0,0,0,5.061,4.66l1.869.924-1.786,1.075a12.236,12.236,0,0,0-4.661,5.062l-.924,1.869-1.075-1.787a12.237,12.237,0,0,0-5.061-4.66l-1.869-.926,1.786-1.075a12.232,12.232,0,0,0,4.661-5.061Z" transform="translate(1110.999 3111.951)" fill="#91d63f"/>
      <path id="Path_508" data-name="Path 508" d="M371.142,130.975l1.075,1.787a12.247,12.247,0,0,0,5.061,4.66l1.869.924-1.786,1.075a12.235,12.235,0,0,0-4.661,5.062l-.924,1.869-1.075-1.787a12.242,12.242,0,0,0-5.062-4.66l-1.868-.926,1.786-1.075a12.232,12.232,0,0,0,4.661-5.061Z" transform="translate(1193.811 3167.393)" fill="#91d63f"/>
      <path id="Path_509" data-name="Path 509" d="M110.463,179.8l.784,1.3a8.935,8.935,0,0,0,3.694,3.4l1.364.674-1.3.786a8.935,8.935,0,0,0-3.4,3.694l-.675,1.364-.784-1.3a8.935,8.935,0,0,0-3.694-3.4l-1.364-.674,1.3-.786a8.935,8.935,0,0,0,3.4-3.694Z" transform="translate(1066.89 3191.347)" fill="#91d63f"/>
      <path id="Path_510" data-name="Path 510" d="M134.385,291.867l.784,1.3a8.936,8.936,0,0,0,3.694,3.4l1.364.674-1.3.786a8.935,8.935,0,0,0-3.4,3.694l-.675,1.364-.784-1.3a8.935,8.935,0,0,0-3.694-3.4l-1.364-.674,1.3-.786a8.935,8.935,0,0,0,3.4-3.694Z" transform="translate(1078.627 3246.332)" fill="#91d63f"/>
      <path id="Path_511" data-name="Path 511" d="M362.642,97.039l.784,1.3a8.935,8.935,0,0,0,3.694,3.4l1.365.674-1.3.786a8.935,8.935,0,0,0-3.4,3.694l-.675,1.364-.784-1.3a8.935,8.935,0,0,0-3.694-3.4l-1.364-.674,1.3-.786a8.942,8.942,0,0,0,3.4-3.694Z" transform="translate(1190.617 3150.743)" fill="#91d63f"/>
      <path id="Path_512" data-name="Path 512" d="M63.643,156.161l.784,1.3a8.935,8.935,0,0,0,3.694,3.4l1.364.674-1.3.786a8.935,8.935,0,0,0-3.4,3.694l-.675,1.364-.784-1.3a8.935,8.935,0,0,0-3.694-3.4L58.263,162l1.3-.786a8.935,8.935,0,0,0,3.4-3.694Z" transform="translate(1043.919 3179.75)" fill="#91d63f"/>
      <path id="Path_513" data-name="Path 513" d="M387.171,102.417l.449.747a5.128,5.128,0,0,0,2.115,1.948l.783.386-.747.449a5.118,5.118,0,0,0-1.948,2.115l-.386.781-.45-.747a5.115,5.115,0,0,0-2.115-1.947l-.781-.386.747-.45a5.119,5.119,0,0,0,1.948-2.115Z" transform="translate(1203.78 3153.382)" fill="#91d63f"/>
      <path id="Path_514" data-name="Path 514" d="M368.475,246.386l.45.747a5.115,5.115,0,0,0,2.114,1.948l.783.386-.747.449a5.113,5.113,0,0,0-1.948,2.117l-.386.781-.45-.747a5.109,5.109,0,0,0-2.115-1.948l-.781-.386.747-.45a5.118,5.118,0,0,0,1.948-2.115Z" transform="translate(1194.607 3224.018)" fill="#8ccf3d"/>
      <path id="Path_515" data-name="Path 515" d="M239.16,6.729l.449.747a5.122,5.122,0,0,0,2.117,1.948l.781.386-.747.449a5.113,5.113,0,0,0-1.948,2.117l-.386.78-.45-.747a5.115,5.115,0,0,0-2.115-1.947l-.781-.386.747-.45a5.119,5.119,0,0,0,1.948-2.115Z" transform="translate(1131.161 3106.434)" fill="#91d63f"/>
      <path id="Path_516" data-name="Path 516" d="M181.887,32.261l.449.747a5.128,5.128,0,0,0,2.115,1.948l.783.386-.747.449a5.113,5.113,0,0,0-1.948,2.117l-.386.78-.45-.747a5.115,5.115,0,0,0-2.115-1.947l-.781-.386.747-.45a5.119,5.119,0,0,0,1.948-2.115Z" transform="translate(1103.061 3118.961)" fill="#91d63f"/>
      <path id="Path_517" data-name="Path 517" d="M140.028,305.011l.449.747a5.127,5.127,0,0,0,2.115,1.948l.783.386-.747.449a5.118,5.118,0,0,0-1.948,2.115l-.386.781-.45-.745a5.109,5.109,0,0,0-2.115-1.948l-.781-.386.747-.45a5.119,5.119,0,0,0,1.948-2.115Z" transform="translate(1082.523 3252.781)" fill="#91d63f"/>
      <rect id="Rectangle_254" data-name="Rectangle 254" width="665.727" height="691.901" transform="translate(1015.333 3103.133)" fill="none"/>
      <path id="Path_518" data-name="Path 518" d="M351.538,386.872l-184.809-.426c-7.659-.018-13.857-5.408-13.841-12.037s6.235-11.992,13.9-11.976l184.807.426c7.66.018,13.858,5.408,13.842,12.038s-6.235,11.992-13.9,11.974" transform="translate(1090.345 3280.954)" fill="#455a64"/>
      <path id="Path_519" data-name="Path 519" d="M351.538,367.317l-184.809-.426c-7.659-.018-13.857-5.408-13.841-12.037s6.235-11.992,13.9-11.976l184.807.426c7.66.019,13.858,5.408,13.842,12.038s-6.235,11.992-13.9,11.974" transform="translate(1090.345 3271.36)" fill="#455a64"/>
      <path id="Path_520" data-name="Path 520" d="M341.055,381.882l-169.214-.391a12.7,12.7,0,0,0-.058,25.4l18.573.043,24.536,46.961a16.319,16.319,0,0,0,14.42,8.757l60.465.139a16.312,16.312,0,0,0,14.538-8.842l24.054-46.7,12.629.028a12.7,12.7,0,1,0,.057-25.4" transform="translate(1093.399 3290.304)" fill="#455a64"/>
      <path id="Path_521" data-name="Path 521" d="M433.127,350.969h.016s-.455.7-1.359,2.041l-4.032,5.933q-1.333,1.956-2.983,4.375c-1.079,1.625-2.135,3.485-3.348,5.457s-2.494,4.119-3.877,6.405c-1.415,2.27-2.646,4.849-4.1,7.495q-1.069,2-2.2,4.114-.564,1.055-1.142,2.142l-1.058,2.255q-2.142,4.57-4.5,9.594-2.1,5.134-4.379,10.722c-1.389,3.774-2.765,7.727-4.181,11.828a239.61,239.61,0,0,0-6.919,27,156.795,156.795,0,0,0-3.01,31.232l0,.25h-.243l-197.287.1h-.312l-.025-.312a202.713,202.713,0,0,0-17.8-66.7,259.85,259.85,0,0,0-17.54-32.3q-5-7.893-10.658-15.52c-3.7-5.119-7.881-9.925-11.98-14.891l-.495-.6h.795l-.3.6a191.243,191.243,0,0,1-36.8-81.11c-.8-3.783-1.3-7.632-1.884-11.478-.24-1.93-.422-3.871-.635-5.81l-.3-2.914-.186-2.928c-.109-1.954-.286-3.908-.337-5.872s-.083-3.928-.125-5.9c-.088-1.969.058-3.94.079-5.915.061-1.974.075-3.952.174-5.93a196.789,196.789,0,0,1,8.5-47.123A192.3,192.3,0,0,1,179.32,72.678a195.333,195.333,0,0,1,28.666-14.9,186.049,186.049,0,0,1,30.187-9.646A192.619,192.619,0,0,1,299.2,44.022a198.412,198.412,0,0,1,29.163,4.971,205.418,205.418,0,0,1,27.314,9.126A190.612,190.612,0,0,1,402.694,86.51a193,193,0,0,1,34.949,37.549,188.238,188.238,0,0,1,22.377,41.7c1.465,3.487,2.521,7.076,3.737,10.555,1.149,3.5,2.039,7.04,3.05,10.49.786,3.507,1.658,6.949,2.334,10.384q.461,2.583.914,5.134c.3,1.7.629,3.382.806,5.077a194.054,194.054,0,0,1,1.581,38.358,190.9,190.9,0,0,1-13.322,59.84,197.164,197.164,0,0,1-9.565,20.3c-3.16,5.684-6.046,10.37-8.517,14.067q-1.876,2.752-3.306,4.849l-2.524,3.384-2.082,2.773,2-2.774,2.506-3.451,3.273-4.867c2.448-3.707,5.31-8.4,8.444-14.091a198.94,198.94,0,0,0,9.488-20.3,191.137,191.137,0,0,0,13.168-59.753,193.853,193.853,0,0,0-1.637-38.265c-.179-1.689-.508-3.367-.812-5.062s-.61-3.4-.917-5.119c-.68-3.424-1.555-6.855-2.342-10.352-1.014-3.437-1.9-6.963-3.054-10.455-1.218-3.469-2.273-7.046-3.74-10.521A187.766,187.766,0,0,0,437.154,124.4a192.567,192.567,0,0,0-34.867-37.4,190.128,190.128,0,0,0-46.877-28.259,204.669,204.669,0,0,0-27.22-9.076,197.834,197.834,0,0,0-29.058-4.937,191.947,191.947,0,0,0-60.791,4.117,185.459,185.459,0,0,0-30.065,9.616,194.6,194.6,0,0,0-28.549,14.854A191.587,191.587,0,0,0,99.434,177.441a196.2,196.2,0,0,0-8.462,46.931c-.1,1.969-.113,3.94-.174,5.906-.021,1.966-.167,3.929-.08,5.891q.063,2.94.125,5.875c.051,1.954.228,3.9.335,5.848l.185,2.916.3,2.9c.213,1.932.394,3.865.634,5.787.586,3.831,1.076,7.663,1.874,11.432a190.565,190.565,0,0,0,36.637,80.8l.47.6h-.766l.3-.6c4.066,4.93,8.26,9.755,11.982,14.906q5.677,7.631,10.682,15.568a260.463,260.463,0,0,1,17.575,32.4,203.346,203.346,0,0,1,17.825,66.947l-.335-.312,197.287.1-.237.252a157,157,0,0,1,3.066-31.338,239.189,239.189,0,0,1,6.985-27.031c1.427-4.105,2.813-8.06,4.213-11.836q2.3-5.59,4.412-10.727,2.37-5.022,4.529-9.592.539-1.143,1.066-2.255L411,386.664q1.138-2.111,2.214-4.11c1.47-2.644,2.71-5.22,4.135-7.487q2.091-3.426,3.906-6.395c1.224-1.968,2.29-3.823,3.376-5.444q1.666-2.41,3.013-4.36l4.086-5.9c.923-1.325,1.415-2,1.415-2h-.016" transform="translate(1059.449 3124.339)" fill="#263238"/>
      <path id="Path_522" data-name="Path 522" d="M111.669,269.794a2.014,2.014,0,0,1-.171-.42l-.429-1.257c-.379-1.163-.906-2.789-1.58-4.859l-1.125-3.521c-.374-1.3-.7-2.728-1.094-4.256-.738-3.065-1.746-6.522-2.376-10.445q-.546-2.931-1.139-6.129c-.382-2.135-.58-4.384-.894-6.7-.7-4.624-.926-9.615-1.275-14.856a208.544,208.544,0,0,1,1.549-34.1,208.564,208.564,0,0,1,7.6-33.29c1.734-4.958,3.284-9.707,5.189-13.978.918-2.147,1.71-4.263,2.646-6.217l2.731-5.6c1.653-3.615,3.548-6.677,5.074-9.434.787-1.367,1.482-2.661,2.19-3.81q1.1-1.69,2.021-3.093l2.819-4.262.748-1.1a1.971,1.971,0,0,1,.277-.359,2.061,2.061,0,0,1-.212.4c-.176.294-.4.669-.684,1.139l-2.692,4.336-1.96,3.123c-.687,1.158-1.364,2.46-2.13,3.834-1.488,2.771-3.342,5.843-4.959,9.463q-1.279,2.681-2.677,5.608c-.918,1.956-1.693,4.071-2.6,6.214-1.872,4.268-3.393,9.008-5.1,13.954a212.479,212.479,0,0,0-7.507,33.176,212.314,212.314,0,0,0-1.605,33.967c.329,5.222.532,10.2,1.2,14.806.3,2.307.481,4.552.847,6.681l1.085,6.119c.595,3.92,1.564,7.374,2.258,10.443.373,1.528.677,2.962,1.03,4.263q.579,1.93,1.058,3.531c.613,2.087,1.1,3.727,1.44,4.9.146.529.264.951.356,1.28a2.022,2.022,0,0,1,.1.446" transform="translate(1065.108 3153.23)" fill="#263238"/>
      <path id="Path_523" data-name="Path 523" d="M153.424,80.037c.14.162-4.454,4.356-10.259,9.364S132.539,98.34,132.4,98.178s4.453-4.354,10.26-9.364,10.625-8.939,10.765-8.777" transform="translate(1080.291 3142.399)" fill="#263238"/>
      <path id="Path_524" data-name="Path 524" d="M321.529,273.805a1.261,1.261,0,0,1,.128-.34c.119-.261.265-.577.444-.964q.653-1.346,1.777-3.668l1.3-2.64c.456-.973.9-2.056,1.415-3.2.988-2.309,2.223-4.889,3.3-7.865.571-1.474,1.167-3.02,1.787-4.625s1.134-3.332,1.74-5.089c1.254-3.5,2.279-7.338,3.431-11.353a210.757,210.757,0,0,0,5.156-26.66,210.945,210.945,0,0,0,1.354-27.128c-.161-4.175-.243-8.145-.626-11.846-.168-1.85-.262-3.643-.476-5.354s-.429-3.352-.631-4.919c-.34-3.147-.923-5.949-1.333-8.428-.221-1.236-.4-2.391-.61-3.446-.23-1.045-.44-2-.632-2.872q-.537-2.524-.85-3.987c-.081-.419-.148-.76-.2-1.042a1.235,1.235,0,0,1-.043-.361,1.415,1.415,0,0,1,.119.341c.075.276.166.611.277,1.026.243.966.574,2.288.993,3.955q.318,1.3.7,2.865c.233,1.052.432,2.209.675,3.443.45,2.477,1.072,5.28,1.447,8.43q.326,2.359.684,4.928c.228,1.716.338,3.515.522,5.371.411,3.707.517,7.692.7,11.882a204.085,204.085,0,0,1-1.3,27.237,204.388,204.388,0,0,1-5.235,26.754c-1.176,4.026-2.23,7.871-3.513,11.372-.62,1.757-1.157,3.479-1.787,5.089s-1.252,3.151-1.839,4.624c-1.115,2.969-2.388,5.544-3.417,7.841-.531,1.143-1,2.217-1.476,3.182q-.745,1.427-1.364,2.616-1.207,2.281-1.908,3.607c-.206.373-.376.678-.513.926a1.19,1.19,0,0,1-.2.3" transform="translate(1173.084 3170.846)" fill="#263238"/>
      <rect id="Rectangle_255" data-name="Rectangle 255" width="665.727" height="691.901" transform="translate(1015.333 3103.133)" fill="none"/>
      <path id="Path_525" data-name="Path 525" d="M293.76,111.364c-10.2-5.836-20.854-11.159-32.324-13.7a13.437,13.437,0,0,0-4.894-.41,5.187,5.187,0,0,0-3.958,2.627c-.981,2.038-.033,4.478,1.216,6.364,2.758,4.162,6.888,7.2,11.049,9.956,11.39,7.553,23.637,13.708,35.85,19.845-1.547-8.692-4.594-16.17-6.939-24.682" transform="translate(1139.06 3150.804)" fill="#72a932"/>
      <path id="Path_526" data-name="Path 526" d="M332.516,129.21c3.332,11.266,7.352,22.48,13.882,32.245a13.4,13.4,0,0,0,3.254,3.68,5.186,5.186,0,0,0,4.673.839c2.118-.795,3.12-3.212,3.521-5.439.885-4.912,0-9.96-1.1-14.83-3.007-13.334-7.6-26.247-12.18-39.125-4.892,7.35-7.862,14.859-12.052,22.629" transform="translate(1178.476 3155.425)" fill="#72a932"/>
      <path id="Path_527" data-name="Path 527" d="M279.971,110.22s.8,78.036,44.6,79.564,45.63-79,45.63-79.564c0,0-5.173-11.639-45.112-11.183s-45.112,11.183-45.112,11.183" transform="translate(1152.696 3151.717)" fill="#8ccf3d"/>
      <path id="Path_528" data-name="Path 528" d="M335.9,136.4a18.591,18.591,0,1,1-17.186-19.9A18.591,18.591,0,0,1,335.9,136.4" transform="translate(1158.942 3161.752)" fill="#263238"/>
      <path id="Path_529" data-name="Path 529" d="M328.572,133.742a13.548,13.548,0,1,1-12.524-14.5,13.548,13.548,0,0,1,12.524,14.5" transform="translate(1161.237 3164.048)" fill="#fff"/>
      <path id="Path_531" data-name="Path 531" d="M279.849,106.489a1.486,1.486,0,0,1,.23.067l.663.225,2.537.9,1.832.653c.674.225,1.416.437,2.209.684,1.589.473,3.379,1.084,5.413,1.562l3.175.814c1.1.279,2.273.486,3.473.745,2.394.55,4.991.924,7.715,1.365a137.872,137.872,0,0,0,17.9,1.279,137.7,137.7,0,0,0,17.9-1.276c2.725-.441,5.322-.814,7.717-1.364,1.2-.259,2.367-.467,3.473-.745s2.163-.555,3.174-.814c2.035-.478,3.823-1.088,5.414-1.561.792-.246,1.535-.459,2.209-.684l1.831-.653c1.09-.383,1.941-.684,2.537-.894.28-.094.5-.17.663-.225a1.481,1.481,0,0,1,.23-.067,1.232,1.232,0,0,1-.218.1l-.653.253-2.519.951-1.823.678c-.672.234-1.413.455-2.2.71-1.588.489-3.375,1.115-5.41,1.607l-3.175.835c-1.106.285-2.276.5-3.476.765-2.4.562-5,.945-7.729,1.394a135,135,0,0,1-17.941,1.3,135.2,135.2,0,0,1-17.938-1.307c-2.728-.449-5.331-.833-7.728-1.4-1.2-.267-2.37-.48-3.475-.765l-3.177-.835c-2.033-.493-3.822-1.119-5.41-1.608-.79-.255-1.531-.476-2.2-.71l-1.825-.68-2.519-.951-.653-.253a1.485,1.485,0,0,1-.218-.1" transform="translate(1152.636 3155.379)" fill="#263238"/>
      <path id="Path_532" data-name="Path 532" d="M279.971,110.22s5.173-10.727,45.112-11.183S370.2,110.22,370.2,110.22s-40.289,19.87-90.225,0" transform="translate(1152.696 3151.717)" fill="#66962c"/>
      <rect id="Rectangle_256" data-name="Rectangle 256" width="90.225" height="20.027" transform="translate(1432.667 3250.742)" fill="none"/>
      <path id="Path_533" data-name="Path 533" d="M293.19,160.625s-.03-.036-.076-.115c-.052-.1-.116-.21-.194-.35l-.723-1.365-.513-.991-.559-1.2c-.405-.863-.862-1.847-1.3-2.963l-.715-1.741q-.34-.923-.708-1.915c-.511-1.315-.944-2.759-1.455-4.262-.932-3.032-1.847-6.4-2.65-9.969-.787-3.576-1.389-7.012-1.863-10.148-.438-3.141-.786-5.976-.975-8.365-.116-1.194-.186-2.276-.246-3.227s-.11-1.768-.13-2.439q-.033-.973-.051-1.543c0-.161,0-.292-.006-.4a.4.4,0,0,1,.009-.137.465.465,0,0,1,.022.136c.01.109.022.24.037.4q.04.568.109,1.538c.037.669.1,1.486.182,2.434s.161,2.027.291,3.218c.218,2.385.587,5.213,1.04,8.345.489,3.127,1.1,6.554,1.883,10.123s1.705,6.924,2.621,9.953c.5,1.5.924,2.944,1.425,4.259.237.662.468,1.3.689,1.915q.362.91.695,1.746c.429,1.118.87,2.106,1.258,2.974q.288.651.535,1.212l.487,1q.423.877.671,1.389l.167.365a.491.491,0,0,1,.048.13" transform="translate(1153.211 3156.85)" fill="#fff"/>
      <path id="Path_534" data-name="Path 534" d="M307.987,159.648a3.08,3.08,0,0,1-.7-.085,14.785,14.785,0,0,1-1.86-.449,19.4,19.4,0,0,1-2.655-1.021,21.769,21.769,0,0,1-3.013-1.75A22.045,22.045,0,0,1,297.1,154.1a19.343,19.343,0,0,1-1.857-2.152,14.709,14.709,0,0,1-1.052-1.6,3.072,3.072,0,0,1-.316-.628c.051-.03.549.836,1.541,2.093A22.359,22.359,0,0,0,297.3,153.9a21.663,21.663,0,0,0,5.6,3.94,22.126,22.126,0,0,0,2.6,1.069c1.519.51,2.5.684,2.491.742" transform="translate(1159.514 3176.591)" fill="#fff"/>
      <path id="Path_616-2" data-name="Path 616" d="M250.642,178.226a14.048,14.048,0,1,1-14.048-14.048,14.048,14.048,0,0,1,14.048,14.048" transform="translate(1191.754 3039.757)" fill="#86c63a"/>
      <path id="Path_617-2" data-name="Path 617" d="M239.132,172.006c.1.105,1.482-1.217,3.574-2.219,2.082-1.023,3.978-1.293,3.955-1.434a10.188,10.188,0,0,0-7.53,3.653" transform="translate(1180.973 3039.303)" fill="#fff"/>
      <path id="Path_535" data-name="Path 535" d="M319.56,154.178a2.646,2.646,0,0,1-.514.053,13.535,13.535,0,0,1-1.479.042,19.391,19.391,0,0,1-5.374-.872,22.361,22.361,0,0,1-3.5-1.408,22.874,22.874,0,0,1-3.639-2.349,19.734,19.734,0,0,1-7.6-17.513,22.776,22.776,0,0,1,.767-4.263,22.442,22.442,0,0,1,1.362-3.518,19.357,19.357,0,0,1,3.03-4.52,13.434,13.434,0,0,1,1.042-1.052,2.521,2.521,0,0,1,.389-.34c.027.029-.488.519-1.32,1.488a20.606,20.606,0,0,0-2.9,4.541,21.382,21.382,0,0,0-2.021,7.692,19.6,19.6,0,0,0,7.473,17.21,22.987,22.987,0,0,0,3.564,2.344,22.732,22.732,0,0,0,3.434,1.432,20.6,20.6,0,0,0,5.3.98c1.276.055,1.986.013,1.988.053" transform="translate(1157.785 3163.406)" fill="#fff"/>
      <path id="Path_536" data-name="Path 536" d="M323,52.109s-38.181-.459-44.226,32.611,26.246,33.687,35.532,34.313c4.211.283,13.22.313,21.17.176,17.6-.306,30.038-3.713,34.27-20.042a31.1,31.1,0,0,0,.951-5.848c1.12-17.9-11-42.091-47.7-41.21" transform="translate(1151.742 3128.687)" fill="#91d63f"/>
      <path id="Path_537" data-name="Path 537" d="M348.556,92.821l-55.469.866a10.529,10.529,0,0,1-.329-21.055l55.471-.866a10.529,10.529,0,0,1,.328,21.055" transform="translate(1153.884 3138.342)" fill="#263238"/>
      <path id="Path_538" data-name="Path 538" d="M299.492,80.075a3.379,3.379,0,1,1-2.667-3.965,3.381,3.381,0,0,1,2.667,3.965" transform="translate(1158.988 3140.443)" fill="#fff"/>
      <path id="Path_539" data-name="Path 539" d="M325.489,79.66a3.379,3.379,0,1,1-2.667-3.965,3.38,3.38,0,0,1,2.667,3.965" transform="translate(1171.743 3140.24)" fill="#fff"/>
      <path id="Path_540" data-name="Path 540" d="M303.941,77.7c.25.027.125,1.209.863,2.78A6.975,6.975,0,0,0,306.6,82.84a5.414,5.414,0,0,0,6.551.6,6.989,6.989,0,0,0,2.191-1.994c1.009-1.412,1.1-2.6,1.352-2.577.1,0,.2.3.2.86a5.221,5.221,0,0,1-.614,2.282,7.012,7.012,0,0,1-2.373,2.638,6.413,6.413,0,0,1-8.274-.756,7.027,7.027,0,0,1-1.854-3.024,5.226,5.226,0,0,1-.191-2.355c.1-.55.256-.826.353-.809" transform="translate(1164.253 3141.256)" fill="#fff"/>
      <path id="Path_541" data-name="Path 541" d="M317.571,53.762c0,.007-.046.015-.137.024l-.4.037c-.355.037-.88.048-1.55.128a41.912,41.912,0,0,0-5.635.935,41.226,41.226,0,0,0-30.02,28.49c-.207.642-.318,1.157-.42,1.5-.045.157-.082.285-.113.391a.554.554,0,0,1-.048.13.415.415,0,0,1,.016-.137c.024-.107.051-.239.083-.4.083-.347.176-.866.365-1.516a37.89,37.89,0,0,1,1.9-5.411,40.3,40.3,0,0,1,4.2-7.4,39.7,39.7,0,0,1,15.926-13.141,40.186,40.186,0,0,1,8.061-2.719,38,38,0,0,1,5.673-.839c.675-.063,1.2-.055,1.558-.072l.405-.006a.516.516,0,0,1,.139.007" transform="translate(1152.338 3129.507)" fill="#fff"/>
      <path id="Path_542" data-name="Path 542" d="M280.394,87.351a4.426,4.426,0,0,1-.543-1.188,16.892,16.892,0,0,1-.972-6.2,4.394,4.394,0,0,1,.154-1.3c.1,0-.037,1.991.347,4.4s1.1,4.257,1.014,4.292" transform="translate(1152.155 3141.728)" fill="#fff"/>
      <path id="Path_543" data-name="Path 543" d="M331.371,70.516c0,.086-7.307.155-16.318.155s-16.319-.069-16.319-.155,7.306-.155,16.319-.155,16.318.07,16.318.155" transform="translate(1161.901 3137.654)" fill="#fff"/>
      <path id="Path_544" data-name="Path 544" d="M310.592,97.463a.987.987,0,0,1-.276.045l-.8.069c-.346.03-.769.058-1.263.066s-1.054.039-1.676.019a42.762,42.762,0,0,1-4.353-.262,44.182,44.182,0,0,1-10.382-2.445,42.956,42.956,0,0,1-4.013-1.708c-.565-.261-1.055-.537-1.491-.765s-.8-.441-1.1-.622l-.681-.417a.925.925,0,0,1-.227-.162.984.984,0,0,1,.258.109l.71.365c.3.164.678.362,1.121.574s.938.474,1.5.72c1.12.523,2.482,1.082,4.017,1.638a47.467,47.467,0,0,0,10.318,2.43c1.622.188,3.09.3,4.324.326.617.033,1.176.021,1.668.025s.914,0,1.26-.012l.8-.01a.988.988,0,0,1,.28.018" transform="translate(1154.836 3147.917)" fill="#fff"/>
      <path id="Path_545" data-name="Path 545" d="M352.814,109.733a.611.611,0,0,1-.142.064l-.428.161-1.656.589c-.718.259-1.6.562-2.643.868s-2.211.7-3.536,1.029l-2.072.547c-.721.188-1.482.343-2.263.525-1.561.377-3.251.675-5.025,1.009a114.766,114.766,0,0,1-11.661,1.373,114.616,114.616,0,0,1-11.743.066c-1.8-.115-3.516-.2-5.111-.388-.8-.085-1.573-.145-2.31-.243l-2.123-.291c-1.356-.165-2.568-.407-3.637-.589s-1.984-.367-2.728-.537l-1.714-.382-.444-.107a.537.537,0,0,1-.149-.046.609.609,0,0,1,.155.016l.45.076,1.726.325c.747.151,1.664.325,2.734.484s2.282.391,3.637.543l2.12.268c.738.092,1.51.146,2.307.225,1.592.173,3.3.252,5.1.358,3.6.145,7.56.154,11.71-.089,4.148-.267,8.079-.76,11.633-1.343,1.769-.326,3.457-.614,5.017-.981.781-.176,1.54-.323,2.261-.5l2.072-.528c1.327-.316,2.5-.689,3.543-.984s1.93-.574,2.653-.815l1.674-.532.438-.133a.67.67,0,0,1,.152-.034" transform="translate(1159.299 3156.971)" fill="#fff"/>
      <rect id="Rectangle_257" data-name="Rectangle 257" width="665.727" height="691.901" transform="translate(1015.333 3103.133)" fill="none"/>
      <path id="Path_546" data-name="Path 546" d="M89.94,287.549l.1,20.674s34.323-19.444,24.251-37.935Z" transform="translate(1059.46 3235.744)" fill="#618f2a"/>
      <path id="Path_547" data-name="Path 547" d="M106.5,250.625s-24.7-9.05-43.485,7.771l19.257,10.868Z" transform="translate(1046.25 3224.905)" fill="#618f2a"/>
      <path id="Path_548" data-name="Path 548" d="M75.934,276.451c.783,1.026,20.878,29.124,20.878,29.124l52.5-37.211a19.175,19.175,0,1,0-22.78-30.841Z" transform="translate(1052.589 3217.718)" fill="#f5f5f5"/>
      <path id="Path_549" data-name="Path 549" d="M75.934,276.569a3.741,3.741,0,0,1,.422-.359l1.312-1.046,5.126-4.02,19.02-14.808,13.2-10.23,7.364-5.7q1.9-1.467,3.853-2.975a20.278,20.278,0,0,1,4.366-2.556,17.415,17.415,0,0,1,5-1.382,18.724,18.724,0,0,1,5.307,0,19.387,19.387,0,0,1,9.91,4.394,19.937,19.937,0,0,1,3.747,4.2,20.74,20.74,0,0,1,2.421,5.184,19.823,19.823,0,0,1-.14,11.557,19.361,19.361,0,0,1-6.253,9.139c-2.914,2.236-5.86,4.2-8.719,6.258L125.3,285.946c-10.586,7.467-20.174,14.231-28.321,19.978l-.231.164-.162-.231L81.381,284.4,77.3,278.584l-1.042-1.507a4.3,4.3,0,0,1-.326-.508,5.949,5.949,0,0,1,.41.519l1.121,1.51,4.23,5.779,15.348,21.151-.4-.067c8.121-5.782,17.679-12.587,28.231-20.1l16.546-11.752c2.837-2.051,5.84-4.059,8.669-6.235a18.591,18.591,0,0,0,6-8.777,19.068,19.068,0,0,0,.139-11.1,19.96,19.96,0,0,0-2.321-4.982,19.21,19.21,0,0,0-3.6-4.04,18.68,18.68,0,0,0-9.521-4.242,18.049,18.049,0,0,0-5.108-.01,16.661,16.661,0,0,0-4.815,1.318c-3.077,1.236-5.493,3.512-8.054,5.39q-3.781,2.9-7.338,5.617l-13.2,10.074-19.2,14.6-5.266,3.974-1.389,1.033a5.446,5.446,0,0,1-.5.349" transform="translate(1052.588 3217.6)" fill="#263238"/>
      <path id="Path_550" data-name="Path 550" d="M103.61,261.41,70.8,285s1.412,3.6,2.31,3.236c.754-.307,25.467-17.135,33.481-22.6a2.588,2.588,0,1,0-2.98-4.232" transform="translate(1050.069 3231.15)" fill="#8ccf3d"/>
      <path id="Path_551" data-name="Path 551" d="M122.861,254.694a10.969,10.969,0,1,1-11.652-10.241,10.97,10.97,0,0,1,11.652,10.241" transform="translate(1064.859 3223.058)" fill="#fff"/>
      <path id="Path_552" data-name="Path 552" d="M122.982,254.794c-.085.01-.1-.973-.653-2.606a10.938,10.938,0,0,0-4.378-5.6,10.684,10.684,0,0,0-10.171-.817,10.508,10.508,0,0,0-4.67,4.022,10.573,10.573,0,0,0,.806,12.508,10.51,10.51,0,0,0,5.149,3.388,10.682,10.682,0,0,0,9.983-2.117,10.936,10.936,0,0,0,3.621-6.113c.337-1.69.227-2.668.313-2.668a2.544,2.544,0,0,1,.085.7,8.651,8.651,0,0,1-.112,2.02,10.932,10.932,0,0,1-3.561,6.459,11.118,11.118,0,0,1-4.567,2.449,11.275,11.275,0,0,1-5.954-.07,11.162,11.162,0,0,1-5.517-3.579,11.246,11.246,0,0,1-.862-13.372,11.151,11.151,0,0,1,5.01-4.256,11.263,11.263,0,0,1,5.894-.835,11.091,11.091,0,0,1,4.845,1.842A10.922,10.922,0,0,1,122.6,252.1a8.635,8.635,0,0,1,.371,1.99,2.47,2.47,0,0,1,.006.705" transform="translate(1064.738 3222.958)" fill="#263238"/>
      <path id="Path_553" data-name="Path 553" d="M135.116,267.78c17.634-16.488,14.486-35.586,14.486-35.586-23.717-6.231-39.724,6.82-39.724,6.82,15.787,2.221,24.233,11.777,25.238,28.766" transform="translate(1069.243 3216.228)" fill="#91d63f"/>
      <rect id="Rectangle_258" data-name="Rectangle 258" width="665.727" height="691.901" transform="translate(1015.333 3103.133)" fill="none"/>
      <path id="Path_554" data-name="Path 554" d="M261.478,208.426l6.089,56.3,36.257,12.085,1.47,17.534-51.175-3.424s-15.765.386-19.2-20.4l-.835-54.62Z" transform="translate(1130.18 3205.393)" fill="#ffbe9d"/>
      <path id="Path_555" data-name="Path 555" d="M314.618,274.776a2.516,2.516,0,0,1-2.708.747,2.879,2.879,0,0,1-.578-.285c-1.276-.815-.4-3.621-.4-3.621l-6.395-2.856s-10.169,3.308-14.243,6.206-11.163-2.2-11.163-2.2l1.029-14.964,15.239-7.874s-.932.464.467-1.394,5.055-.048,5.055-.048c.874-.871,3.5-.572,3.5-.572l10.46,4.093a7.647,7.647,0,0,1,4.508,4.825l2.655,8.428s1.036,5.836.329,6.942a2.233,2.233,0,0,1-2.889.754s-1.432,3.278-2.363,3.16a7.64,7.64,0,0,1-2.5-1.346" transform="translate(1152.286 3224.663)" fill="#ffbe9d"/>
      <path id="Path_556" data-name="Path 556" d="M292.659,273.4a4.2,4.2,0,0,0,.771-.321l2.187-.973A77.667,77.667,0,0,1,304,269.1l-.159-.012,6.372,2.9-.154-.343a7.586,7.586,0,0,0-.307,1.665,3.127,3.127,0,0,0,.334,1.807,1.72,1.72,0,0,0,.778.641,2.416,2.416,0,0,0,.924.3,2.826,2.826,0,0,0,1.906-.481,2.891,2.891,0,0,0,.394-.318l.089-.091.045-.046.021-.024,0,0c.094-.009-.818.075-.429.04l.006,0,.012.01.188.142c.253.186.513.364.783.534a7.7,7.7,0,0,0,.856.47,3.474,3.474,0,0,0,.481.185,1.171,1.171,0,0,0,.65.045,2.049,2.049,0,0,0,.888-.711,7.8,7.8,0,0,0,.575-.83,16.6,16.6,0,0,0,.927-1.778l-.462.167a2.624,2.624,0,0,0,2.714-.191,2.133,2.133,0,0,0,.814-1.224,6.244,6.244,0,0,0,.106-1.355,37.583,37.583,0,0,0-.572-5.29l0-.021-.007-.024c-.45-1.434-.93-2.956-1.413-4.5q-.454-1.436-.9-2.849a13.725,13.725,0,0,0-1.066-2.813,7.417,7.417,0,0,0-2-2.248,9.654,9.654,0,0,0-2.6-1.3l-9.868-3.831-.042-.016-.037,0a9.714,9.714,0,0,0-1.908,0,3.128,3.128,0,0,0-1.833.674l.405-.018a3.857,3.857,0,0,0-3.518-.721,4.511,4.511,0,0,0-2.437,2.279l.121-.119c-4.372,2.242-7.941,4.072-10.491,5.383l-2.84,1.5a6.519,6.519,0,0,0-.969.569,6.317,6.317,0,0,0,1.037-.434l2.9-1.374c2.577-1.258,6.179-3.019,10.6-5.174l.072-.034.045-.085a4,4,0,0,1,2.139-1.972,3.292,3.292,0,0,1,2.956.644l.209.162.2-.18a2.644,2.644,0,0,1,1.471-.486,9.3,9.3,0,0,1,1.774.016l-.078-.019c3.084,1.216,6.383,2.518,9.844,3.885a8.971,8.971,0,0,1,2.434,1.215,6.749,6.749,0,0,1,1.8,2.039,13.042,13.042,0,0,1,1,2.674q.445,1.413.9,2.849c.486,1.54.964,3.062,1.418,4.494l-.012-.043a36.749,36.749,0,0,1,.574,5.173,5.6,5.6,0,0,1-.083,1.2,1.433,1.433,0,0,1-.56.832,1.945,1.945,0,0,1-1.987.131l-.322-.145-.14.312a16.512,16.512,0,0,1-.879,1.7,3.373,3.373,0,0,1-1.081,1.26.664.664,0,0,1-.279-.043,2.588,2.588,0,0,1-.4-.151,6.548,6.548,0,0,1-.783-.425c-.256-.157-.507-.325-.747-.5l-.179-.133-.01-.007,0,0c.386-.036-.529.048-.437.04v0l-.019.019-.034.036-.069.073a2.373,2.373,0,0,1-.309.252,2.215,2.215,0,0,1-1.483.391,1.822,1.822,0,0,1-.723-.237,1.128,1.128,0,0,1-.543-.416,4.332,4.332,0,0,1,.006-2.984l.064-.246-.218-.1-6.416-2.811-.081-.037-.081.025a66.893,66.893,0,0,0-8.355,3.229c-.945.45-1.665.821-2.143,1.09a3.89,3.89,0,0,0-.71.437" transform="translate(1152.895 3224.554)" fill="#eb996e"/>
      <path id="Path_557" data-name="Path 557" d="M294.307,251.109a13.437,13.437,0,0,0,3.188,1.948,35.864,35.864,0,0,0,8.729,3l-.292-.335c.04.578.086,1.191.167,1.808a27.527,27.527,0,0,0,3.236,9.929,23.38,23.38,0,0,0,1.731,2.658c.462.589.745.891.784.862.1-.07-.874-1.4-2.054-3.762a30.637,30.637,0,0,1-2.966-9.777c-.079-.6-.125-1.2-.168-1.762l-.022-.282-.271-.054a43,43,0,0,1-8.665-2.725c-2.111-.915-3.342-1.6-3.4-1.5" transform="translate(1159.729 3226.331)" fill="#eb996e"/>
      <path id="Path_558" data-name="Path 558" d="M300.1,257.138c-.182-.012-.264,3.15,1.069,6.754,1.306,3.616,3.408,5.98,3.539,5.854.182-.13-1.591-2.615-2.849-6.106-1.289-3.478-1.535-6.52-1.759-6.5" transform="translate(1162.52 3229.293)" fill="#eb996e"/>
      <path id="Path_559" data-name="Path 559" d="M278.476,265.3c-.013.016.086.115.291.289a8.194,8.194,0,0,0,.957.693,11.974,11.974,0,0,0,4.119,1.611,12.136,12.136,0,0,0,6.7-.6,12.665,12.665,0,0,0,6.411-5.566l-.461.149a28.629,28.629,0,0,0,7.71,2.431,27.979,27.979,0,0,0,2.992.329,9.115,9.115,0,0,0,2.99-.177,2.241,2.241,0,0,0,1.351-.9,2.066,2.066,0,0,0-.726-2.866l-1.164-.639c-3.068-1.659-5.9-3.016-8.316-4.077s-4.4-1.833-5.787-2.334a12.532,12.532,0,0,0-2.185-.689,15.085,15.085,0,0,0,2.079.956c1.351.58,3.3,1.425,5.678,2.542s5.173,2.515,8.206,4.2l1.145.644a1.373,1.373,0,0,1,.626.836,1.346,1.346,0,0,1-.156,1.046,1.531,1.531,0,0,1-.951.6,8.579,8.579,0,0,1-2.747.139,28.1,28.1,0,0,1-2.914-.325,28.687,28.687,0,0,1-7.525-2.343l-.3-.143-.159.292a12.205,12.205,0,0,1-6.018,5.344,11.934,11.934,0,0,1-6.4.721,12.888,12.888,0,0,1-4.075-1.379c-.891-.483-1.337-.817-1.368-.775" transform="translate(1151.962 3227.236)" fill="#eb996e"/>
      <path id="Path_560" data-name="Path 560" d="M309.35,404.861a3.1,3.1,0,0,0-.042-1.4,9.3,9.3,0,0,0-1.419-3.57,4.939,4.939,0,0,0-.845-1.032,1.607,1.607,0,0,0-1.589-.358,1.135,1.135,0,0,0-.7.707,1.524,1.524,0,0,0,.033.953,9.677,9.677,0,0,0,.739,1.432c.55.927,1,1.85,1.708,2.893a2.027,2.027,0,0,0,1.886.85,4.055,4.055,0,0,0,1.822-.808,15.766,15.766,0,0,0,2.676-2.465,16.336,16.336,0,0,0,1.054-1.373,4.535,4.535,0,0,0,.791-1.577,1.493,1.493,0,0,0-.8-1.719,1.786,1.786,0,0,0-1.695.383,10.455,10.455,0,0,0-1.787,2.026,13.464,13.464,0,0,0-1.751,3.4,3.486,3.486,0,0,0-.306,1.367,26.877,26.877,0,0,1,2.534-4.414,10.656,10.656,0,0,1,1.717-1.813,1.131,1.131,0,0,1,1.006-.267.754.754,0,0,1,.328.884,3.93,3.93,0,0,1-.693,1.274,15.866,15.866,0,0,1-1.017,1.291,15.6,15.6,0,0,1-2.545,2.324,3.311,3.311,0,0,1-1.427.659,1.184,1.184,0,0,1-1.143-.528c-.586-.851-1.146-1.9-1.687-2.776a9.956,9.956,0,0,1-.708-1.279c-.142-.4-.063-.66.216-.772.642-.265,1.267.461,1.7,1.076a13.421,13.421,0,0,1,1.948,4.636" transform="translate(1164.824 3298.062)" fill="#263238"/>
      <path id="Path_561" data-name="Path 561" d="M298.947,410.7l-18.069,39.16L251.72,436.394l18.69-48.466Z" transform="translate(1138.835 3293.463)" fill="#ffbe9d"/>
      <path id="Path_562" data-name="Path 562" d="M289.9,433.164,279.34,453.295s27.022,27.942,24.485,34.188L240.3,457.024l17.452-40.381Z" transform="translate(1133.231 3307.551)" fill="#144645"/>
      <path id="Path_563" data-name="Path 563" d="M255.274,433.079a2.878,2.878,0,0,0-3.214,2.1,2.767,2.767,0,0,0,2.056,3.2,3.036,3.036,0,0,0,3.391-2.242c.154-1.406-1.1-3.159-2.507-3.095" transform="translate(1138.974 3315.596)" fill="#e0e0e0"/>
      <path id="Path_564" data-name="Path 564" d="M240.3,445.4l2.643-5.064,59.92,31.1s2.237,2.586.963,4.424Z" transform="translate(1133.231 3319.176)" fill="#fff"/>
      <rect id="Rectangle_259" data-name="Rectangle 259" width="63.92" height="35.522" transform="translate(1373.529 3759.511)" fill="none"/>
      <path id="Path_565" data-name="Path 565" d="M269.747,441.762c-.159.306-1.777-.3-3.782-.031-2.012.213-3.443,1.179-3.67.92-.256-.2,1.1-1.831,3.528-2.109,2.43-.3,4.128.969,3.923,1.221" transform="translate(1144.008 3319.254)" fill="#263238"/>
      <path id="Path_566" data-name="Path 566" d="M272.968,445.519c-.073.334-1.67.218-3.352,1.024-1.705.759-2.652,2.05-2.954,1.887-.315-.091.341-2.009,2.452-2.974,2.1-.981,3.99-.237,3.855.063" transform="translate(1146.129 3321.447)" fill="#263238"/>
      <path id="Path_568" data-name="Path 568" d="M271.546,437.2c-.265.221-1.483-.89-3.294-1.611-1.795-.759-3.442-.824-3.476-1.169-.072-.31,1.811-.82,3.931.061,2.127.863,3.109,2.548,2.84,2.719" transform="translate(1145.24 3316.062)" fill="#263238"/>
      <path id="Path_569" data-name="Path 569" d="M328.228,487.724l47.629-119.2s-1.07-20.337-4.816-26.76S253.832,297.88,253.832,297.88s-28.9-6.957-48.167,0-33.718,31.041-31.041,44.421S189.6,366.526,189.6,366.526l82.432,1.464,45.476,16.592-30.625,87.771Z" transform="translate(1100.853 3247.765)" fill="#263238"/>
      <path id="Path_570" data-name="Path 570" d="M317.722,372.157l1.075,43.115-32.11.784-4.625-51.738Z" transform="translate(1153.722 3281.879)" fill="#ffbe9d"/>
      <path id="Path_571" data-name="Path 571" d="M319.881,396.124l-.586,22.725s36.582,13.141,37.063,19.866l-70.447.715-2.167-43.938Z" transform="translate(1154.547 3297.174)" fill="#144645"/>
      <path id="Path_572" data-name="Path 572" d="M293.625,409.3a2.876,2.876,0,0,0-1.956,3.3,2.765,2.765,0,0,0,3.257,1.968,3.034,3.034,0,0,0,2.053-3.509c-.482-1.33-2.376-2.351-3.615-1.671" transform="translate(1158.402 3303.888)" fill="#e0e0e0"/>
      <path id="Path_573" data-name="Path 573" d="M285.2,426.848l.136-5.711,67.494,1.45s3.15,1.333,2.817,3.546Z" transform="translate(1155.26 3309.756)" fill="#fff"/>
      <rect id="Rectangle_260" data-name="Rectangle 260" width="70.473" height="5.71" transform="translate(1440.457 3730.893)" fill="none"/>
      <path id="Path_574" data-name="Path 574" d="M310.458,411.014c-.007.344-1.726.517-3.408,1.641-1.711,1.079-2.568,2.579-2.886,2.445-.319-.063.174-2.126,2.233-3.449,2.048-1.342,4.132-.953,4.06-.637" transform="translate(1164.522 3304.639)" fill="#263238"/>
      <path id="Path_575" data-name="Path 575" d="M314.857,412.958c.082.332-1.4.932-2.555,2.4-1.2,1.434-1.476,3.01-1.819,3-.323.058-.581-1.954.888-3.75,1.452-1.81,3.475-1.974,3.485-1.646" transform="translate(1167.543 3305.676)" fill="#263238"/>
      <path id="Path_576" data-name="Path 576" d="M316.351,420.779c-.312.076-.808-1.638.057-3.53s2.466-2.659,2.613-2.375c.2.282-.836,1.3-1.522,2.868-.723,1.547-.806,3-1.148,3.036" transform="translate(1170.335 3306.655)" fill="#263238"/>
      <path id="Path_577" data-name="Path 577" d="M310.295,405.743c-.142.315-1.725-.143-3.667.009-1.947.112-3.452.78-3.636.486-.2-.246,1.263-1.535,3.554-1.681,2.29-.164,3.914.914,3.749,1.187" transform="translate(1163.981 3301.613)" fill="#263238"/>
      <path id="Path_578" data-name="Path 578" d="M325.665,289.387s19.238-1.538,21.379,19.335S351.286,427,351.286,427l-44.956,3.746L299.372,331.2,227.656,300.7s85.164-13.985,98.009-11.309" transform="translate(1127.028 3244.948)" fill="#263238"/>
      <path id="Path_579" data-name="Path 579" d="M274.98,270.38s11.676,32.734,9.452,36.383-32.248,18.66-32.248,18.66l-75.126,28.854s-7.716-12.275-7.716-31.129,26.131-52.768,26.131-52.768Z" transform="translate(1098.418 3235.79)" fill="#263238"/>
      <path id="Path_580" data-name="Path 580" d="M225.271,295.742a1.787,1.787,0,0,0,.353.189l1.066.493,4.162,1.851c3.688,1.608,8.986,3.914,15.616,6.8l53.915,23.209-.243-.343c.683,9.834,1.419,20.453,2.181,31.44,1.828,25.685,3.512,49.365,4.846,68.1l.024.34.337-.03,32.751-2.874,9.018-.842,2.357-.246a5.087,5.087,0,0,0,.8-.116,4.693,4.693,0,0,0-.811.016l-2.364.148-9.033.662c-7.863.622-19.092,1.507-32.775,2.586l.361.31c-1.286-18.74-2.913-42.424-4.675-68.113-.775-10.986-1.522-21.607-2.215-31.437l-.016-.246-.227-.1-54.032-22.935-15.708-6.587-4.214-1.729-1.094-.431a1.786,1.786,0,0,0-.38-.124" transform="translate(1125.858 3248.232)" fill="#455a64"/>
      <path id="Path_581" data-name="Path 581" d="M185.189,300.8a11.005,11.005,0,0,0,2.109-.577l5.657-1.823a123.433,123.433,0,0,1,18.931-4.783,55.511,55.511,0,0,1,19.378.249,77.887,77.887,0,0,1,7.768,2.251,9.357,9.357,0,0,0-1.954-.99,34.726,34.726,0,0,0-5.685-1.839,52.069,52.069,0,0,0-19.632-.5,105.241,105.241,0,0,0-19,5.052c-2.37.841-4.271,1.562-5.576,2.078a10.971,10.971,0,0,0-2,.884" transform="translate(1106.192 3246.448)" fill="#455a64"/>
      <path id="Path_582" data-name="Path 582" d="M192.313,286.578a55,55,0,0,1,6.568-.037c2.023.142,4.43.452,7.112.762s5.614.678,8.656,1.255a40.243,40.243,0,0,1,14.72,5.46,45.788,45.788,0,0,1,5.105,4.113,5.794,5.794,0,0,0-1.091-1.413,22.489,22.489,0,0,0-3.682-3.191,37.7,37.7,0,0,0-14.9-5.793c-3.081-.583-6.042-.923-8.728-1.2s-5.11-.519-7.165-.586a27.04,27.04,0,0,0-4.861.218,5.613,5.613,0,0,0-1.738.413" transform="translate(1109.688 3243.417)" fill="#455a64"/>
      <path id="Path_583" data-name="Path 583" d="M228.59,110c-8.644-1.47-16.243,1.859-23.534,6.732a43.333,43.333,0,0,0-15.95,20.4,42.9,42.9,0,0,0-1.586,27.173,34.264,34.264,0,0,0,16.877,21c11.244,5.712,25.625,3.721,35.686-3.886s15.811-20.183,16.294-32.786a41.656,41.656,0,0,0-6.595-24.773c-4.852-7.209-12.6-12.594-21.192-13.857" transform="translate(1106.595 3156.931)" fill="#263238"/>
      <path id="Path_584" data-name="Path 584" d="M198.463,139.238c1.264-3.308.774-7,1.274-10.5,1.1-7.718,7.321-13.908,14.513-16.917,6.691-2.8,14.863-2.188,22.923.417a30.773,30.773,0,0,1,14.41,9.39,24.244,24.244,0,0,1,4.455,21.771l-39.49-5.751c-3.7,3.059-7.483,6.17-11.967,7.875a8.171,8.171,0,0,1-4.122.656,3.679,3.679,0,0,1-3.072-2.534c-.361-1.5.526-2.965,1.075-4.4" transform="translate(1112.137 3157.093)" fill="#263238"/>
      <path id="Path_585" data-name="Path 585" d="M237.944,118.815l-34.477,7.3a6.437,6.437,0,0,0-6.009,6.3l.413,74.612a23.174,23.174,0,0,0,4.859,14.07l3.288,4.241c7.5,9.668,22.681,8.693,28.408-2.117a8.2,8.2,0,0,0,.795-1.953,15.6,15.6,0,0,0,.323-1.686l.657-7.273c.335-6.644.382-13.393.385-13.332,0,0,14.109-1.783,17.724-19.961,1.8-9.041,1.92-23.972,1.625-36.194-.265-11-7.013-24.746-17.992-24.014" transform="translate(1112.212 3161.413)" fill="#ffbe9d"/>
      <path id="Path_586" data-name="Path 586" d="M234.338,145.867a2.348,2.348,0,0,1-2.354,2.279,2.245,2.245,0,0,1-2.336-2.209A2.348,2.348,0,0,1,232,143.658a2.246,2.246,0,0,1,2.339,2.209" transform="translate(1128.006 3173.616)" fill="#263238"/>
      <path id="Path_587" data-name="Path 587" d="M237.365,140.908c-.3.3-2.029-1.09-4.554-1.181-2.519-.128-4.423,1.1-4.685.78-.13-.143.189-.683,1.018-1.239a6.441,6.441,0,0,1,3.765-1,6.194,6.194,0,0,1,3.61,1.322c.753.626.994,1.19.845,1.321" transform="translate(1127.245 3170.967)" fill="#263238"/>
      <path id="Path_588" data-name="Path 588" d="M218.692,145.058a2.347,2.347,0,0,1-2.354,2.279A2.246,2.246,0,0,1,214,145.128a2.349,2.349,0,0,1,2.352-2.281,2.246,2.246,0,0,1,2.337,2.211" transform="translate(1120.329 3173.218)" fill="#263238"/>
      <path id="Path_589" data-name="Path 589" d="M221.286,140.495c-.3.3-2.032-1.09-4.555-1.181-2.519-.128-4.423,1.1-4.685.78-.128-.143.186-.683,1.02-1.239a6.439,6.439,0,0,1,3.764-1,6.194,6.194,0,0,1,3.61,1.322c.751.628.994,1.19.847,1.321" transform="translate(1119.355 3170.764)" fill="#263238"/>
      <path id="Path_590" data-name="Path 590" d="M223.438,159.44c-.006-.143,1.573-.353,4.128-.58.648-.042,1.263-.146,1.389-.583a3.281,3.281,0,0,0-.356-1.926l-1.716-4.983c-2.376-7.091-4.069-12.912-3.783-13s2.445,5.578,4.821,12.669q.854,2.623,1.634,5.009a3.73,3.73,0,0,1,.237,2.543,1.62,1.62,0,0,1-1.1.9,4.322,4.322,0,0,1-1.1.109c-2.564.039-4.151-.01-4.156-.155" transform="translate(1124.777 3171.018)" fill="#263238"/>
      <path id="Path_591" data-name="Path 591" d="M231.686,175.051a46.565,46.565,0,0,1-24.242-7.484s5.667,12.9,24.041,11.9Z" transform="translate(1117.112 3185.346)" fill="#eb996e"/>
      <path id="Path_592" data-name="Path 592" d="M224.94,157.169a4.552,4.552,0,0,0-4.011-1.848A4.153,4.153,0,0,0,218,156.749a2.634,2.634,0,0,0-.317,3,3.056,3.056,0,0,0,3.276.966,9.581,9.581,0,0,0,3.3-1.8,2.824,2.824,0,0,0,.75-.718.845.845,0,0,0,.033-.939" transform="translate(1121.971 3179.333)" fill="#eb996e"/>
      <path id="Path_593" data-name="Path 593" d="M218.439,153.481c.411-.007.31,2.732,2.58,4.769s5.2,1.847,5.2,2.232c.031.173-.671.507-1.905.492a6.815,6.815,0,0,1-4.35-1.708,5.946,5.946,0,0,1-1.988-3.99c-.06-1.149.273-1.816.459-1.793" transform="translate(1122.278 3178.435)" fill="#263238"/>
      <path id="Path_594" data-name="Path 594" d="M221.946,135.285c-.276.677-2.783.253-5.758.495-2.981.183-5.4.957-5.772.326-.164-.3.277-.932,1.269-1.558a10.048,10.048,0,0,1,8.784-.626c1.07.48,1.6,1.04,1.477,1.362" transform="translate(1118.554 3168.483)" fill="#263238"/>
      <path id="Path_595" data-name="Path 595" d="M236.934,133.531c-.467.556-2.182-.107-4.272-.216-2.085-.182-3.877.236-4.262-.38-.167-.3.134-.862.929-1.374a6.193,6.193,0,0,1,6.876.48c.716.619.935,1.218.729,1.491" transform="translate(1127.372 3167.278)" fill="#263238"/>
      <path id="Path_596" data-name="Path 596" d="M194.571,133.889c3.575-10.5,19.18-24.8,30.226-23.81l17.452,10.946a17.055,17.055,0,0,1-11.824,12.811c-3.142.888-6.909,1.075-8.819,3.724-1.951,2.7-.923,6.72-2.744,9.513-2.524,3.871-9.206,3.552-11.128,7.756-.838,1.836-.464,4.059-1.334,5.881-1.161,2.427-7.423,5.408-9.971,4.543s-2.467-5.229-3.26-7.534a12.1,12.1,0,0,1-.21-8.125c1.221-5.149-.094-10.7,1.611-15.7" transform="translate(1109.709 3157.117)" fill="#263238"/>
      <path id="Path_597" data-name="Path 597" d="M204.49,150.326c.049-1.362-1.4-4.634-2.737-4.9-3.572-.7-10.057-.662-10.472,8.458-.566,12.468,12.068,10.466,12.107,10.108.03-.277.93-8.965,1.1-13.669" transform="translate(1109.173 3174.354)" fill="#ffbe9d"/>
      <path id="Path_598" data-name="Path 598" d="M198.751,157.795c-.055-.042-.225.142-.6.294a2.181,2.181,0,0,1-1.628-.04c-1.3-.543-2.307-2.685-2.266-4.935a7.149,7.149,0,0,1,.748-3.081,2.51,2.51,0,0,1,1.708-1.593,1.111,1.111,0,0,1,1.257.653c.151.358.061.6.125.626.033.033.276-.2.2-.715a1.387,1.387,0,0,0-.456-.8,1.634,1.634,0,0,0-1.187-.373,3.063,3.063,0,0,0-2.357,1.83,7.387,7.387,0,0,0-.909,3.442c-.036,2.515,1.143,4.924,2.923,5.527a2.33,2.33,0,0,0,2-.24c.4-.289.479-.565.437-.59" transform="translate(1110.216 3175.659)" fill="#eb996e"/>
      <path id="Path_599" data-name="Path 599" d="M200.4,126.38h0c.04-3.9-4.831-6.451-8.631-7.335s-7.817.273-11.238,2.147c-2,1.1-4.017,2.656-4.464,4.894s1.705,4.9,3.841,4.1a7.391,7.391,0,1,0,7.16,12.644,16.515,16.515,0,0,1-6.483,8.85,18.546,18.546,0,0,0,19.815-25.3" transform="translate(1101.206 3161.391)" fill="#263238"/>
      <path id="Path_600" data-name="Path 600" d="M186.4,144.9a11.183,11.183,0,0,1-.467-3.741,27.466,27.466,0,0,1,5.739-17.032,11.168,11.168,0,0,1,2.635-2.7c.23.162-3.953,4.3-6.155,10.995-2.3,6.657-1.471,12.487-1.753,12.477" transform="translate(1106.556 3162.706)" fill="#ff725e"/>
      <path id="Path_601" data-name="Path 601" d="M223.4,114.938c1.148,5.077,8.863,11.585,12.25,15.538,6.46,7.541,7.735,10.045,7.672,26.9,3.051-5.821,5.387-11.527,5.153-18.095a27.21,27.21,0,0,0-7.221-17.877,21.191,21.191,0,0,0-17.855-6.468" transform="translate(1124.939 3159.433)" fill="#263238"/>
      <path id="Path_602" data-name="Path 602" d="M305.387,222.841S291.949,200.434,288.22,195.9a29.912,29.912,0,0,0-11.008-8.072,22.691,22.691,0,0,0-5.231-1.546l-19.326-4.28s-.034,13.191-13.855,14.007-25.46-18.438-25.46-18.438-22.328,3.454-27.671,6.2-13.739,6.238-18.359,29.374l-3.242,22.631,38.5,3.56,3.685,57.209,19.092,13.3s52.934,13.762,56.316,14.671,4.5-85.176,4.5-85.176,13.6-8.792,19.223-16.5" transform="translate(1095.83 3190.257)" fill="#144645"/>
      <path id="Path_603" data-name="Path 603" d="M241.876,201.488a8.249,8.249,0,0,1,.744,1.65c.44,1.078,1,2.668,1.625,4.654a91.01,91.01,0,0,1,3.937,32.156c-.127,2.078-.288,3.756-.455,4.907a8.3,8.3,0,0,1-.323,1.781,8.11,8.11,0,0,1,.024-1.808c.075-1.157.154-2.834.21-4.9a107.071,107.071,0,0,0-3.916-31.979c-.553-1.994-1.033-3.6-1.385-4.707a8.074,8.074,0,0,1-.461-1.75" transform="translate(1134.001 3201.989)" fill="#263238"/>
      <path id="Path_604" data-name="Path 604" d="M276.344,287.583,203.856,271.8l-3.349-51.813-32.236-2.98s1.192,35.42,2.433,45.95c1.783,15.145,10.736,35.811,15.972,39.94S279.6,305.17,279.6,305.17Z" transform="translate(1097.892 3209.606)" fill="#ffbe9d"/>
      <path id="Path_605" data-name="Path 605" d="M282.148,279.2a2.8,2.8,0,0,1-2.7,1.573,3.188,3.188,0,0,1-.7-.142c-1.6-.514-1.453-3.78-1.453-3.78l-7.683-1.254s-9.99,6.441-13.544,10.712-12.621.811-12.621.811L240.3,270.748l14.14-12.787s-.869.762.106-1.631,5.418-1.488,5.418-1.488c.692-1.182,3.594-1.607,3.594-1.607l12.4,1.43a8.506,8.506,0,0,1,6.214,3.905l5.244,8.3s2.771,5.977,2.325,7.367a2.482,2.482,0,0,1-2.89,1.631s-.61,3.929-1.641,4.066a8.485,8.485,0,0,1-3.071-.736" transform="translate(1133.234 3227.378)" fill="#ffbe9d"/>
      <path id="Path_606" data-name="Path 606" d="M250.667,262.92c.013.13,1.662-.022,4.312.092a37.623,37.623,0,0,1,10.121,1.895,35.894,35.894,0,0,1,5.219,2.231c1.5.844,3.062,1.537,3.542,2.629a1.5,1.5,0,0,1-.136,1.477,2.1,2.1,0,0,1-.936.791,3.314,3.314,0,0,1-1.087.16c-.031.018.385.341,1.188.131a2.319,2.319,0,0,0,1.2-.827,1.982,1.982,0,0,0,.292-1.941,3.958,3.958,0,0,0-1.543-1.743c-.675-.443-1.383-.9-2.172-1.319a32.466,32.466,0,0,0-15.676-4.044,14.283,14.283,0,0,0-4.323.467" transform="translate(1138.318 3231.9)" fill="#eb996e"/>
      <path id="Path_607" data-name="Path 607" d="M250.084,268.242c.015.235,5.062.024,11.262.388,6.205.341,11.195,1.121,11.236.89a12.377,12.377,0,0,0-3.23-.784,72.343,72.343,0,0,0-15.971-.906,12.447,12.447,0,0,0-3.3.413" transform="translate(1138.032 3234.485)" fill="#eb996e"/>
      <path id="Path_608" data-name="Path 608" d="M275.662,276.623a5.63,5.63,0,0,0,.155-1.322,28.878,28.878,0,0,0,.009-3.631,15.479,15.479,0,0,0-.346-2.515,7.663,7.663,0,0,0-1.219-2.7,16.946,16.946,0,0,0-4.648-4.76,23.344,23.344,0,0,0-5.931-3,21.46,21.46,0,0,0-5.357-.815c-1.534-.054-2.77-.019-3.622.012a4.319,4.319,0,0,0-1.325.134,39.921,39.921,0,0,0,4.912.413,23.129,23.129,0,0,1,5.176.953,24.3,24.3,0,0,1,5.7,2.954,16.982,16.982,0,0,1,4.5,4.52,9.408,9.408,0,0,1,1.608,4.855c.3,3,.222,4.909.394,4.9" transform="translate(1139.648 3229.642)" fill="#eb996e"/>
      <path id="Path_609" data-name="Path 609" d="M256.309,255.4c0,.118,1.856.167,4.819.508,2.855.437,7.42.647,10.022,4.579,2.817,3.579,5.211,6.958,6.259,9.729a25.109,25.109,0,0,1,1.175,4.643,3.447,3.447,0,0,0,.073-1.315,12.457,12.457,0,0,0-.723-3.522c-.953-2.925-3.333-6.431-6.167-10.029a13.526,13.526,0,0,0-2.41-2.437,8.753,8.753,0,0,0-2.919-1.37,26.594,26.594,0,0,0-5.257-.836,18.84,18.84,0,0,0-4.871.049" transform="translate(1141.086 3228.367)" fill="#eb996e"/>
      <path id="Path_610" data-name="Path 610" d="M258.551,283.784a4.438,4.438,0,0,0,.736-.562l2.076-1.668a86.42,86.42,0,0,1,8.152-5.615l-.176.034,7.674,1.306-.264-.323a8.516,8.516,0,0,0,.143,1.877,3.5,3.5,0,0,0,.872,1.847,1.906,1.906,0,0,0,1.018.468,2.7,2.7,0,0,0,1.081.063,3.147,3.147,0,0,0,1.911-1.057,3.459,3.459,0,0,0,.334-.455l.07-.122.034-.063.016-.031v0c.1-.039-.857.311-.45.164l.009,0,.016.006.243.1c.323.13.653.246.991.352a8.546,8.546,0,0,0,1.052.262,3.845,3.845,0,0,0,.571.063,1.309,1.309,0,0,0,.711-.139,2.283,2.283,0,0,0,.751-1.015,8.463,8.463,0,0,0,.382-1.055,18.089,18.089,0,0,0,.493-2.173l-.449.31a2.919,2.919,0,0,0,2.862-.976,2.362,2.362,0,0,0,.528-1.546,6.91,6.91,0,0,0-.273-1.486,41.043,41.043,0,0,0-2.117-5.523l-.01-.021-.015-.024-2.795-4.43-1.775-2.807a15.049,15.049,0,0,0-1.945-2.717,8.248,8.248,0,0,0-2.783-1.85,10.742,10.742,0,0,0-3.163-.657L263.375,253l-.051-.006-.042.007a10.9,10.9,0,0,0-2.05.54,3.476,3.476,0,0,0-1.781,1.246l.429-.134a4.281,4.281,0,0,0-3.983.222,5.01,5.01,0,0,0-1.971,3.141l.094-.162-9.746,8.763-2.625,2.419a6.836,6.836,0,0,0-.878.887,7.12,7.12,0,0,0,.99-.76l2.729-2.3c2.412-2.084,5.785-5,9.917-8.568l.067-.057.027-.106a4.433,4.433,0,0,1,1.737-2.726,3.653,3.653,0,0,1,3.358-.145l.273.113.158-.249a2.949,2.949,0,0,1,1.446-.941,10.3,10.3,0,0,1,1.909-.486h-.089l11.684,1.379a10.019,10.019,0,0,1,2.96.616,7.492,7.492,0,0,1,2.515,1.678,14.57,14.57,0,0,1,1.838,2.589l1.772,2.807c.958,1.517,1.906,3.017,2.8,4.429l-.024-.045a41.316,41.316,0,0,1,2.085,5.4,6.311,6.311,0,0,1,.249,1.31,1.6,1.6,0,0,1-.365,1.052,2.163,2.163,0,0,1-2.1.705l-.388-.063-.061.373a17.891,17.891,0,0,1-.461,2.079,3.74,3.74,0,0,1-.8,1.659.713.713,0,0,1-.312.034,3.037,3.037,0,0,1-.47-.048,7.745,7.745,0,0,1-.963-.236c-.319-.1-.635-.206-.944-.325l-.23-.091-.012-.006-.007,0c.405-.148-.555.2-.456.165v0l-.013.025-.027.049-.054.1a2.712,2.712,0,0,1-.261.361,2.469,2.469,0,0,1-1.482.839,2.05,2.05,0,0,1-.844-.049,1.254,1.254,0,0,1-.7-.294,4.809,4.809,0,0,1-.839-3.208V276.7l-.262-.042-7.692-1.2-.1-.015-.078.049a73.962,73.962,0,0,0-8.061,5.842c-.89.753-1.558,1.356-2,1.778a4.57,4.57,0,0,0-.639.672" transform="translate(1133.463 3227.262)" fill="#eb996e"/>
      <path id="Path_611" data-name="Path 611" d="M375.776,238.7l-95.479.775c-3.1,0-6.058,1.488-6.521,4.551l-10.434,69.59H214.16a2.867,2.867,0,0,0,0,5.734H371.236l10.734-73.446a6.265,6.265,0,0,0-6.194-7.2" transform="translate(1119.001 3220.247)" fill="#e0e0e0"/>
      <path id="Path_612" data-name="Path 612" d="M375.9,238.713a5.066,5.066,0,0,1,1.5.142,6.312,6.312,0,0,1,4.828,5.466,17.589,17.589,0,0,1-.352,3.926c-.4,2.813-.86,6.052-1.377,9.692-2.1,14.59-5.129,35.617-8.853,61.466l-.036.252h-.255c-40.647.025-94.059.057-152.387.091h-4.1a3.971,3.971,0,0,1-2.17-.411,3.254,3.254,0,0,1,.015-5.688,3.961,3.961,0,0,1,2.151-.4h2.02l15.96,0c10.512,0,20.751.006,30.618.01l-.368.316c3.756-24.923,7.261-48.171,10.4-69.028a5.4,5.4,0,0,1,1.766-3.636,7.1,7.1,0,0,1,3.651-1.611,31.557,31.557,0,0,1,3.85-.136l3.749-.025,14.376-.1,25.546-.161,36.367-.188,9.731-.016,2.512.012c.565.006.853.025.853.025s-.288.024-.853.04l-2.512.052-9.729.14-36.367.405L300.9,239.6q-6.931.067-14.374.137l-3.749.036a31.233,31.233,0,0,0-3.755.137,6.494,6.494,0,0,0-3.33,1.468,4.756,4.756,0,0,0-1.553,3.26c-3.111,20.861-6.581,44.115-10.3,69.043l-.048.316h-.32c-9.866,0-20.106.007-30.618.01q-7.884,0-15.96,0h-2.02a3.213,3.213,0,0,0-1.78.309,2.484,2.484,0,0,0-.01,4.341,3.192,3.192,0,0,0,1.795.314h4.1l152.387.091-.292.252c3.831-25.834,6.948-46.849,9.109-61.43.547-3.636,1.032-6.87,1.455-9.68a17.771,17.771,0,0,0,.389-3.868,6.121,6.121,0,0,0-1.107-2.968,6.241,6.241,0,0,0-3.53-2.434,12.118,12.118,0,0,0-1.483-.227" transform="translate(1118.873 3220.235)" fill="#263238"/>
      <path id="Path_613" data-name="Path 613" d="M282.884,267.127a5.978,5.978,0,1,0,5.977-5.977,5.978,5.978,0,0,0-5.977,5.977" transform="translate(1154.125 3231.261)" fill="#fff"/>
      <path id="Path_614" data-name="Path 614" d="M248.808,318.454c.136.022,3.175-17.7,6.787-39.573s6.435-39.636,6.3-39.658-3.174,17.694-6.788,39.578-6.432,39.631-6.3,39.654" transform="translate(1137.404 3220.503)" fill="#263238"/>
      <rect id="Rectangle_261" data-name="Rectangle 261" width="665.727" height="691.901" transform="translate(1015.333 3103.133)" fill="none"/>
      <path id="Path_618" data-name="Path 618" d="M-1.124,18.017s1.852-1.086,2.569-1.464c.223-.118.443-.242.665-.362.114-.062.138-.111.02-.211A8.943,8.943,0,0,1-.51,12.235a8.758,8.758,0,0,1-.549-3.8,8.939,8.939,0,0,1,2.84-5.98A8.643,8.643,0,0,1,6.391.145,8.857,8.857,0,0,1,14.07,2.351a8.573,8.573,0,0,1,2.837,5.163A8.836,8.836,0,0,1,14.144,15.7a8.652,8.652,0,0,1-5.106,2.358M13.947,9.1a.541.541,0,0,0-.2-.415Q12.566,7.5,11.388,6.325a1.557,1.557,0,0,0-.257-.213.3.3,0,0,0-.4.051.292.292,0,0,0-.048.385,1.04,1.04,0,0,0,.176.218q1,1,2.005,2.007c.241.241.239.357,0,.586-.3.285-.613.566-.913.855-.419.4-.835.809-1.244,1.223a.3.3,0,0,0-.046.453.36.36,0,0,0,.488.088.955.955,0,0,0,.218-.177l1.549-1.541c.3-.3.609-.6.913-.907a.3.3,0,0,0,.122-.258M5,6.037a.446.446,0,0,0-.248.124c-.193.189-.386.378-.578.568Q3.237,7.662,2.3,8.6c-.362.365-.358.557.005.917.138.136.278.271.416.407.669.66,1.336,1.322,2.009,1.979a.336.336,0,0,0,.488.046.372.372,0,0,0-.007-.511,1.016,1.016,0,0,0-.083-.091c-.643-.636-1.284-1.275-1.931-1.907-.341-.334-.346-.409,0-.753L5.122,6.746a.805.805,0,0,0,.185-.255A.364.364,0,0,0,5,6.037m4.262-.084c-.187-.018-.293.106-.373.281Q7.854,8.5,6.816,10.761c-.144.314-.29.628-.419.949a.277.277,0,0,0,.126.392.328.328,0,0,0,.455-.081,1.082,1.082,0,0,0,.133-.226Q8.293,9.21,9.472,6.625a.845.845,0,0,0,.1-.388c-.008-.186-.1-.278-.311-.284" transform="translate(1468.338 3287.102)" fill="url(#linear-gradient)"/>
    </g>
  </g>
</svg>
