<svg xmlns="http://www.w3.org/2000/svg" xmlns:xlink="http://www.w3.org/1999/xlink" width="1920" height="1080" viewBox="0 0 1920 1080">
  <defs>
    <linearGradient id="linear-gradient" x1="0.5" x2="0.5" y2="1.727" gradientUnits="objectBoundingBox">
      <stop offset="0" stop-color="#9ce644"/>
      <stop offset="1" stop-color="#4e7322"/>
    </linearGradient>
    <filter id="Path_1015" x="169.488" y="623.594" width="229.887" height="239.839" filterUnits="userSpaceOnUse">
      <feOffset dy="3" input="SourceAlpha"/>
      <feGaussianBlur stdDeviation="3" result="blur"/>
      <feFlood flood-opacity="0.161"/>
      <feComposite operator="in" in2="blur"/>
      <feComposite in="SourceGraphic"/>
    </filter>
    <linearGradient id="linear-gradient-2" x1="0.5" x2="0.5" y2="1.132" gradientUnits="objectBoundingBox">
      <stop offset="0" stop-color="#a0ea47"/>
      <stop offset="1" stop-color="#4e9000"/>
    </linearGradient>
    <clipPath id="clip-Web_1920_9">
      <rect width="1920" height="1080"/>
    </clipPath>
  </defs>
  <g id="Web_1920_9" data-name="Web 1920 – 9" clip-path="url(#clip-Web_1920_9)">
    <rect width="1920" height="1080" fill="#fbf7ed"/>
    <g id="Group_815" data-name="Group 815" transform="translate(-15 10)">
      <ellipse id="Ellipse_30" data-name="Ellipse 30" cx="159" cy="158" rx="159" ry="158" transform="translate(1761 351)" fill="#144645"/>
      <g id="Ellipse_31" data-name="Ellipse 31" transform="translate(1705 296)" fill="none" stroke="#144645" stroke-width="12">
        <circle cx="215" cy="215" r="215" stroke="none"/>
        <circle cx="215" cy="215" r="209" fill="none"/>
      </g>
    </g>
    <g id="Group_814" data-name="Group 814" transform="translate(15961 677)">
      <path id="Path_1001" data-name="Path 1001" d="M-24414.213,4298.9s-6.482,13.067-10.836,38.016-6.574,61.781-6.574,61.781l24.51,5.479s10.711-34.626,15.443-62.775a247.55,247.55,0,0,0,3.49-49.821Z" transform="translate(8690.021 -4151.468)" fill="#72a932"/>
      <path id="Path_1008" data-name="Path 1008" d="M-24405.439,4298.9s6.484,13.067,10.836,38.016,6.574,61.781,6.574,61.781l-24.508,5.479s-10.713-34.626-15.445-62.775a247.725,247.725,0,0,1-3.49-49.821Z" transform="translate(8779.758 -4139.872)" fill="#72a932"/>
      <path id="Path_1005" data-name="Path 1005" d="M-24414.213,4298.9s-6.482,13.067-10.836,38.016-6.574,61.781-6.574,61.781l24.51,5.479s10.711-34.626,15.443-62.775a247.55,247.55,0,0,0,3.49-49.821Z" transform="translate(8672.422 -4062.281)" fill="#72a932"/>
      <path id="Path_1007" data-name="Path 1007" d="M-24405.439,4298.9s6.484,13.067,10.836,38.016,6.574,61.781,6.574,61.781l-24.508,5.479s-10.713-34.626-15.445-62.775a247.725,247.725,0,0,1-3.49-49.821Z" transform="translate(8797.359 -4050.685)" fill="#72a932"/>
      <path id="Path_878" data-name="Path 878" d="M118.069,285.893l-61.319-6.4L30.875,220.607,10.72,225.866s14.9,62.219,31.548,71.857,73.61,11.392,73.61,11.392Z" transform="translate(-15905.35 -286.668)" fill="#72a932"/>
      <path id="Path_885" data-name="Path 885" d="M74.3,282.121a27.166,27.166,0,1,0,27.166-27.166A27.167,27.167,0,0,0,74.3,282.121" transform="translate(-15876.475 -271.067)" fill="#263238"/>
      <path id="Path_886" data-name="Path 886" d="M101.473,309.335a27.2,27.2,0,1,1,19.235-7.968,27.024,27.024,0,0,1-19.235,7.968m0-54.331a27.131,27.131,0,1,0,19.183,7.946A26.952,26.952,0,0,0,101.473,255" transform="translate(-15876.482 -271.078)" fill="#263238"/>
      <path id="Path_884" data-name="Path 884" d="M21.36,269.589a20.374,20.374,0,1,0,20.374-20.375A20.374,20.374,0,0,0,21.36,269.589" transform="translate(-15900.516 -273.674)" fill="#263238"/>
      <g id="Group_659" data-name="Group 659" transform="translate(-15910.219 -103.74)">
        <path id="Path_402" data-name="Path 402" d="M5.191,221a16.647,16.647,0,1,0,16.646-16.646A16.646,16.646,0,0,0,5.191,221" transform="translate(2.748 -187.207)" fill="#263238"/>
        <path id="Path_403" data-name="Path 403" d="M26.619,223.25l13.686-11.558a3.568,3.568,0,0,0,.425-5.027l-.337-.4a3.568,3.568,0,0,0-5.027-.423L21.678,217.4Z" transform="translate(12.532 -193.986)" fill="#263238"/>
        <path id="Path_404" data-name="Path 404" d="M24.9,213.528v-17.4a3.568,3.568,0,0,0-3.569-3.569h-.522a3.568,3.568,0,0,0-3.567,3.569v17.4a.515.515,0,0,0,.515.515h6.628a.515.515,0,0,0,.515-.515" transform="translate(8.223 -192.561)" fill="#263238"/>
        <path id="Path_405" data-name="Path 405" d="M20.183,212.912l-3.8-16.98a3.568,3.568,0,0,0-4.261-2.7l-.509.113a3.568,3.568,0,0,0-2.7,4.261l3.8,16.979a.517.517,0,0,0,.615.39l6.468-1.447a.515.515,0,0,0,.39-.615" transform="translate(4.398 -192.297)" fill="#263238"/>
        <path id="Path_406" data-name="Path 406" d="M15.81,213.611l-8.7-15.067a3.57,3.57,0,0,0-4.875-1.307l-.452.263a3.567,3.567,0,0,0-1.306,4.872l8.7,15.069a.515.515,0,0,0,.7.188l5.74-3.314a.513.513,0,0,0,.189-.7" transform="translate(0 -185.746)" fill="#263238"/>
      </g>
      <rect id="Rectangle_372" data-name="Rectangle 372" width="19.919" height="135.166" transform="translate(-15566.16 10.26) rotate(-61)" fill="#72a932"/>
      <path id="Path_894" data-name="Path 894" d="M53.133,35.18A27.166,27.166,0,1,0,19.166,53.132,27.166,27.166,0,0,0,53.133,35.18" transform="matrix(0.788, -0.616, 0.616, 0.788, -15612.408, -5.103)" fill="#263238"/>
      <path id="Path_895" data-name="Path 895" d="M27.249,54.431a27.243,27.243,0,1,1,12.678-3.166,27.217,27.217,0,0,1-12.678,3.166M27.181.074A27.142,27.142,0,0,0,3.23,39.893a27.132,27.132,0,0,0,49.912-4.683l.033.012-.033-.012A27.168,27.168,0,0,0,27.181.074" transform="matrix(0.788, -0.616, 0.616, 0.788, -15612.465, -5.111)" fill="#263238"/>
      <path id="Path_962" data-name="Path 962" d="M39.849,26.385A20.374,20.374,0,1,0,14.374,39.85,20.375,20.375,0,0,0,39.849,26.385" transform="matrix(0.788, -0.616, 0.616, 0.788, -15528.363, 33.958)" fill="#263238"/>
      <path id="Path_1003" data-name="Path 1003" d="M281.55,340.032A20.374,20.374,0,1,0,256.075,353.5a20.375,20.375,0,0,0,25.475-13.465" transform="translate(-15991.275 -91.079)" fill="#263238"/>
      <path id="Path_1009" data-name="Path 1009" d="M242.611,340.032A20.374,20.374,0,1,1,268.086,353.5a20.375,20.375,0,0,1-25.475-13.465" transform="translate(-15882.758 -79.483)" fill="#263238"/>
      <path id="Path_983" data-name="Path 983" d="M32.442,11.381a16.647,16.647,0,1,0-10.52,21.061,16.647,16.647,0,0,0,10.52-21.061" transform="matrix(0.788, -0.616, 0.616, 0.788, -15459.902, 65.658)" fill="#263238"/>
      <path id="Path_985" data-name="Path 985" d="M9.844,0,.521,15.3a3.569,3.569,0,0,0,1.191,4.9l.445.27a3.567,3.567,0,0,0,4.9-1.19l9.323-15.3Z" transform="matrix(0.788, -0.616, 0.616, 0.788, -15453.189, 83.405)" fill="#263238"/>
      <path id="Path_997" data-name="Path 997" d="M.027,2.777l5.509,16.5a3.568,3.568,0,0,0,4.514,2.254l.5-.164A3.568,3.568,0,0,0,12.8,16.856L7.29.353A.514.514,0,0,0,6.639.027L.351,2.127a.513.513,0,0,0-.324.65" transform="matrix(0.788, -0.616, 0.616, 0.788, -15432.289, 80.557)" fill="#263238"/>
      <path id="Path_998" data-name="Path 998" d="M.074,4.2,9.052,19.1a3.567,3.567,0,0,0,4.9,1.214l.448-.269a3.569,3.569,0,0,0,1.214-4.9L6.634.249A.515.515,0,0,0,5.927.074L.249,3.494A.515.515,0,0,0,.074,4.2" transform="matrix(0.788, -0.616, 0.616, 0.788, -15428.189, 72.535)" fill="#263238"/>
      <path id="Path_986" data-name="Path 986" d="M.173,5.861,13.2,17.4a3.567,3.567,0,0,0,5.036-.3l.348-.391a3.568,3.568,0,0,0-.305-5.036L5.251.13a.513.513,0,0,0-.726.044L.13,5.135a.514.514,0,0,0,.044.726" transform="matrix(0.788, -0.616, 0.616, 0.788, -15426.611, 63.01)" fill="#263238"/>
      <path id="Path_880" data-name="Path 880" d="M132.074,238.281h90.458a10.688,10.688,0,0,0,10.687-10.688V226.03a10.688,10.688,0,0,0-10.687-10.688H132.074a10.689,10.689,0,0,0-10.689,10.688v1.563a10.689,10.689,0,0,0,10.689,10.688" transform="translate(-15855.082 -289.06)" fill="#263238"/>
      <path id="Path_865" data-name="Path 865" d="M63.246,186.085a22.946,22.946,0,1,0,22.946-22.946,22.946,22.946,0,0,0-22.946,22.946" transform="translate(-15881.49 -312.771)" fill="#86c63a"/>
      <path id="Path_1000" data-name="Path 1000" d="M63.246,186.085a22.946,22.946,0,1,0,22.946-22.946,22.946,22.946,0,0,0-22.946,22.946" transform="translate(-15646.215 -313.698)" fill="#86c63a"/>
      <path id="Path_866" data-name="Path 866" d="M191.046,108.638s-93.3-1.121-108.072,79.69,64.134,82.32,86.827,83.852c10.291.694,32.307.765,51.734.428,43.01-.746,73.4-9.071,83.743-48.974a75.847,75.847,0,0,0,2.322-14.291c2.735-43.734-26.868-102.858-116.554-100.7" transform="translate(-15873.359 -337.553)" fill="#91d63f"/>
      <path id="Path_867" data-name="Path 867" d="M253.763,209.329l-135.549,2.116a25.728,25.728,0,1,1-.8-51.45l135.549-2.116a25.728,25.728,0,1,1,.8,51.45" transform="translate(-15868.393 -315.162)" fill="#263238"/>
      <path id="Path_873" data-name="Path 873" d="M134.5,178.445a8.257,8.257,0,1,1-6.515-9.691,8.256,8.256,0,0,1,6.515,9.691" transform="translate(-15856.557 -310.291)" fill="#fff"/>
      <path id="Path_883" data-name="Path 883" d="M199.622,177.406a8.257,8.257,0,1,1-6.515-9.691,8.256,8.256,0,0,1,6.515,9.691" transform="translate(-15826.979 -310.763)" fill="#fff"/>
      <g id="Group_660" data-name="Group 660" transform="translate(-15690.631 -273.5)">
        <rect id="Rectangle_245" data-name="Rectangle 245" width="7.809" height="39.488" transform="translate(8.966 13.66)" fill="#263238"/>
        <path id="Path_426" data-name="Path 426" d="M151,90.832a12.871,12.871,0,1,0,12.871-12.871A12.872,12.872,0,0,0,151,90.832" transform="translate(-151 -77.961)" fill="#86c63a"/>
      </g>
      <path id="Path_874" data-name="Path 874" d="M146.032,172.752c.614.065.308,2.954,2.11,6.793a17.071,17.071,0,0,0,4.383,5.76,13.231,13.231,0,0,0,16.011,1.463,17.057,17.057,0,0,0,5.353-4.872c2.468-3.449,2.69-6.343,3.305-6.3.24.006.492.734.493,2.1a12.818,12.818,0,0,1-1.5,5.577,17.144,17.144,0,0,1-5.8,6.449,15.672,15.672,0,0,1-20.219-1.847,17.131,17.131,0,0,1-4.533-7.392,12.8,12.8,0,0,1-.467-5.757c.247-1.344.627-2.016.864-1.976" transform="translate(-15844.348 -308.406)" fill="#fff"/>
      <path id="Path_898" data-name="Path 898" d="M231.145,215.09c-.138-.079,1.536-2.618,3.145-7.2a78.655,78.655,0,0,0,3.784-18.534,137.122,137.122,0,0,0,.436-18.978c-.113-2.43-.227-4.4-.337-5.756a11.3,11.3,0,0,1-.074-2.12,11.31,11.31,0,0,1,.368,2.091c.2,1.351.4,3.319.577,5.754a115.605,115.605,0,0,1-.217,19.082,71.439,71.439,0,0,1-4.035,18.645,35.784,35.784,0,0,1-2.469,5.245,11.417,11.417,0,0,1-1.178,1.77" transform="translate(-15805.23 -313.061)" fill="#263238"/>
      <path id="Path_868" data-name="Path 868" d="M83.662,161.6a11.555,11.555,0,0,1-.461,2.075c-.179.657-.39,1.464-.58,2.413s-.474,2.014-.654,3.218a71.739,71.739,0,0,0-1.022,8.474,70.345,70.345,0,0,0,1.841,20.746,71.663,71.663,0,0,0,2.5,8.163c.39,1.153.849,2.154,1.211,3.051s.7,1.658,1,2.274a11.447,11.447,0,0,1,.819,1.96,11.313,11.313,0,0,1-1.083-1.831c-.334-.6-.724-1.341-1.118-2.231s-.9-1.88-1.323-3.031a64.043,64.043,0,0,1-2.677-8.189,66.07,66.07,0,0,1-1.86-20.958,63.662,63.662,0,0,1,1.194-8.53c.215-1.208.529-2.274.769-3.217s.483-1.747.708-2.394a11.475,11.475,0,0,1,.743-1.994" transform="translate(-15873.836 -313.469)" fill="#263238"/>
      <path id="Path_887" data-name="Path 887" d="M87.081,254.088a3.429,3.429,0,0,1,.561.164l1.62.551,6.2,2.186,4.473,1.6c1.648.551,3.463,1.069,5.4,1.672,3.886,1.155,8.259,2.648,13.229,3.817l7.757,1.989c2.7.681,5.557,1.187,8.487,1.822,5.85,1.344,12.2,2.257,18.855,3.335A336.772,336.772,0,0,0,197.4,274.35a336.974,336.974,0,0,0,43.744-3.121c6.657-1.076,13.007-1.988,18.857-3.332,2.93-.636,5.786-1.142,8.487-1.821l7.758-1.988c4.971-1.169,9.343-2.663,13.229-3.816,1.936-.6,3.75-1.12,5.4-1.669l4.473-1.6,6.2-2.186,1.62-.55a3.425,3.425,0,0,1,.561-.164,3.181,3.181,0,0,1-.532.236l-1.594.621-6.157,2.321-4.457,1.661c-1.642.57-3.452,1.11-5.385,1.732-3.878,1.194-8.248,2.725-13.219,3.928q-3.708.975-7.76,2.04c-2.7.7-5.561,1.217-8.5,1.867-5.858,1.373-12.215,2.309-18.886,3.407a330.586,330.586,0,0,1-43.843,3.188,330.424,330.424,0,0,1-43.833-3.195c-6.669-1.1-13.027-2.037-18.883-3.41-2.935-.651-5.792-1.172-8.494-1.869l-7.76-2.04c-4.971-1.206-9.34-2.737-13.219-3.932-1.933-.622-3.743-1.162-5.385-1.732l-4.457-1.662-6.157-2.321-1.594-.622a3.408,3.408,0,0,1-.534-.236" transform="translate(-15870.666 -271.461)" fill="#263238"/>
      <path id="Path_869" data-name="Path 869" d="M177.854,112.783a1.162,1.162,0,0,1-.336.057l-.986.089c-.865.09-2.149.118-3.79.314a102.345,102.345,0,0,0-13.769,2.282,99.952,99.952,0,0,0-68.507,56.537,102.173,102.173,0,0,0-4.853,13.087c-.5,1.572-.775,2.827-1.027,3.659-.111.381-.2.694-.275.953a1.181,1.181,0,0,1-.119.318,1.149,1.149,0,0,1,.044-.336c.055-.263.121-.582.2-.97.205-.846.429-2.116.891-3.705a92.782,92.782,0,0,1,4.648-13.222,98.324,98.324,0,0,1,10.26-18.082,96.916,96.916,0,0,1,38.918-32.116,98.291,98.291,0,0,1,19.7-6.643,92.591,92.591,0,0,1,13.865-2.055c1.649-.153,2.938-.132,3.807-.173l.992-.013a1.1,1.1,0,0,1,.337.02" transform="translate(-15871.979 -335.653)" fill="#fff"/>
      <path id="Path_870" data-name="Path 870" d="M86.983,196.388a10.786,10.786,0,0,1-1.326-2.9,41.263,41.263,0,0,1-2.375-15.156,10.754,10.754,0,0,1,.375-3.169c.237.01-.092,4.866.849,10.742.9,5.879,2.7,10.4,2.477,10.486" transform="translate(-15872.402 -307.312)" fill="#fff"/>
      <path id="Path_871" data-name="Path 871" d="M70.325,192.3c-.036.031-.33-.236-.787-.784a14.061,14.061,0,0,1-1.645-2.542,16.582,16.582,0,0,1,2.49-18.768,14.064,14.064,0,0,1,2.251-2.024c.583-.41.937-.59.963-.553.084.109-1.226,1-2.808,2.926a17.156,17.156,0,0,0-2.413,18.188c1.024,2.274,2.058,3.474,1.949,3.557" transform="translate(-15880.215 -310.735)" fill="#fff"/>
      <path id="Path_899" data-name="Path 899" d="M251.428,174.345c-.159.172-2.421-1.988-5.839-3.624-3.4-1.671-6.5-2.112-6.461-2.343-.006-.186,3.25-.074,6.791,1.662,3.556,1.706,5.66,4.194,5.509,4.3" transform="translate(-15798.688 -309.115)" fill="#fff"/>
      <path id="Path_889" data-name="Path 889" d="M119.754,386.562a1.11,1.11,0,0,1-.185-.279c-.129-.234-.286-.515-.476-.858l-1.767-3.336c-.38-.733-.8-1.543-1.252-2.423l-1.367-2.943c-.989-2.107-2.1-4.514-3.185-7.239q-.838-2.037-1.748-4.258-.833-2.251-1.732-4.677c-1.249-3.215-2.306-6.746-3.554-10.415-2.279-7.409-4.515-15.636-6.479-24.363-1.921-8.738-3.393-17.136-4.552-24.8-1.07-7.674-1.918-14.6-2.383-20.445-.282-2.916-.454-5.561-.6-7.883-.163-2.322-.272-4.323-.318-5.961q-.081-2.378-.125-3.769c-.006-.393-.01-.715-.013-.982a1.141,1.141,0,0,1,.02-.335,1.119,1.119,0,0,1,.057.332c.023.266.052.586.089.977l.266,3.761c.093,1.633.244,3.63.448,5.946.185,2.317.393,4.955.71,7.864.532,5.827,1.434,12.738,2.541,20.393,1.194,7.642,2.683,16.017,4.6,24.736,1.959,8.706,4.169,16.918,6.406,24.319,1.226,3.666,2.258,7.2,3.48,10.409q.873,2.426,1.685,4.681.886,2.223,1.7,4.264c1.047,2.732,2.125,5.148,3.076,7.267q.7,1.59,1.307,2.964.648,1.335,1.191,2.447,1.032,2.142,1.637,3.4c.163.356.3.65.409.893a1.1,1.1,0,0,1,.116.316" transform="translate(-15869.33 -268.05)" fill="#fff"/>
      <path id="Path_900" data-name="Path 900" d="M77.916,266.5c-.015.208-4.773.041-10.626-.375S56.7,265.2,56.716,264.995s4.771-.041,10.627.378,10.587.925,10.572,1.131" transform="translate(-15884.455 -266.547)" fill="#fff"/>
      <path id="Path_882" data-name="Path 882" d="M36.926,250.653c-.183.1-2.661-4.118-5.535-9.42s-5.052-9.684-4.869-9.783,2.661,4.118,5.535,9.422,5.052,9.682,4.869,9.781" transform="translate(-15902.463 -279.672)" fill="#fff"/>
      <path id="Path_984" data-name="Path 984" d="M156.7,386.637a7.466,7.466,0,0,1-1.7-.208,35.946,35.946,0,0,1-4.549-1.1,47.323,47.323,0,0,1-6.486-2.492,49.34,49.34,0,0,1-13.878-9.758,47.183,47.183,0,0,1-4.54-5.26,35.973,35.973,0,0,1-2.572-3.907,7.473,7.473,0,0,1-.772-1.533c.124-.074,1.339,2.043,3.769,5.115a53.973,53.973,0,0,0,4.6,5.088,52.935,52.935,0,0,0,13.691,9.627,53.789,53.789,0,0,0,6.348,2.61c3.711,1.248,6.115,1.675,6.087,1.816" transform="translate(-15854.713 -222.273)" fill="#fff"/>
      <path id="Path_888" data-name="Path 888" d="M46.121,254.647c-.061.122-1.124-.42-2.959-.838a16.23,16.23,0,0,0-13.753,3.3c-1.445,1.2-2.148,2.17-2.257,2.088a7.075,7.075,0,0,1,1.9-2.49A15.02,15.02,0,0,1,43.3,253.292a7.081,7.081,0,0,1,2.826,1.355" transform="translate(-15897.889 -272.078)" fill="#fff"/>
      <path id="Path_875" data-name="Path 875" d="M212.771,154.738c0,.209-17.855.378-39.875.378s-39.879-.169-39.879-.378,17.851-.378,39.879-.378,39.875.169,39.875.378" transform="translate(-15849.799 -316.759)" fill="#fff"/>
      <path id="Path_876" data-name="Path 876" d="M161.11,221.868a2.356,2.356,0,0,1-.675.109l-1.946.169c-.843.071-1.88.14-3.084.159s-2.578.095-4.094.047a105.334,105.334,0,0,1-10.638-.638,108.065,108.065,0,0,1-25.37-5.974,105.865,105.865,0,0,1-9.807-4.177c-1.377-.635-2.575-1.309-3.641-1.87s-1.966-1.076-2.69-1.518L97.5,207.155a2.26,2.26,0,0,1-.554-.4,2.369,2.369,0,0,1,.63.268l1.733.891c.743.4,1.658.884,2.741,1.4s2.289,1.16,3.676,1.761c2.735,1.28,6.063,2.645,9.813,4a127.458,127.458,0,0,0,12.442,3.675,128.156,128.156,0,0,0,12.772,2.264c3.961.458,7.55.72,10.568.8,1.511.081,2.875.051,4.075.064s2.235,0,3.08-.029l1.95-.025a2.327,2.327,0,0,1,.683.042" transform="translate(-15866.186 -292.96)" fill="#fff"/>
      <path id="Path_890" data-name="Path 890" d="M266.218,262.216a1.489,1.489,0,0,1-.348.159l-1.046.391-4.046,1.44c-1.755.633-3.913,1.371-6.457,2.117s-5.405,1.709-8.642,2.514l-5.062,1.339c-1.762.458-3.62.835-5.53,1.28-3.814.925-7.943,1.651-12.278,2.469a281.074,281.074,0,0,1-28.5,3.353,280.849,280.849,0,0,1-28.7.159c-4.4-.281-8.592-.5-12.49-.947-1.952-.206-3.841-.355-5.645-.593l-5.189-.71c-3.311-.4-6.274-.993-8.885-1.438-2.615-.429-4.847-.9-6.666-1.31l-4.191-.934-1.085-.262a.192.192,0,1,1,.016-.076c.292.051.654.112,1.1.188l4.217.794c1.825.368,4.063.794,6.681,1.184s5.576.954,8.885,1.325l5.183.659c1.8.223,3.691.355,5.637.548,3.893.423,8.072.614,12.464.875,8.794.353,18.477.372,28.62-.218,10.134-.656,19.741-1.86,28.423-3.285,4.328-.8,8.45-1.5,12.262-2.4,1.909-.429,3.765-.791,5.527-1.233l5.064-1.288c3.239-.772,6.112-1.683,8.657-2.4s4.719-1.4,6.486-1.992l4.089-1.3,1.069-.32a1.44,1.44,0,0,1,.374-.086" transform="translate(-15855.215 -267.77)" fill="#fff"/>
      <g id="Group_680" data-name="Group 680" transform="translate(-437.512 68.594)">
        <g transform="matrix(1, 0, 0, 1, -15523.49, -745.59)" filter="url(#Path_1015)">
          <path id="Path_1015-2" data-name="Path 1015" d="M92.1,270.732S89.347,453.447,196.365,457.177,303.1,272.8,303.1,272.8s3.177-13.629-3.452-18.35c-11.46-8.163-39.066-19.74-102.019-19.022-52.51.6-80.427,8.462-95.3,15.74C90.085,257.155,92.1,270.732,92.1,270.732" transform="translate(86.52 394.2)" fill="url(#linear-gradient)"/>
        </g>
        <ellipse id="Ellipse_38" data-name="Ellipse 38" cx="83.5" cy="13.5" rx="83.5" ry="13.5" transform="translate(-15322.832 -116.215)" fill="#68992d"/>
        <g id="Group_679" data-name="Group 679" transform="translate(438.979 -81.778)">
          <path id="Path_897" data-name="Path 897" d="M228.308,329.471a46.984,46.984,0,1,1-43.434-50.285,46.984,46.984,0,0,1,43.434,50.285" transform="translate(-15856.017 -252.282)" fill="#263238"/>
          <path id="Path_910" data-name="Path 910" d="M209.732,322.678a34.237,34.237,0,1,1-31.65-36.643,34.236,34.236,0,0,1,31.65,36.643" transform="translate(-15850.153 -246.419)" fill="#fff"/>
          <path id="Path_901" data-name="Path 901" d="M187.05,374.344a6.622,6.622,0,0,1-1.3.133,33.749,33.749,0,0,1-3.741.107,48.92,48.92,0,0,1-13.577-2.2,56.28,56.28,0,0,1-8.844-3.557,57.466,57.466,0,0,1-9.2-5.939,49.861,49.861,0,0,1-19.217-44.259,57.486,57.486,0,0,1,1.939-10.775,56.358,56.358,0,0,1,3.441-8.89,48.948,48.948,0,0,1,7.659-11.424,33.772,33.772,0,0,1,2.633-2.659,6.509,6.509,0,0,1,.983-.857c.072.074-1.233,1.313-3.333,3.763a52.032,52.032,0,0,0-7.329,11.473,57.273,57.273,0,0,0-3.283,8.811,57.9,57.9,0,0,0-1.824,10.627,49.512,49.512,0,0,0,18.886,43.5,57.85,57.85,0,0,0,9.009,5.92,57.194,57.194,0,0,0,8.681,3.618,51.964,51.964,0,0,0,13.386,2.478c3.224.139,5.022.031,5.026.135" transform="translate(-15858.974 -248.057)" fill="#fff"/>
          <path id="Path_943" data-name="Path 943" d="M-1.124,42.54s4.374-2.565,6.066-3.457c.527-.278,1.046-.571,1.57-.854.27-.146.326-.263.047-.5A21.114,21.114,0,0,1,.325,28.888a20.679,20.679,0,0,1-1.3-8.981A21.106,21.106,0,0,1,5.736,5.787,20.407,20.407,0,0,1,16.619.342,20.911,20.911,0,0,1,34.75,5.549a20.242,20.242,0,0,1,6.7,12.19,20.862,20.862,0,0,1-6.524,19.333,20.428,20.428,0,0,1-12.056,5.567M34.461,21.474a1.278,1.278,0,0,0-.479-.98q-2.782-2.779-5.562-5.56a3.675,3.675,0,0,0-.606-.5.7.7,0,0,0-.945.12.689.689,0,0,0-.113.909,2.455,2.455,0,0,0,.416.516q2.369,2.368,4.735,4.739c.568.57.565.843-.01,1.383-.718.674-1.448,1.336-2.156,2.019-.989.953-1.972,1.911-2.938,2.886a.705.705,0,0,0-.109,1.07.85.85,0,0,0,1.153.207,2.256,2.256,0,0,0,.515-.417l3.658-3.638c.718-.714,1.439-1.424,2.155-2.14a.72.72,0,0,0,.287-.61M13.333,14.253a1.054,1.054,0,0,0-.585.292c-.455.447-.912.892-1.364,1.342q-2.21,2.2-4.414,4.413c-.855.862-.845,1.315.012,2.164.325.322.656.639.982.96,1.58,1.558,3.154,3.122,4.742,4.672a.794.794,0,0,0,1.152.11A.879.879,0,0,0,13.842,27a2.4,2.4,0,0,0-.2-.215c-1.518-1.5-3.032-3.009-4.559-4.5-.806-.788-.816-.966-.009-1.777q2.275-2.286,4.546-4.575a1.9,1.9,0,0,0,.437-.6.86.86,0,0,0-.727-1.075m10.064-.2c-.441-.043-.692.25-.881.664q-2.442,5.347-4.894,10.688c-.34.742-.685,1.483-.99,2.24a.654.654,0,0,0,.3.925A.775.775,0,0,0,18,28.38a2.556,2.556,0,0,0,.315-.534q2.792-6.1,5.576-12.2a1.994,1.994,0,0,0,.236-.917c-.019-.438-.235-.655-.735-.672" transform="translate(-15694.893 52.444)" fill="url(#linear-gradient-2)"/>
        </g>
      </g>
      <path id="Path_999" data-name="Path 999" d="M18.974,1.918c-.061.122-1.124-.42-2.959-.838A16.23,16.23,0,0,0,2.262,4.38C.816,5.584.114,6.549,0,6.468a7.075,7.075,0,0,1,1.9-2.49A15.02,15.02,0,0,1,16.148.562a7.081,7.081,0,0,1,2.826,1.355" transform="matrix(0.788, -0.616, 0.616, 0.788, -15514.635, 31.767)" fill="#fff"/>
      <path id="Path_1002" data-name="Path 1002" d="M46.121,254.647c-.061.122-1.124-.42-2.959-.838a16.23,16.23,0,0,0-13.753,3.3c-1.445,1.2-2.148,2.17-2.257,2.088a7.075,7.075,0,0,1,1.9-2.49A15.02,15.02,0,0,1,43.3,253.292a7.081,7.081,0,0,1,2.826,1.355" transform="translate(-15764.555 -23.437)" fill="#fff"/>
      <path id="Path_1010" data-name="Path 1010" d="M27.149,254.647c.061.122,1.124-.42,2.959-.838a16.23,16.23,0,0,1,13.753,3.3c1.445,1.2,2.148,2.17,2.257,2.088a7.075,7.075,0,0,0-1.9-2.49,15.02,15.02,0,0,0-14.241-3.416,7.081,7.081,0,0,0-2.826,1.355" transform="translate(-15658.588 -11.841)" fill="#fff"/>
      <path id="Path_1006" data-name="Path 1006" d="M31.141,0C48.02,0,61.7,6.03,61.7,13.468S48.02,26.936,31.141,26.936H-6.782s-9.3-5.807-9.3-9.942C-16.082,9.556,14.262,0,31.141,0Z" transform="translate(-15791.012 332.62)" fill="#263238"/>
      <path id="Path_1011" data-name="Path 1011" d="M14.48,0C-2.4,0-16.082,6.03-16.082,13.468S-2.4,26.936,14.48,26.936H52.4s9.3-5.807,9.3-9.942C61.7,9.556,31.359,0,14.48,0Z" transform="translate(-15604.48 344.216)" fill="#263238"/>
      <path id="Path_1012" data-name="Path 1012" d="M11.519,1.564C6.715,1.641-.015,2.953,0,2.743S6.153.406,11.677.055,22.112,1.133,22.1,1.34" transform="matrix(0.995, -0.105, 0.105, 0.995, -15786.607, 338.675)" fill="#fff"/>
      <path id="Path_1013" data-name="Path 1013" d="M11.519,1.2C6.715,1.125-.015-.187,0,.023S6.153,2.36,11.677,2.711,22.112,1.633,22.1,1.426" transform="matrix(-0.995, -0.105, 0.105, -0.995, -15563.514, 354.402)" fill="#fff"/>
    </g>
    <path id="Path_1406" data-name="Path 1406" d="M164.243,80.841a19.611,19.611,0,0,0-3.422-.083,8.918,8.918,0,0,0-7.62,11.868,19.676,19.676,0,0,0,1.5,3.077c-.032.031-.3-.179-.7-.646a7.9,7.9,0,0,1-1.3-2.254,9.13,9.13,0,0,1,8.075-12.579,7.939,7.939,0,0,1,2.591.246c.592.17.894.329.88.371" transform="translate(129.205 306.561)" fill="#fff"/>
  </g>
</svg>
