<svg xmlns="http://www.w3.org/2000/svg" xmlns:xlink="http://www.w3.org/1999/xlink" width="716" height="571" viewBox="0 0 716 571">
  <defs>
    <clipPath id="clip-path">
      <circle id="Ellipse_35" data-name="Ellipse 35" cx="280" cy="280" r="280" transform="translate(0.5 -0.5)" fill="#fff" stroke="#707070" stroke-width="1"/>
    </clipPath>
    <linearGradient id="linear-gradient" x1="0.5" x2="0.5" y2="1.727" gradientUnits="objectBoundingBox">
      <stop offset="0" stop-color="#9ce644"/>
      <stop offset="1" stop-color="#4e7322"/>
    </linearGradient>
    <filter id="Path_1014" x="135.547" y="326.453" width="278.302" height="290.529" filterUnits="userSpaceOnUse">
      <feOffset dy="3" input="SourceAlpha"/>
      <feGaussianBlur stdDeviation="3" result="blur"/>
      <feFlood flood-opacity="0.161"/>
      <feComposite operator="in" in2="blur"/>
      <feComposite in="SourceGraphic"/>
    </filter>
    <linearGradient id="linear-gradient-2" x1="0.5" x2="0.5" y2="1.132" gradientUnits="objectBoundingBox">
      <stop offset="0" stop-color="#a0ea47"/>
      <stop offset="1" stop-color="#4e9000"/>
    </linearGradient>
  </defs>
  <g id="Group_823" data-name="Group 823" transform="translate(-1095 -267)">
    <circle id="Ellipse_36" data-name="Ellipse 36" cx="280" cy="280" r="280" transform="translate(1095 278)" fill="#dbdcdc"/>
    <g id="Mask_Group_1" data-name="Mask Group 1" transform="translate(1094.5 277.5)" clip-path="url(#clip-path)">
      <g id="Group_674" data-name="Group 674" transform="translate(51.662 15.689)">
        <g transform="matrix(1, 0, 0, 1, -51.16, -26.19)" filter="url(#Path_1014)">
          <path id="Path_1014-2" data-name="Path 1014" d="M92.124,278.808S88.747,503.272,220.218,507.854,351.34,281.342,351.34,281.342s3.9-16.744-4.241-22.543c-14.078-10.029-47.992-24.251-125.33-23.368-64.508.735-98.8,10.4-117.073,19.337-15.043,7.36-12.572,24.04-12.572,24.04" transform="translate(52.57 97.06)" fill="url(#linear-gradient)"/>
        </g>
        <g id="Group_673" data-name="Group 673" transform="translate(86.184 0) rotate(7)">
          <path id="Path_880" data-name="Path 880" d="M13.131,28.182H124.259a13.13,13.13,0,0,0,13.129-13.131V13.131A13.13,13.13,0,0,0,124.259,0H13.131A13.132,13.132,0,0,0,0,13.131v1.921A13.132,13.132,0,0,0,13.131,28.182" transform="translate(103.866 245.431)" fill="#263238"/>
          <path id="Path_865" data-name="Path 865" d="M0,28.189A28.189,28.189,0,1,0,28.189,0,28.189,28.189,0,0,0,0,28.189" transform="translate(0 152.171)" fill="#86c63a"/>
          <path id="Path_1000" data-name="Path 1000" d="M0,28.189A28.189,28.189,0,1,0,28.189,0,28.189,28.189,0,0,0,0,28.189" transform="translate(289.036 151.033)" fill="#86c63a"/>
          <path id="Path_866" data-name="Path 866" d="M135.012.07S20.391-1.307,2.246,97.969,81.034,199.1,108.913,200.981c12.643.852,39.689.94,63.555.525,52.838-.916,90.174-11.144,102.878-60.164a93.181,93.181,0,0,0,2.853-17.556C281.559,70.059,245.191-2.576,135.012.07" transform="translate(31.979 54.702)" fill="#91d63f"/>
          <path id="Path_867" data-name="Path 867" d="M198.624,63.211,32.1,65.81A31.607,31.607,0,1,1,31.116,2.6L197.638,0a31.607,31.607,0,1,1,.986,63.207" transform="translate(51.148 142.769)" fill="#263238"/>
          <path id="Path_873" data-name="Path 873" d="M20.1,12.1A10.144,10.144,0,1,1,12.1.191a10.143,10.143,0,0,1,8,11.905" transform="translate(98.071 161.926)" fill="#fff"/>
          <path id="Path_883" data-name="Path 883" d="M20.1,12.1A10.144,10.144,0,1,1,12.1.191a10.143,10.143,0,0,1,8,11.905" transform="translate(214.406 160.07)" fill="#fff"/>
          <g id="Group_660" data-name="Group 660" transform="translate(156.773 0)">
            <rect id="Rectangle_245" data-name="Rectangle 245" width="9.594" height="48.511" transform="translate(11.015 16.781)" fill="#263238"/>
            <path id="Path_426" data-name="Path 426" d="M0,15.812A15.812,15.812,0,1,0,15.812,0,15.813,15.813,0,0,0,0,15.812" transform="translate(0 0)" fill="#86c63a"/>
          </g>
          <path id="Path_898" data-name="Path 898" d="M.01,64.6c-.17-.1,1.887-3.216,3.864-8.845A96.627,96.627,0,0,0,8.523,32.99,168.452,168.452,0,0,0,9.058,9.676c-.139-2.985-.279-5.4-.414-7.071A13.885,13.885,0,0,1,8.553,0,13.9,13.9,0,0,1,9,2.569c.245,1.66.486,4.077.709,7.069a142.023,142.023,0,0,1-.266,23.443,87.763,87.763,0,0,1-4.958,22.9A43.958,43.958,0,0,1,1.457,62.43,14.023,14.023,0,0,1,.01,64.6" transform="translate(299.939 151.033)" fill="#263238"/>
          <path id="Path_868" data-name="Path 868" d="M4.38,0A14.2,14.2,0,0,1,3.814,2.55c-.22.807-.479,1.8-.713,2.964s-.582,2.474-.8,3.954a88.131,88.131,0,0,0-1.256,10.41A94.964,94.964,0,0,0,1.224,32.7,94.973,94.973,0,0,0,3.3,45.363,88.04,88.04,0,0,0,6.372,55.391c.479,1.417,1.043,2.646,1.488,3.748s.865,2.037,1.224,2.794a14.062,14.062,0,0,1,1.006,2.408,13.9,13.9,0,0,1-1.331-2.249c-.411-.734-.89-1.647-1.374-2.74s-1.1-2.31-1.626-3.723a78.676,78.676,0,0,1-3.289-10.06A88.169,88.169,0,0,1,.3,32.785,88.312,88.312,0,0,1,.186,19.822,78.209,78.209,0,0,1,1.652,9.342c.264-1.485.65-2.794.945-3.952s.593-2.146.87-2.941A14.1,14.1,0,0,1,4.38,0" transform="translate(30.104 149.429)" fill="#263238"/>
          <path id="Path_869" data-name="Path 869" d="M115.067.025a1.427,1.427,0,0,1-.413.07L113.443.2c-1.063.111-2.64.145-4.656.386a125.73,125.73,0,0,0-16.915,2.8A122.791,122.791,0,0,0,7.713,72.849,125.52,125.52,0,0,0,1.751,88.925C1.131,90.857.8,92.4.49,93.42c-.136.468-.247.852-.338,1.17a1.451,1.451,0,0,1-.147.391,1.411,1.411,0,0,1,.054-.413c.068-.323.148-.715.248-1.192.252-1.04.527-2.6,1.1-4.552a113.982,113.982,0,0,1,5.71-16.243,120.791,120.791,0,0,1,12.6-22.214A119.061,119.061,0,0,1,67.527,10.914a120.749,120.749,0,0,1,24.2-8.161A113.749,113.749,0,0,1,108.757.229c2.026-.188,3.609-.163,4.677-.213L114.653,0a1.349,1.349,0,0,1,.414.025" transform="translate(37.414 62.174)" fill="#fff"/>
          <path id="Path_870" data-name="Path 870" d="M4.577,26.079a13.251,13.251,0,0,1-1.629-3.568A50.265,50.265,0,0,1,.617,13.34,50.36,50.36,0,0,1,.031,3.893,13.211,13.211,0,0,1,.492,0C.783.013.379,5.978,1.535,13.2,2.641,20.42,4.851,25.978,4.577,26.079" transform="translate(35.748 173.645)" fill="#fff"/>
          <path id="Path_871" data-name="Path 871" d="M5.241,30.314c-.045.037-.406-.289-.966-.963a17.274,17.274,0,0,1-2.021-3.123A20.7,20.7,0,0,1,.169,14.221,20.716,20.716,0,0,1,5.313,3.172,17.277,17.277,0,0,1,8.078.685C8.795.181,9.229-.04,9.261.006c.1.134-1.506,1.226-3.45,3.594a21.758,21.758,0,0,0-4.72,10.744,21.758,21.758,0,0,0,1.756,11.6c1.258,2.794,2.528,4.268,2.394,4.37" transform="translate(5.022 160.179)" fill="#fff"/>
          <path id="Path_899" data-name="Path 899" d="M15.111,7.411c-.195.211-2.975-2.442-7.173-4.452C3.759.906-.044.365,0,.081-.007-.148,3.993-.011,8.343,2.123c4.368,2.1,6.953,5.152,6.767,5.288" transform="translate(317.794 163.019)" fill="#fff"/>
          <path id="Path_875" data-name="Path 875" d="M97.978.464c0,.257-21.935.464-48.986.464S0,.722,0,.464,21.929,0,48.991,0,97.978.207,97.978.464" transform="translate(124.647 136.488)" fill="#fff"/>
          <path id="Path_876" data-name="Path 876" d="M78.827,18.568A2.894,2.894,0,0,1,78,18.7l-2.39.207c-1.036.087-2.31.171-3.789.195s-3.167.116-5.029.057a129.392,129.392,0,0,1-13.068-.784A144.209,144.209,0,0,1,37.916,15.65a144.655,144.655,0,0,1-15.362-4.613A130.05,130.05,0,0,1,10.505,5.907C8.814,5.126,7.342,4.3,6.032,3.609S3.617,2.287,2.727,1.744L.681.493A2.776,2.776,0,0,1,0,0,2.911,2.911,0,0,1,.774.333l2.13,1.1c.913.493,2.037,1.086,3.368,1.72s2.812,1.426,4.516,2.163c3.36,1.572,7.448,3.25,12.055,4.918a156.585,156.585,0,0,0,15.285,4.515,157.436,157.436,0,0,0,15.691,2.782c4.866.563,9.276.884,12.983.977,1.856.1,3.532.063,5.006.079s2.746,0,3.784-.036c.949-.012,1.738-.023,2.4-.03a2.859,2.859,0,0,1,.84.052" transform="translate(60.2 230.09)" fill="#fff"/>
          <rect id="Rectangle_377" data-name="Rectangle 377" width="78.624" height="7.371" rx="3" transform="translate(127.315 192.87)" fill="#fff"/>
        </g>
        <ellipse id="Ellipse_32" data-name="Ellipse 32" cx="102.58" cy="16.585" rx="102.58" ry="16.585" transform="translate(120.601 306.264)" fill="#68992d"/>
        <ellipse id="Ellipse_33" data-name="Ellipse 33" cx="27.641" cy="87.838" rx="27.641" ry="87.838" transform="translate(39.518 322.849) rotate(13)" fill="#93d840"/>
        <ellipse id="Ellipse_34" data-name="Ellipse 34" cx="27.641" cy="87.838" rx="27.641" ry="87.838" transform="matrix(0.899, -0.438, 0.438, 0.899, 352.977, 347.083)" fill="#93d840"/>
      </g>
    </g>
    <g id="Group_677" data-name="Group 677" transform="translate(13235.004 1704.274)">
      <path id="Path_897" data-name="Path 897" d="M242.842,337.278a54.261,54.261,0,1,1-50.161-58.072,54.261,54.261,0,0,1,50.161,58.072" transform="translate(-12053.412 -1317.778)" fill="#263238"/>
      <path id="Path_910" data-name="Path 910" d="M220.323,328.367a39.54,39.54,0,1,1-36.552-42.317,39.538,39.538,0,0,1,36.552,42.317" transform="translate(-12045.574 -1309.941)" fill="#fff"/>
      <path id="Path_901" data-name="Path 901" d="M195.732,388.332a7.647,7.647,0,0,1-1.5.154,38.977,38.977,0,0,1-4.32.124,56.5,56.5,0,0,1-15.68-2.545,64.993,64.993,0,0,1-10.214-4.108A66.365,66.365,0,0,1,153.4,375.1a57.583,57.583,0,0,1-22.194-51.113,66.391,66.391,0,0,1,2.239-12.444,65.088,65.088,0,0,1,3.973-10.267,56.53,56.53,0,0,1,8.845-13.193,39.008,39.008,0,0,1,3.041-3.071,7.518,7.518,0,0,1,1.136-.99c.083.086-1.424,1.516-3.849,4.345a60.091,60.091,0,0,0-8.464,13.25,66.145,66.145,0,0,0-3.792,10.175,66.871,66.871,0,0,0-2.106,12.273A57.179,57.179,0,0,0,154.039,374.3a66.811,66.811,0,0,0,10.4,6.837,66.052,66.052,0,0,0,10.025,4.179,60.011,60.011,0,0,0,15.459,2.861c3.723.16,5.8.036,5.8.156" transform="translate(-12057.364 -1312.132)" fill="#fff"/>
      <path id="Path_943" data-name="Path 943" d="M-1.124,49.128s5.051-2.962,7.005-3.993c.609-.321,1.208-.659,1.814-.986.312-.168.377-.3.054-.576A24.384,24.384,0,0,1,.55,33.361,23.882,23.882,0,0,1-.947,22.99,24.375,24.375,0,0,1,6.8,6.684,23.567,23.567,0,0,1,19.367.4,24.15,24.15,0,0,1,40.305,6.409a23.377,23.377,0,0,1,7.736,14.078,24.093,24.093,0,0,1-7.534,22.327,23.591,23.591,0,0,1-13.923,6.429M39.971,24.8a1.476,1.476,0,0,0-.553-1.132q-3.213-3.21-6.424-6.421a4.245,4.245,0,0,0-.7-.581A.813.813,0,0,0,31.2,16.8a.8.8,0,0,0-.131,1.049,2.835,2.835,0,0,0,.48.6q2.736,2.735,5.468,5.473c.656.658.652.974-.012,1.6-.829.778-1.672,1.543-2.49,2.332-1.142,1.1-2.278,2.206-3.393,3.334A.814.814,0,0,0,31,32.42a.981.981,0,0,0,1.332.239,2.605,2.605,0,0,0,.595-.481q2.112-2.1,4.225-4.2c.829-.824,1.662-1.645,2.489-2.472a.832.832,0,0,0,.332-.7m-24.4-8.34a1.217,1.217,0,0,0-.676.337c-.526.516-1.054,1.03-1.575,1.55q-2.552,2.545-5.1,5.1c-.987,1-.975,1.519.014,2.5.375.372.757.738,1.134,1.109,1.825,1.8,3.643,3.606,5.477,5.4a.917.917,0,0,0,1.331.127,1.016,1.016,0,0,0-.018-1.395,2.771,2.771,0,0,0-.226-.249c-1.754-1.735-3.5-3.475-5.265-5.2-.931-.91-.943-1.115-.01-2.052q2.627-2.64,5.25-5.284a2.2,2.2,0,0,0,.5-.694.994.994,0,0,0-.84-1.241m11.622-.23c-.51-.05-.8.289-1.017.767q-2.82,6.175-5.652,12.343c-.392.857-.791,1.713-1.143,2.587A.755.755,0,0,0,19.726,33a.9.9,0,0,0,1.241-.221,2.951,2.951,0,0,0,.364-.617q3.224-7.045,6.439-14.094a2.3,2.3,0,0,0,.273-1.059c-.022-.506-.272-.757-.849-.776" transform="translate(-11888.333 -1009.078)" fill="url(#linear-gradient-2)"/>
    </g>
    <g id="Group_678" data-name="Group 678">
      <ellipse id="Ellipse_37" data-name="Ellipse 37" cx="145.5" cy="77.5" rx="145.5" ry="77.5" transform="translate(1520 267)" fill="#144645"/>
      <path id="Polygon_1" data-name="Polygon 1" d="M40.8,0l40.8,65.866H0Z" transform="translate(1630 373.636) rotate(98)" fill="#144645"/>
    </g>
    <text id="Hi_" data-name="Hi!" transform="translate(1616 379)" fill="#fff" font-size="91" font-family="Poppins-SemiBold, Poppins" font-weight="600" letter-spacing="0.03em"><tspan x="0" y="0">Hi!</tspan></text>
  </g>
</svg>
