<svg xmlns="http://www.w3.org/2000/svg" width="59" height="58" viewBox="0 0 59 58">
  <g id="Group_825" data-name="Group 825" transform="translate(0.074 -0.3)">
    <ellipse id="Ellipse_15" data-name="Ellipse 15" cx="29.5" cy="29" rx="29.5" ry="29" transform="translate(-0.074 0.3)" fill="#59aca7"/>
    <path id="sparkles" d="M13.923,29.793,9.37,20.686.264,16.134,9.37,11.581l4.553-9.106,4.553,9.106,9.106,4.553-9.106,4.553ZM6.538,16.134,11.461,18.6l2.462,4.923L16.385,18.6l4.923-2.462-4.923-2.462L13.923,8.749l-2.462,4.923ZM25.146,29.462l2.1,4.209,2.1-4.209,4.209-2.1-4.209-2.1-2.1-4.209-2.1,4.209-4.209,2.1Zm1.87-22.914,1.637,3.273,1.637-3.273L33.564,4.91,30.291,3.273,28.654,0,27.016,3.273,23.743,4.91Z" transform="translate(12.281 12.093)" fill="#fff"/>
  </g>
</svg>
