<svg xmlns="http://www.w3.org/2000/svg" xmlns:xlink="http://www.w3.org/1999/xlink" width="640" height="661.78" viewBox="0 0 640 661.78">
  <defs>
    <clipPath id="clip-path">
      <rect id="Rectangle_238" data-name="Rectangle 238" width="640" height="606.437" fill="none"/>
    </clipPath>
    <linearGradient id="linear-gradient" x1="0.5" x2="0.5" y2="1.727" gradientUnits="objectBoundingBox">
      <stop offset="0" stop-color="#9ce644"/>
      <stop offset="1" stop-color="#4e7322"/>
    </linearGradient>
    <clipPath id="clip-path-4">
      <rect id="Rectangle_246" data-name="Rectangle 246" width="212.819" height="47.238" fill="none"/>
    </clipPath>
    <linearGradient id="linear-gradient-2" x1="0.5" x2="0.5" y2="1.132" gradientUnits="objectBoundingBox">
      <stop offset="0" stop-color="#a0ea47"/>
      <stop offset="1" stop-color="#4e9000"/>
    </linearGradient>
  </defs>
  <g id="Group_817" data-name="Group 817" transform="translate(-218.377 -2276.662)">
    <path id="Path_264" data-name="Path 264" d="M80.405,386.895,65.489,376.631s-8.617,12.525-21.788,3.793a14.651,14.651,0,0,1-6.388-15.747,16.223,16.223,0,0,1,9.375-11.35c5.4-2.431,13.554-2.407,22.389,6.281l23.141-33.635-14.75-10.149-13.555,19.7S39.546,326.64,23.86,349.439c-15.01,21.812,1.067,40.338,9.44,46.1,6.4,4.4,29.281,17.866,47.106-8.644" transform="translate(225.52 2404.154)" fill="#59aca7"/>
    <rect id="Rectangle_235" data-name="Rectangle 235" width="16.97" height="18.17" transform="translate(307.578 2712.929) rotate(-55.468)" fill="#59aca7"/>
    <path id="Path_265" data-name="Path 265" d="M107.906,401.376l7.921-2.089s-1.755-6.652,5.126-8.593a6.626,6.626,0,0,1,7.286,2.454,7.34,7.34,0,0,1,1.127,6.564c-.758,2.57-3.172,5.359-8.759,5.828l4.712,17.859,7.833-2.065-2.76-10.463s10.236-5.737,7.042-17.844c-3.056-11.583-14.152-11.533-18.6-10.361-3.4.9-14.765,4.775-10.93,18.71" transform="translate(261.621 2430.933)" fill="#59aca7"/>
    <rect id="Rectangle_236" data-name="Rectangle 236" width="8.221" height="7.678" transform="matrix(0.967, -0.255, 0.255, 0.967, 387.891, 2931.018)" fill="#59aca7"/>
    <path id="Path_266" data-name="Path 266" d="M211.951,44.9a52.614,52.614,0,0,1,12.834-5.578l2.645-12.7,21.464-.376,3.088,12.6A52.517,52.517,0,0,1,265,43.966l10.848-7.111L291.3,51.766l-6.724,11.089a52.549,52.549,0,0,1,5.578,12.837l12.7,2.645L303.23,99.8l-12.6,3.091A52.6,52.6,0,0,1,285.5,115.91l7.11,10.849L277.7,142.2l-11.089-6.724a52.574,52.574,0,0,1-12.837,5.577l-2.645,12.7-21.462.376-3.09-12.6a52.54,52.54,0,0,1-13.023-5.123L202.71,143.52l-15.443-14.911,6.724-11.089a52.624,52.624,0,0,1-5.578-12.835l-12.7-2.645-.378-21.462,12.6-3.091a52.692,52.692,0,0,1,5.123-13.022l-7.11-10.848,14.91-15.443Zm11.441,28.593a23.028,23.028,0,1,0,32.563-.573,23.027,23.027,0,0,0-32.563.573" transform="translate(289.156 2287.254)" fill="#f5f5f5"/>
    <path id="Path_267" data-name="Path 267" d="M143.448,10.747a30.233,30.233,0,0,1,7.392-3.213L152.363.216,164.725,0l1.78,7.257a30.26,30.26,0,0,1,7.5,2.952l6.248-4.1,8.9,8.589-3.873,6.387a30.241,30.241,0,0,1,3.213,7.393l7.316,1.523.218,12.362-7.258,1.78a30.328,30.328,0,0,1-2.952,7.5l4.095,6.249-8.586,8.9-6.388-3.874a30.219,30.219,0,0,1-7.393,3.213l-1.523,7.317-12.362.216-1.78-7.258a30.323,30.323,0,0,1-7.5-2.951l-6.248,4.095-8.9-8.588,3.873-6.387a30.251,30.251,0,0,1-3.213-7.395l-7.316-1.522L122.358,31.3l7.258-1.78a30.335,30.335,0,0,1,2.951-7.5l-4.095-6.249,8.588-8.9Zm6.59,16.468a13.264,13.264,0,1,0,18.755-.33,13.262,13.262,0,0,0-18.755.33" transform="translate(267.77 2276.662)" fill="#b6bdbf"/>
    <path id="Path_268" data-name="Path 268" d="M424.555,174.264a30.343,30.343,0,0,1,7.392-3.213l1.523-7.316,12.362-.218,1.78,7.258a30.278,30.278,0,0,1,7.5,2.951l6.248-4.1,8.9,8.591-3.873,6.385A30.226,30.226,0,0,1,469.6,192l7.317,1.522.216,12.364-7.258,1.778a30.27,30.27,0,0,1-2.951,7.5l4.095,6.248-8.586,8.9-6.388-3.874a30.277,30.277,0,0,1-7.393,3.214l-1.523,7.316-12.362.216-1.78-7.257a30.385,30.385,0,0,1-7.5-2.952l-6.248,4.094-8.9-8.588,3.873-6.387A30.252,30.252,0,0,1,411,208.7l-7.317-1.522-.216-12.362,7.258-1.778a30.363,30.363,0,0,1,2.951-7.5l-4.095-6.249,8.588-8.894Zm6.59,16.468A13.264,13.264,0,1,0,449.9,190.4a13.262,13.262,0,0,0-18.755.328" transform="translate(381.248 2342.67)" fill="#b6bdbf"/>
    <rect id="Rectangle_237" data-name="Rectangle 237" width="640" height="606.437" transform="translate(218.377 2276.662)" fill="none"/>
    <g id="Group_407" data-name="Group 407" transform="translate(218.377 2276.662)">
      <g id="Group_406" data-name="Group 406" clip-path="url(#clip-path)">
        <path id="Path_269" data-name="Path 269" d="M613.186,431.878c0,.2-133.1.365-297.256.365-164.211,0-297.286-.163-297.286-.365s133.075-.365,297.286-.365c164.154,0,297.256.163,297.256.365" transform="translate(7.526 174.194)" fill="#263238"/>
      </g>
    </g>
    <path id="Path_270" data-name="Path 270" d="M465.89,599.781l-199.345-.118a43.423,43.423,0,0,1-43.4-43.431l.1-499.761a43.423,43.423,0,0,1,43.448-43.416l199.345.117a43.425,43.425,0,0,1,43.4,43.433l-.1,499.763a43.422,43.422,0,0,1-43.448,43.414" transform="translate(308.457 2281.932)" fill="#455a64"/>
    <path id="Path_271" data-name="Path 271" d="M462.028,25.765l-38.649-.022a9.6,9.6,0,0,0-9.386,9.806l0,7.01a9.6,9.6,0,0,1-9.386,9.806l-75.337-.045a9.609,9.609,0,0,1-9.382-9.816V35.492a9.611,9.611,0,0,0-9.384-9.816l-13.593-.008-33.827-.02a30.41,30.41,0,0,0-30.429,30.405l-.1,487.8a30.41,30.41,0,0,0,30.392,30.419l198.948.116a30.414,30.414,0,0,0,30.429-30.405l.1-487.8a30.413,30.413,0,0,0-30.394-30.418" transform="translate(312.256 2287.015)" fill="#fff"/>
    <path id="Path_272" data-name="Path 272" d="M492.385,128.3V55.619a30.405,30.405,0,0,0-30.379-29.855l-38.65-.022a9.6,9.6,0,0,0-9.386,9.8l0,7.011a9.6,9.6,0,0,1-9.385,9.806l-75.337-.045a9.611,9.611,0,0,1-9.384-9.816l0-7.011a9.611,9.611,0,0,0-9.385-9.816l-13.592-.008-33.829-.02a30.412,30.412,0,0,0-30.429,30.405l-.014,72.454h259.77Z" transform="translate(312.279 2287.015)" fill="#ebebeb"/>
    <path id="Path_273" data-name="Path 273" d="M310.9,155.648a31.486,31.486,0,1,1-31.486-31.419A31.452,31.452,0,0,1,310.9,155.648" transform="translate(318.461 2326.811)" fill="#e0e0e0"/>
    <path id="Path_274" data-name="Path 274" d="M259.888,152.414l8.241-.7,20.134,3.391,2.377,15.147-.338,1.763a31.652,31.652,0,0,1-29.845.685Z" transform="translate(323.289 2337.906)" fill="#455a64"/>
    <path id="Path_275" data-name="Path 275" d="M277.035,153.992a10.77,10.77,0,0,1,10.442,4.59,58.572,58.572,0,0,1,3.741,5.947c-3.272,3.561-5.939,6.272-10.494,7.852Z" transform="translate(330.211 2338.779)" fill="#455a64"/>
    <path id="Path_276" data-name="Path 276" d="M262.81,152.214s-5.448.667-7.563,5.312-2.6,6.1-2.6,6.1c2.821,3.387,6.4,7.4,10.794,8.9,0,0,1-11.7,1.134-15.008.146-3.627.288-5.415-1.769-5.312" transform="translate(320.367 2338.106)" fill="#455a64"/>
    <path id="Path_277" data-name="Path 277" d="M264.271,132.662a14.912,14.912,0,0,1,11.538-5.731,16.016,16.016,0,0,1,5.594,1.009,8.273,8.273,0,0,1,4.716,3.113,13.817,13.817,0,0,1,2.713,6.318,38.548,38.548,0,0,1,.341,7.122,12.974,12.974,0,0,1-2.225,6.69l-6.053,1.049a38.15,38.15,0,0,1-9.987-.538,12.829,12.829,0,0,1-8.164-5.356c-2.423-3.956-1.416-10.088,1.526-13.676" transform="translate(323.893 2327.9)" fill="#263238"/>
    <path id="Path_278" data-name="Path 278" d="M259.271,144.614a4.5,4.5,0,0,1,2.049-3.4,3.255,3.255,0,0,1,3.819.33l.952,1.131a3.9,3.9,0,0,1,2.247,3.93,4.275,4.275,0,0,1-2.969,3.5,4.744,4.744,0,0,1-4.511-1.088,5.3,5.3,0,0,1-1.588-4.4" transform="translate(323.027 2333.48)" fill="#263238"/>
    <path id="Path_279" data-name="Path 279" d="M260.27,148.253a2.033,2.033,0,0,1-.326-1.2,5.449,5.449,0,0,1,1.385-2.715,8.184,8.184,0,0,1,2.424-1.94c.71-.38,1.2-.519,1.182-.568a3.286,3.286,0,0,0-1.273.38,7.307,7.307,0,0,0-2.56,1.936,7.18,7.18,0,0,0-.978,1.485,3.282,3.282,0,0,0-.39,1.415,1.689,1.689,0,0,0,.272.957c.136.2.253.264.264.251" transform="translate(323.227 2333.913)" fill="#455a64"/>
    <path id="Path_280" data-name="Path 280" d="M279.146,163.072s-.032-5.613-.032-5.6,4.933-.543,6.3-6.854c.678-3.139.8-8.339.769-12.6-.031-3.832-3.3-9.052-8.046-9.069l-2.105-.244-8.07,3.2a2.245,2.245,0,0,0-2.132,2.162l-.241,26.958,3.693,5.18a5.439,5.439,0,0,0,9.866-3.132" transform="translate(325.59 2328.617)" fill="#ffbe9d"/>
    <path id="Path_281" data-name="Path 281" d="M272.954,143.6a1.333,1.333,0,0,1,.466-.828,1.378,1.378,0,0,1,1.669-.1,1.839,1.839,0,0,1,.7,1.727,1.677,1.677,0,0,1-1.2.693,1.705,1.705,0,0,1-.225.007,1.5,1.5,0,0,1-1.013-.4,1.333,1.333,0,0,1-.4-1.1" transform="translate(328.559 2334.16)" fill="#eb996e"/>
    <path id="Path_282" data-name="Path 282" d="M278.656,138.7a.818.818,0,0,1-.834.78.783.783,0,0,1-.8-.782.821.821,0,0,1,.834-.782.785.785,0,0,1,.8.783" transform="translate(330.203 2332.335)" fill="#263238"/>
    <path id="Path_283" data-name="Path 283" d="M280.069,137.3c-.108.1-.7-.39-1.583-.437s-1.55.358-1.64.246c-.045-.051.07-.237.362-.427a2.255,2.255,0,0,1,1.319-.327,2.162,2.162,0,0,1,1.254.48c.26.222.34.42.288.465" transform="translate(330.131 2331.703)" fill="#263238"/>
    <path id="Path_284" data-name="Path 284" d="M275.2,143.878a5.774,5.774,0,0,1,1.443-.18c.226-.01.441-.044.487-.194a1.134,1.134,0,0,0-.112-.674q-.274-.832-.571-1.745a28.91,28.91,0,0,1-1.246-4.551,29.383,29.383,0,0,1,1.61,4.44c.189.612.371,1.195.543,1.753a1.3,1.3,0,0,1,.067.887.566.566,0,0,1-.387.307,1.48,1.48,0,0,1-.385.032,5.742,5.742,0,0,1-1.449-.077" transform="translate(329.465 2331.778)" fill="#263238"/>
    <path id="Path_285" data-name="Path 285" d="M277.644,149.986a16.288,16.288,0,0,1-8.421-2.743s2.034,4.538,8.453,4.292Z" transform="translate(327.059 2336.101)" fill="#eb996e"/>
    <path id="Path_286" data-name="Path 286" d="M273.376,142.1c.142,0,.091.953.873,1.675s1.8.672,1.8.807c.01.06-.237.173-.668.16a2.38,2.38,0,0,1-1.508-.619,2.064,2.064,0,0,1-.671-1.4c-.017-.4.1-.632.17-.622" transform="translate(328.664 2334.024)" fill="#263238"/>
    <path id="Path_287" data-name="Path 287" d="M279.951,134.907c-.16.206-.827.027-1.617.048-.793,0-1.456.194-1.618-.008-.072-.1.025-.3.31-.5a2.514,2.514,0,0,1,2.607-.032c.288.2.389.4.319.5" transform="translate(330.072 2330.78)" fill="#263238"/>
    <path id="Path_288" data-name="Path 288" d="M271.306,138.64a.819.819,0,0,0,.776.839.786.786,0,0,0,.858-.723.82.82,0,0,0-.775-.839.784.784,0,0,0-.859.723" transform="translate(327.898 2332.335)" fill="#263238"/>
    <path id="Path_289" data-name="Path 289" d="M270.546,137.038c.1.108.729-.34,1.61-.321s1.52.469,1.618.362c.048-.046-.053-.24-.331-.451a2.269,2.269,0,0,0-1.293-.423,2.18,2.18,0,0,0-1.284.389c-.274.2-.369.394-.32.444" transform="translate(327.586 2331.646)" fill="#263238"/>
    <path id="Path_290" data-name="Path 290" d="M270.189,135.708c.17.2.855.007,1.672.011.818-.021,1.509.161,1.672-.045.072-.1-.034-.3-.333-.5a2.53,2.53,0,0,0-1.355-.351,2.5,2.5,0,0,0-1.34.378c-.292.2-.39.406-.316.5" transform="translate(327.438 2331.088)" fill="#263238"/>
    <path id="Path_291" data-name="Path 291" d="M267.874,140.673c.025-.474-.463-1.623-.928-1.721-1.242-.264-3.506-.286-3.7,2.887-.267,4.34,4.154,3.713,4.169,3.588.013-.1.376-3.116.462-4.754" transform="translate(324.639 2332.71)" fill="#ffbe9d"/>
    <path id="Path_292" data-name="Path 292" d="M265.956,143.354c-.018-.015-.079.049-.211.1a.757.757,0,0,1-.567-.024,1.869,1.869,0,0,1-.764-1.731,2.5,2.5,0,0,1,.278-1.07.876.876,0,0,1,.606-.546.387.387,0,0,1,.434.234c.051.125.018.211.041.219s.1-.067.074-.248a.492.492,0,0,0-.154-.282.576.576,0,0,0-.413-.136,1.066,1.066,0,0,0-.832.625,2.576,2.576,0,0,0-.338,1.193,1.966,1.966,0,0,0,.991,1.941.814.814,0,0,0,.7-.072c.142-.1.17-.2.156-.2" transform="translate(324.992 2333.125)" fill="#eb996e"/>
    <path id="Path_293" data-name="Path 293" d="M266.416,143.255l1.1,1.144c4.771-4.558,14.1-15.968,13.575-15.289a13.928,13.928,0,0,0-6.816-.738c-3.547.6-10.276,2.375-10.174,6.551a21.748,21.748,0,0,0,2.31,8.332" transform="translate(324.99 2328.42)" fill="#263238"/>
    <path id="Path_294" data-name="Path 294" d="M261.249,142.327a1.144,1.144,0,0,1,.066-.251,4.57,4.57,0,0,1,.3-.684,6.314,6.314,0,0,1,1.816-2.041,11.908,11.908,0,0,1,3.659-1.756c1.456-.473,3.1-.841,4.705-1.53a21.309,21.309,0,0,0,4.3-2.4,22.21,22.21,0,0,0,3.033-2.645,23.833,23.833,0,0,0,1.753-2.077l.437-.6a1.25,1.25,0,0,1,.163-.2,1.049,1.049,0,0,1-.126.227c-.09.143-.219.358-.4.623a19.963,19.963,0,0,1-1.708,2.134,21.222,21.222,0,0,1-3.028,2.7,20.837,20.837,0,0,1-4.332,2.441,47.7,47.7,0,0,1-4.728,1.52,12.091,12.091,0,0,0-3.627,1.687,6.515,6.515,0,0,0-1.835,1.957c-.32.554-.417.9-.439.893" transform="translate(323.838 2328.39)" fill="#455a64"/>
    <path id="Path_295" data-name="Path 295" d="M262.152,142.743a2.292,2.292,0,0,1,.168-.949,4.449,4.449,0,0,1,1.634-2.042,9.861,9.861,0,0,1,3.63-1.419,21.519,21.519,0,0,0,4.509-1.429,19.023,19.023,0,0,0,4.02-2.476,19.545,19.545,0,0,0,2.757-2.7,20.6,20.6,0,0,0,1.536-2.107l.369-.608a1.061,1.061,0,0,1,.142-.2,1,1,0,0,1-.1.226c-.087.166-.2.375-.334.632a17.627,17.627,0,0,1-1.488,2.162,18.7,18.7,0,0,1-6.806,5.282,21.012,21.012,0,0,1-4.555,1.426,9.959,9.959,0,0,0-3.585,1.348,4.488,4.488,0,0,0-1.644,1.946,5.275,5.275,0,0,0-.25.918" transform="translate(324.201 2328.657)" fill="#455a64"/>
    <path id="Path_296" data-name="Path 296" d="M260.381,169.054a29.734,29.734,0,0,1-.146-4.149,29.717,29.717,0,0,1,.146-4.149,29.86,29.86,0,0,1,.145,4.149,29.877,29.877,0,0,1-.145,4.149" transform="translate(323.43 2341.556)" fill="#263238"/>
    <path id="Path_297" data-name="Path 297" d="M282.024,169.062a8.761,8.761,0,0,1,.049-1.474,16.548,16.548,0,0,0-.122-3.519,17.446,17.446,0,0,0-1.011-3.38,8.445,8.445,0,0,1-.508-1.388,6.748,6.748,0,0,1,.7,1.311,14.031,14.031,0,0,1,1.109,3.412,13.432,13.432,0,0,1,.039,3.579,6.5,6.5,0,0,1-.254,1.458" transform="translate(331.58 2340.969)" fill="#263238"/>
    <path id="Path_298" data-name="Path 298" d="M426.534,193.781h-107.3a9.647,9.647,0,0,1-9.647-9.648V139.077l-11.829-10.5H426.534a9.647,9.647,0,0,1,9.648,9.648v45.91a9.647,9.647,0,0,1-9.648,9.648" transform="translate(338.576 2328.565)" fill="#ebebeb"/>
    <path id="Path_299" data-name="Path 299" d="M390.844,180.335c0,.2-5.125.365-11.446.365s-11.448-.163-11.448-.365,5.125-.365,11.448-.365,11.446.163,11.446.365" transform="translate(366.912 2349.313)" fill="#e0e0e0"/>
    <path id="Path_300" data-name="Path 300" d="M388.372,182.407a.369.369,0,0,1-.254-.108L385.9,179.98a.351.351,0,1,1,.507-.486l1.965,2.058,4.3-4.378a.351.351,0,0,1,.5.491l-4.558,4.636a.355.355,0,0,1-.251.105" transform="translate(374.121 2348.141)" fill="#67982d"/>
    <path id="Path_301" data-name="Path 301" d="M390.106,182.355H390.1l-.407-.01a.352.352,0,0,1-.343-.361.371.371,0,0,1,.359-.341l.254.007,4.451-4.53a.352.352,0,0,1,.5.493l-4.558,4.636a.355.355,0,0,1-.251.105" transform="translate(375.549 2348.12)" fill="#67982d"/>
    <path id="Path_302" data-name="Path 302" d="M390.844,306.006c0,.2-5.125.365-11.446.365s-11.448-.163-11.448-.365,5.125-.365,11.448-.365,11.446.163,11.446.365" transform="translate(366.912 2400.043)" fill="#e0e0e0"/>
    <path id="Path_303" data-name="Path 303" d="M388.372,308.077h0a.349.349,0,0,1-.251-.108L385.9,305.65a.349.349,0,0,1,.011-.5.353.353,0,0,1,.5.011l1.965,2.056,4.3-4.378a.351.351,0,0,1,.5.49l-4.558,4.638a.355.355,0,0,1-.251.105" transform="translate(374.121 2398.872)" fill="#91d63f"/>
    <path id="Path_304" data-name="Path 304" d="M390.106,308.026h-.01l-.407-.011a.351.351,0,0,1-.341-.361.326.326,0,0,1,.361-.341l.254.007,4.45-4.528a.351.351,0,0,1,.5.491l-4.558,4.638a.355.355,0,0,1-.251.105" transform="translate(375.549 2398.851)" fill="#91d63f"/>
    <path id="Path_305" data-name="Path 305" d="M418.616,137.873c0,.2-23.427.365-52.319.365s-52.324-.163-52.324-.365,23.422-.365,52.324-.365,52.319.163,52.319.365" transform="translate(345.123 2332.171)" fill="#fff"/>
    <path id="Path_306" data-name="Path 306" d="M418.616,143.35c0,.2-23.427.365-52.319.365s-52.324-.163-52.324-.365,23.422-.365,52.324-.365,52.319.163,52.319.365" transform="translate(345.123 2334.382)" fill="#fff"/>
    <path id="Path_307" data-name="Path 307" d="M418.616,148.826c0,.2-23.427.365-52.319.365s-52.324-.163-52.324-.365,23.422-.365,52.324-.365,52.319.163,52.319.365" transform="translate(345.123 2336.593)" fill="#fff"/>
    <path id="Path_308" data-name="Path 308" d="M310.9,295.214a31.486,31.486,0,1,1-31.486-31.419A31.452,31.452,0,0,1,310.9,295.214" transform="translate(318.461 2383.151)" fill="#e0e0e0"/>
    <path id="Path_309" data-name="Path 309" d="M259.888,291.98l8.241-.7,20.134,3.391,2.377,15.146-.338,1.763a31.652,31.652,0,0,1-29.845.685Z" transform="translate(323.289 2394.247)" fill="#455a64"/>
    <path id="Path_310" data-name="Path 310" d="M277.035,293.558a10.77,10.77,0,0,1,10.442,4.59,58.568,58.568,0,0,1,3.741,5.947c-3.272,3.561-5.939,6.272-10.494,7.852Z" transform="translate(330.211 2395.12)" fill="#455a64"/>
    <path id="Path_311" data-name="Path 311" d="M262.81,291.78s-5.448.668-7.563,5.313-2.6,6.1-2.6,6.1c2.821,3.387,6.4,7.4,10.794,8.9,0,0,1-11.7,1.134-15.008.146-3.627.288-5.415-1.769-5.313" transform="translate(320.367 2394.446)" fill="#455a64"/>
    <path id="Path_312" data-name="Path 312" d="M264.271,272.228a14.912,14.912,0,0,1,11.538-5.731,16.016,16.016,0,0,1,5.594,1.009,8.273,8.273,0,0,1,4.716,3.113,13.817,13.817,0,0,1,2.713,6.318,38.549,38.549,0,0,1,.341,7.122,12.983,12.983,0,0,1-2.225,6.69L280.9,291.8a38.148,38.148,0,0,1-9.987-.538,12.829,12.829,0,0,1-8.164-5.356c-2.423-3.956-1.416-10.087,1.526-13.676" transform="translate(323.893 2384.24)" fill="#263238"/>
    <path id="Path_313" data-name="Path 313" d="M259.271,284.18a4.5,4.5,0,0,1,2.049-3.4,3.255,3.255,0,0,1,3.819.33l.952,1.131a3.9,3.9,0,0,1,2.247,3.93,4.275,4.275,0,0,1-2.969,3.5,4.747,4.747,0,0,1-4.511-1.088,5.3,5.3,0,0,1-1.588-4.4" transform="translate(323.027 2389.82)" fill="#263238"/>
    <path id="Path_314" data-name="Path 314" d="M260.27,287.82a2.033,2.033,0,0,1-.326-1.2,5.449,5.449,0,0,1,1.385-2.715,8.159,8.159,0,0,1,2.424-1.94c.71-.38,1.2-.519,1.182-.569a3.294,3.294,0,0,0-1.273.379,7.313,7.313,0,0,0-2.56,1.937,7.178,7.178,0,0,0-.978,1.485,3.282,3.282,0,0,0-.39,1.415,1.688,1.688,0,0,0,.272.957c.136.2.253.264.264.251" transform="translate(323.227 2390.253)" fill="#455a64"/>
    <path id="Path_315" data-name="Path 315" d="M279.166,303.006s-.032-5.612-.032-5.6,4.934-.543,6.3-6.854c.678-3.139.8-8.339.769-12.6-.031-3.832-3.3-9.052-8.044-9.068l-2.107-.246-8.068,3.2A2.246,2.246,0,0,0,265.848,274l-.242,26.958,3.694,5.18a5.438,5.438,0,0,0,9.865-3.132" transform="translate(325.598 2385.106)" fill="#ffbe9d"/>
    <path id="Path_316" data-name="Path 316" d="M272.954,283.162a1.333,1.333,0,0,1,.466-.828,1.378,1.378,0,0,1,1.669-.1,1.839,1.839,0,0,1,.7,1.727,1.677,1.677,0,0,1-1.2.693,1.708,1.708,0,0,1-.225.007,1.5,1.5,0,0,1-1.013-.4,1.333,1.333,0,0,1-.4-1.1" transform="translate(328.559 2390.5)" fill="#eb996e"/>
    <path id="Path_317" data-name="Path 317" d="M278.656,278.645a.818.818,0,0,1-.834.78.783.783,0,0,1-.8-.782.821.821,0,0,1,.834-.782.785.785,0,0,1,.8.783" transform="translate(330.203 2388.83)" fill="#263238"/>
    <path id="Path_318" data-name="Path 318" d="M280.069,277.243c-.108.1-.7-.39-1.583-.437s-1.55.358-1.64.246c-.045-.051.07-.237.362-.427a2.265,2.265,0,0,1,1.319-.328,2.171,2.171,0,0,1,1.254.482c.26.222.34.42.288.465" transform="translate(330.131 2388.196)" fill="#263238"/>
    <path id="Path_319" data-name="Path 319" d="M275.2,283.824a5.86,5.86,0,0,1,1.443-.18c.226-.01.441-.043.487-.194a1.134,1.134,0,0,0-.112-.674q-.274-.832-.571-1.745a28.911,28.911,0,0,1-1.246-4.551,29.384,29.384,0,0,1,1.61,4.44c.189.612.371,1.195.543,1.753a1.3,1.3,0,0,1,.067.887.566.566,0,0,1-.387.307,1.479,1.479,0,0,1-.385.032,5.742,5.742,0,0,1-1.449-.077" transform="translate(329.465 2388.272)" fill="#263238"/>
    <path id="Path_320" data-name="Path 320" d="M277.644,289.932a16.288,16.288,0,0,1-8.421-2.743s2.034,4.538,8.453,4.293Z" transform="translate(327.059 2392.595)" fill="#eb996e"/>
    <path id="Path_321" data-name="Path 321" d="M273.376,282.044c.142,0,.091.953.873,1.675s1.8.674,1.8.807c.01.06-.237.173-.668.16a2.38,2.38,0,0,1-1.508-.619,2.064,2.064,0,0,1-.671-1.4c-.017-.4.1-.632.17-.622" transform="translate(328.664 2390.518)" fill="#263238"/>
    <path id="Path_322" data-name="Path 322" d="M279.951,274.853c-.16.206-.827.025-1.617.048-.793,0-1.456.194-1.618-.008-.072-.1.025-.3.31-.5a2.514,2.514,0,0,1,2.607-.032c.288.2.389.4.319.5" transform="translate(330.072 2387.273)" fill="#263238"/>
    <path id="Path_323" data-name="Path 323" d="M271.306,278.586a.818.818,0,0,0,.776.839.785.785,0,0,0,.858-.723.82.82,0,0,0-.775-.839.784.784,0,0,0-.859.723" transform="translate(327.898 2388.829)" fill="#263238"/>
    <path id="Path_324" data-name="Path 324" d="M270.546,276.984c.1.108.729-.34,1.61-.321s1.52.469,1.618.362c.048-.046-.053-.24-.331-.451a2.268,2.268,0,0,0-1.293-.423,2.171,2.171,0,0,0-1.284.39c-.274.2-.369.393-.32.442" transform="translate(327.586 2388.139)" fill="#263238"/>
    <path id="Path_325" data-name="Path 325" d="M270.189,275.654c.17.2.855.007,1.672.011.818-.021,1.509.16,1.672-.045.072-.1-.034-.3-.333-.5a2.53,2.53,0,0,0-1.355-.351,2.5,2.5,0,0,0-1.34.378c-.292.2-.39.406-.316.5" transform="translate(327.438 2387.582)" fill="#263238"/>
    <path id="Path_326" data-name="Path 326" d="M267.874,280.239c.025-.474-.463-1.623-.928-1.721-1.242-.264-3.506-.286-3.7,2.887-.267,4.34,4.154,3.713,4.169,3.588.013-.1.376-3.116.462-4.754" transform="translate(324.639 2389.051)" fill="#ffbe9d"/>
    <path id="Path_327" data-name="Path 327" d="M265.956,282.921c-.018-.016-.079.049-.211.1a.764.764,0,0,1-.567-.024,1.87,1.87,0,0,1-.764-1.732,2.5,2.5,0,0,1,.278-1.068.876.876,0,0,1,.606-.546.387.387,0,0,1,.434.234c.051.125.018.211.041.219s.1-.067.074-.249a.492.492,0,0,0-.154-.282.577.577,0,0,0-.413-.136,1.066,1.066,0,0,0-.832.625,2.576,2.576,0,0,0-.338,1.193,1.966,1.966,0,0,0,.991,1.941.814.814,0,0,0,.7-.072c.142-.1.17-.2.156-.2" transform="translate(324.992 2389.465)" fill="#eb996e"/>
    <path id="Path_328" data-name="Path 328" d="M266.416,282.821l1.1,1.144c4.771-4.558,14.1-15.968,13.575-15.289a13.928,13.928,0,0,0-6.816-.738c-3.547.6-10.276,2.375-10.174,6.551a21.748,21.748,0,0,0,2.31,8.332" transform="translate(324.99 2384.761)" fill="#263238"/>
    <path id="Path_329" data-name="Path 329" d="M261.249,281.893a1.143,1.143,0,0,1,.066-.251,4.512,4.512,0,0,1,.3-.684,6.314,6.314,0,0,1,1.816-2.041,11.908,11.908,0,0,1,3.659-1.756c1.456-.473,3.1-.841,4.705-1.53a21.306,21.306,0,0,0,4.3-2.4,22.212,22.212,0,0,0,3.033-2.645,23.833,23.833,0,0,0,1.753-2.077c.178-.243.323-.442.437-.6a1.257,1.257,0,0,1,.163-.2,1.05,1.05,0,0,1-.126.227c-.09.143-.219.358-.4.623a19.965,19.965,0,0,1-1.708,2.134,21.223,21.223,0,0,1-3.028,2.7,20.835,20.835,0,0,1-4.332,2.441,47.681,47.681,0,0,1-4.728,1.52,12.092,12.092,0,0,0-3.627,1.687A6.515,6.515,0,0,0,261.689,281c-.32.554-.417.9-.439.893" transform="translate(323.838 2384.73)" fill="#455a64"/>
    <path id="Path_330" data-name="Path 330" d="M262.152,282.309a2.285,2.285,0,0,1,.168-.947,4.444,4.444,0,0,1,1.634-2.044,9.886,9.886,0,0,1,3.63-1.421,21.43,21.43,0,0,0,4.509-1.427,19.081,19.081,0,0,0,4.02-2.476,19.623,19.623,0,0,0,2.757-2.7,20.6,20.6,0,0,0,1.536-2.107l.369-.608a1.067,1.067,0,0,1,.142-.2,1,1,0,0,1-.1.226l-.334.632a17.63,17.63,0,0,1-1.488,2.162,18.743,18.743,0,0,1-6.806,5.282,21.007,21.007,0,0,1-4.555,1.426,9.959,9.959,0,0,0-3.585,1.348,4.488,4.488,0,0,0-1.644,1.945,5.274,5.274,0,0,0-.25.918" transform="translate(324.201 2384.998)" fill="#455a64"/>
    <path id="Path_331" data-name="Path 331" d="M260.381,308.62a59.023,59.023,0,0,1,0-8.3,59.619,59.619,0,0,1,0,8.3" transform="translate(323.43 2397.896)" fill="#263238"/>
    <path id="Path_332" data-name="Path 332" d="M282.024,308.628a8.76,8.76,0,0,1,.049-1.474,16.548,16.548,0,0,0-.122-3.519,17.445,17.445,0,0,0-1.011-3.38,8.446,8.446,0,0,1-.508-1.388,6.748,6.748,0,0,1,.7,1.311,14.032,14.032,0,0,1,1.109,3.412,13.433,13.433,0,0,1,.039,3.579,6.5,6.5,0,0,1-.254,1.458" transform="translate(331.58 2397.309)" fill="#263238"/>
    <path id="Path_333" data-name="Path 333" d="M426.534,311.931h-107.3a9.647,9.647,0,0,1-9.647-9.648V278.644l-11.829-10.5H426.534a9.647,9.647,0,0,1,9.648,9.648v24.493a9.647,9.647,0,0,1-9.648,9.648" transform="translate(338.576 2384.906)" fill="#ebebeb"/>
    <path id="Path_334" data-name="Path 334" d="M418.616,277.44c0,.2-23.427.365-52.319.365s-52.324-.163-52.324-.365,23.422-.365,52.324-.365,52.319.163,52.319.365" transform="translate(345.123 2388.512)" fill="#fff"/>
    <path id="Path_335" data-name="Path 335" d="M418.616,282.916c0,.2-23.427.365-52.319.365s-52.324-.163-52.324-.365,23.422-.365,52.324-.365,52.319.163,52.319.365" transform="translate(345.123 2390.723)" fill="#fff"/>
    <path id="Path_336" data-name="Path 336" d="M418.616,288.392c0,.2-23.427.366-52.319.366s-52.324-.163-52.324-.366,23.422-.365,52.324-.365,52.319.163,52.319.365" transform="translate(345.123 2392.933)" fill="#fff"/>
    <path id="Path_337" data-name="Path 337" d="M418.616,154.3c0,.2-23.427.365-52.319.365s-52.324-.163-52.324-.365,23.422-.364,52.324-.364,52.319.161,52.319.364" transform="translate(345.123 2338.804)" fill="#fff"/>
    <path id="Path_338" data-name="Path 338" d="M418.616,159.779c0,.2-23.427.365-52.319.365s-52.324-.163-52.324-.365,23.422-.365,52.324-.365,52.319.163,52.319.365" transform="translate(345.123 2341.014)" fill="#fff"/>
    <path id="Path_339" data-name="Path 339" d="M418.616,166.36c0,.2-23.427.365-52.319.365s-52.324-.163-52.324-.365,23.422-.365,52.324-.365,52.319.163,52.319.365" transform="translate(345.123 2343.671)" fill="#fff"/>
    <path id="Path_340" data-name="Path 340" d="M314.374,72.6a5.6,5.6,0,0,1,9.7-3.456l-1.51,1.394a3.273,3.273,0,0,0-2.555-1.19,3.252,3.252,0,1,0,0,6.5,3.238,3.238,0,0,0,2.555-1.2l1.51,1.394a5.588,5.588,0,0,1-9.7-3.442" transform="translate(345.285 2303.848)" fill="#263238"/>
    <path id="Path_341" data-name="Path 341" d="M330.283,73.339v4.474h-2.264V73.688c0-1.265-.581-1.844-1.583-1.844-1.091,0-1.874.668-1.874,2.106v3.863H322.3V67.036h2.264v3.776a3.435,3.435,0,0,1,2.483-.929c1.844,0,3.238,1.075,3.238,3.456" transform="translate(348.482 2303.723)" fill="#263238"/>
    <path id="Path_342" data-name="Path 342" d="M336.5,72.535v4.458h-2.118v-.974A2.566,2.566,0,0,1,332,77.11c-1.828,0-2.918-1.018-2.918-2.368,0-1.38.974-2.337,3.355-2.337h1.8c0-.974-.581-1.54-1.8-1.54a3.756,3.756,0,0,0-2.252.726l-.813-1.582a6.006,6.006,0,0,1,3.37-.945c2.381,0,3.759,1.1,3.759,3.471m-2.264,1.989v-.8h-1.555c-1.058,0-1.394.392-1.394.915,0,.566.48.943,1.279.943a1.67,1.67,0,0,0,1.67-1.06" transform="translate(351.221 2304.542)" fill="#263238"/>
    <path id="Path_343" data-name="Path 343" d="M341.13,77.078a3.244,3.244,0,0,1-1.846.494c-1.844,0-2.917-.945-2.917-2.8V71.56H335.16V69.817h1.207v-1.9h2.264v1.9h1.947V71.56h-1.947v3.181a.91.91,0,0,0,.973,1.03,1.519,1.519,0,0,0,.914-.291Z" transform="translate(353.674 2304.078)" fill="#263238"/>
    <path id="Path_344" data-name="Path 344" d="M398.682,82.351c0,.2-23.923.365-53.427.365s-53.433-.163-53.433-.365,23.919-.365,53.433-.365,53.427.163,53.427.365" transform="translate(336.18 2309.758)" fill="#263238"/>
    <path id="Path_345" data-name="Path 345" d="M404.884,70.033a2.488,2.488,0,1,1-2.487-2.487,2.487,2.487,0,0,1,2.487,2.487" transform="translate(379.813 2303.929)" fill="#263238"/>
    <path id="Path_346" data-name="Path 346" d="M404.884,75.2a2.488,2.488,0,1,1-2.487-2.487,2.487,2.487,0,0,1,2.487,2.487" transform="translate(379.813 2306.014)" fill="#263238"/>
    <path id="Path_347" data-name="Path 347" d="M404.884,80.365a2.488,2.488,0,1,1-2.487-2.487,2.487,2.487,0,0,1,2.487,2.487" transform="translate(379.813 2308.1)" fill="#263238"/>
    <path id="Path_348" data-name="Path 348" d="M259.835,78.474a.694.694,0,0,1-.416-.136l-6.587-4.831a.7.7,0,0,1,.006-1.136l6.587-4.74a.7.7,0,0,1,.82,1.14l-5.8,4.176,5.81,4.26a.7.7,0,0,1-.415,1.268" transform="translate(320.324 2303.91)" fill="#263238"/>
    <path id="Path_349" data-name="Path 349" d="M420.673,230.122A31.485,31.485,0,1,1,389.187,198.7a31.452,31.452,0,0,1,31.486,31.419" transform="translate(362.775 2356.875)" fill="#e0e0e0"/>
    <path id="Path_350" data-name="Path 350" d="M391.649,235.539H375.092a2.136,2.136,0,0,1,0-4.273h16.556a2.136,2.136,0,1,1,0,4.273" transform="translate(368.934 2370.02)" fill="#263238"/>
    <rect id="Rectangle_239" data-name="Rectangle 239" width="1.454" height="7.355" transform="translate(751.785 2566.563)" fill="#263238"/>
    <path id="Path_351" data-name="Path 351" d="M370.733,225.667a4.274,4.274,0,1,1-4.274-4.274,4.274,4.274,0,0,1,4.274,4.274" transform="translate(364.586 2366.034)" fill="#67982d"/>
    <path id="Path_352" data-name="Path 352" d="M401.471,225.467a4.274,4.274,0,1,1-4.274-4.274,4.274,4.274,0,0,1,4.274,4.274" transform="translate(376.992 2365.953)" fill="#67982d"/>
    <path id="Path_353" data-name="Path 353" d="M387.229,210.676s17.378-.209,20.129,14.843-11.945,15.332-16.172,15.617c-1.917.129-6.018.142-9.636.08-8.009-.139-13.67-1.69-15.6-9.123a14.074,14.074,0,0,1-.432-2.661c-.51-8.146,5-19.157,21.708-18.756" transform="translate(365.918 2361.704)" fill="#91d63f"/>
    <path id="Path_354" data-name="Path 354" d="M373.353,229.761l25.247.394a4.792,4.792,0,0,0,.149-9.583l-25.245-.394a4.792,4.792,0,1,0-.15,9.583" transform="translate(367.188 2365.543)" fill="#263238"/>
    <path id="Path_355" data-name="Path 355" d="M386.258,224.08a1.538,1.538,0,1,0,1.214-1.805,1.538,1.538,0,0,0-1.214,1.805" transform="translate(374.291 2366.378)" fill="#fff"/>
    <path id="Path_356" data-name="Path 356" d="M373.693,223.879a1.537,1.537,0,1,0,1.214-1.805,1.537,1.537,0,0,0-1.214,1.805" transform="translate(369.219 2366.297)" fill="#fff"/>
    <path id="Path_357" data-name="Path 357" d="M383.611,207.114a2.4,2.4,0,1,1-2.4-2.4,2.4,2.4,0,0,1,2.4,2.4" transform="translate(371.299 2359.302)" fill="#67982d"/>
    <path id="Path_358" data-name="Path 358" d="M384.793,223.048c.041-.007.109.119.153.368a2.4,2.4,0,0,1-.093,1.068,3.176,3.176,0,0,1-.844,1.367,2.907,2.907,0,0,1-3.744.342A3.194,3.194,0,0,1,379.19,225a2.417,2.417,0,0,1-.285-1.033c0-.253.042-.389.084-.389.109-.01.145.532.6,1.181a3.186,3.186,0,0,0,1,.915,2.478,2.478,0,0,0,3.005-.274,3.192,3.192,0,0,0,.817-1.082c.333-.72.27-1.259.379-1.27" transform="translate(371.334 2366.702)" fill="#fff"/>
    <path id="Path_359" data-name="Path 359" d="M395.538,220.9a2.228,2.228,0,0,1,.138.372c.041.121.088.269.131.446s.1.373.143.6a11.97,11.97,0,0,1,.22,1.589,13.2,13.2,0,0,1-.017,1.965,13.474,13.474,0,0,1-.328,1.937,12.021,12.021,0,0,1-.5,1.524c-.079.215-.171.4-.246.566s-.146.3-.208.415a2.217,2.217,0,0,1-.2.341,2.457,2.457,0,0,1,.154-.364c.055-.115.119-.256.187-.424s.153-.354.226-.568a13.413,13.413,0,0,0,.466-1.52,13.04,13.04,0,0,0,.342-3.864,13.042,13.042,0,0,0-.191-1.579c-.034-.225-.086-.423-.122-.6s-.076-.327-.109-.449a2.265,2.265,0,0,1-.087-.386" transform="translate(377.699 2365.834)" fill="#263238"/>
    <path id="Path_360" data-name="Path 360" d="M366.15,220.963a2,2,0,0,0-.139.373c-.041.119-.088.268-.131.444s-.1.376-.143.6a11.97,11.97,0,0,0-.22,1.589,13.217,13.217,0,0,0,.017,1.965,13.469,13.469,0,0,0,.328,1.937,12.252,12.252,0,0,0,.5,1.524c.079.215.171.4.246.566s.146.3.209.415a2.169,2.169,0,0,0,.2.341,2.533,2.533,0,0,0-.154-.364c-.055-.115-.118-.255-.187-.424s-.153-.354-.226-.569a13.414,13.414,0,0,1-.466-1.52,13.04,13.04,0,0,1-.342-3.864,13.058,13.058,0,0,1,.191-1.579c.035-.223.086-.422.122-.6s.076-.326.109-.449a2.591,2.591,0,0,0,.088-.386" transform="translate(365.918 2365.86)" fill="#263238"/>
    <path id="Path_361" data-name="Path 361" d="M368.636,241.756s5.157-5.045,15.961-5.045,16.321,5.045,16.321,5.045a31.268,31.268,0,0,1-32.282,0" transform="translate(367.189 2372.218)" fill="#91d63f"/>
    <path id="Path_362" data-name="Path 362" d="M260.167,258.655h107.3a9.647,9.647,0,0,0,9.648-9.648V217.873l11.829-10.5H260.167a9.648,9.648,0,0,0-9.647,9.649v31.987a9.647,9.647,0,0,0,9.647,9.648" transform="translate(319.508 2360.374)" fill="#ebebeb"/>
    <path id="Path_363" data-name="Path 363" d="M358.836,218.32c0,.2-22.1.365-49.356.365s-49.36-.163-49.36-.365,22.1-.365,49.36-.365,49.356.163,49.356.365" transform="translate(323.383 2364.646)" fill="#fff"/>
    <path id="Path_364" data-name="Path 364" d="M358.836,224.258c0,.2-22.1.365-49.356.365s-49.36-.163-49.36-.365,22.1-.365,49.36-.365,49.356.163,49.356.365" transform="translate(323.383 2367.043)" fill="#fff"/>
    <path id="Path_365" data-name="Path 365" d="M358.836,230.2c0,.2-22.1.365-49.356.365s-49.36-.163-49.36-.365,22.1-.365,49.36-.365,49.356.163,49.356.365" transform="translate(323.383 2369.44)" fill="#fff"/>
    <path id="Path_366" data-name="Path 366" d="M358.836,236.134c0,.2-22.1.365-49.356.365s-49.36-.163-49.36-.365,22.1-.365,49.36-.365,49.356.163,49.356.365" transform="translate(323.383 2371.837)" fill="#fff"/>
    <path id="Path_367" data-name="Path 367" d="M420.673,354.4a31.485,31.485,0,1,1-31.486-31.419A31.452,31.452,0,0,1,420.673,354.4" transform="translate(362.775 2407.043)" fill="#e0e0e0"/>
    <path id="Path_368" data-name="Path 368" d="M391.649,359.817H375.092a2.136,2.136,0,1,1,0-4.273h16.556a2.136,2.136,0,1,1,0,4.273" transform="translate(368.934 2420.188)" fill="#263238"/>
    <rect id="Rectangle_240" data-name="Rectangle 240" width="1.454" height="7.355" transform="translate(751.785 2741.011)" fill="#263238"/>
    <path id="Path_369" data-name="Path 369" d="M370.733,349.945a4.274,4.274,0,1,1-4.274-4.274,4.274,4.274,0,0,1,4.274,4.274" transform="translate(364.586 2416.203)" fill="#67982d"/>
    <path id="Path_370" data-name="Path 370" d="M401.471,349.745a4.274,4.274,0,1,1-4.274-4.274,4.274,4.274,0,0,1,4.274,4.274" transform="translate(376.992 2416.122)" fill="#67982d"/>
    <path id="Path_371" data-name="Path 371" d="M387.229,334.954s17.378-.209,20.129,14.842-11.945,15.332-16.172,15.617c-1.917.129-6.018.142-9.636.08-8.009-.14-13.67-1.69-15.6-9.122a14.074,14.074,0,0,1-.432-2.661c-.51-8.146,5-19.157,21.708-18.756" transform="translate(365.918 2411.872)" fill="#91d63f"/>
    <path id="Path_372" data-name="Path 372" d="M373.353,354.039l25.247.394a4.792,4.792,0,0,0,.149-9.583l-25.245-.394a4.792,4.792,0,1,0-.15,9.583" transform="translate(367.188 2415.712)" fill="#263238"/>
    <path id="Path_373" data-name="Path 373" d="M386.258,348.358a1.538,1.538,0,1,0,1.214-1.805,1.538,1.538,0,0,0-1.214,1.805" transform="translate(374.291 2416.547)" fill="#fff"/>
    <path id="Path_374" data-name="Path 374" d="M373.693,348.158a1.538,1.538,0,1,0,1.214-1.805,1.538,1.538,0,0,0-1.214,1.805" transform="translate(369.219 2416.467)" fill="#fff"/>
    <path id="Path_375" data-name="Path 375" d="M383.611,331.393a2.4,2.4,0,1,1-2.4-2.4,2.4,2.4,0,0,1,2.4,2.4" transform="translate(371.299 2409.472)" fill="#67982d"/>
    <path id="Path_376" data-name="Path 376" d="M384.793,347.326c.041-.007.109.118.153.368a2.4,2.4,0,0,1-.093,1.067,3.18,3.18,0,0,1-.844,1.369,2.907,2.907,0,0,1-3.744.342,3.2,3.2,0,0,1-1.077-1.193,2.417,2.417,0,0,1-.285-1.033c0-.253.042-.389.084-.389.109-.01.145.532.6,1.179a3.173,3.173,0,0,0,1,.917,2.475,2.475,0,0,0,3.005-.275,3.188,3.188,0,0,0,.817-1.081c.333-.721.27-1.259.379-1.27" transform="translate(371.334 2416.871)" fill="#fff"/>
    <path id="Path_377" data-name="Path 377" d="M395.538,345.175a2.232,2.232,0,0,1,.138.372c.041.121.088.27.131.445s.1.375.143.6a11.97,11.97,0,0,1,.22,1.589,13.2,13.2,0,0,1-.017,1.965,13.475,13.475,0,0,1-.328,1.937,12.024,12.024,0,0,1-.5,1.524c-.079.215-.171.4-.246.566s-.146.3-.208.416a2.216,2.216,0,0,1-.2.341,2.458,2.458,0,0,1,.154-.364c.055-.115.119-.255.187-.424s.153-.354.226-.568a13.413,13.413,0,0,0,.466-1.52,13.04,13.04,0,0,0,.342-3.864,13.045,13.045,0,0,0-.191-1.579c-.034-.225-.086-.422-.122-.6s-.076-.327-.109-.449a2.266,2.266,0,0,1-.087-.386" transform="translate(377.699 2416.002)" fill="#263238"/>
    <path id="Path_378" data-name="Path 378" d="M366.15,345.241a2,2,0,0,0-.139.373c-.041.119-.088.268-.131.445s-.1.373-.143.6a11.97,11.97,0,0,0-.22,1.589,13.217,13.217,0,0,0,.017,1.965,13.466,13.466,0,0,0,.328,1.937,12.25,12.25,0,0,0,.5,1.524c.079.215.171.4.246.566a4.524,4.524,0,0,0,.209.416,2.167,2.167,0,0,0,.2.341,2.532,2.532,0,0,0-.154-.363c-.055-.115-.118-.256-.187-.424s-.153-.354-.226-.568a13.323,13.323,0,0,1-.466-1.52,13.04,13.04,0,0,1-.342-3.864,13.054,13.054,0,0,1,.191-1.579c.035-.223.086-.423.122-.6s.076-.326.109-.449a2.592,2.592,0,0,0,.088-.386" transform="translate(365.918 2416.029)" fill="#263238"/>
    <path id="Path_379" data-name="Path 379" d="M368.636,366.034s5.157-5.045,15.961-5.045,16.321,5.045,16.321,5.045a31.268,31.268,0,0,1-32.282,0" transform="translate(367.189 2422.386)" fill="#91d63f"/>
    <path id="Path_380" data-name="Path 380" d="M260.167,382.932h107.3a9.647,9.647,0,0,0,9.648-9.647V342.15l11.829-10.5H260.167a9.648,9.648,0,0,0-9.647,9.649v31.987a9.647,9.647,0,0,0,9.647,9.647" transform="translate(319.508 2410.542)" fill="#ebebeb"/>
    <path id="Path_381" data-name="Path 381" d="M260.167,411.628h107.3a9.647,9.647,0,0,0,9.648-9.648V391.664l11.829-10.5H260.167a9.647,9.647,0,0,0-9.647,9.648v11.17a9.647,9.647,0,0,0,9.647,9.648" transform="translate(319.508 2430.53)" fill="#ebebeb"/>
    <path id="Path_382" data-name="Path 382" d="M358.836,342.6c0,.2-22.1.365-49.356.365s-49.36-.163-49.36-.365,22.1-.365,49.36-.365,49.356.163,49.356.365" transform="translate(323.383 2414.815)" fill="#fff"/>
    <path id="Path_383" data-name="Path 383" d="M358.836,348.536c0,.2-22.1.365-49.356.365s-49.36-.163-49.36-.365,22.1-.365,49.36-.365,49.356.163,49.356.365" transform="translate(323.383 2417.212)" fill="#fff"/>
    <path id="Path_384" data-name="Path 384" d="M358.836,354.474c0,.2-22.1.365-49.356.365s-49.36-.163-49.36-.365,22.1-.365,49.36-.365,49.356.163,49.356.365" transform="translate(323.383 2419.609)" fill="#fff"/>
    <path id="Path_385" data-name="Path 385" d="M358.836,360.412c0,.2-22.1.365-49.356.365s-49.36-.163-49.36-.365,22.1-.365,49.36-.365,49.356.163,49.356.365" transform="translate(323.383 2422.006)" fill="#fff"/>
    <path id="Path_386" data-name="Path 386" d="M358.755,392.435c0,.2-21.868.365-48.837.365s-48.841-.163-48.841-.365,21.864-.365,48.841-.365,48.837.163,48.837.365" transform="translate(323.77 2507.933)" fill="#fff"/>
    <rect id="Rectangle_241" data-name="Rectangle 241" width="640" height="606.437" transform="translate(218.377 2276.662)" fill="none"/>
    <g id="Group_411" data-name="Group 411" transform="translate(218.377 2276.662)">
      <g id="Group_410" data-name="Group 410" clip-path="url(#clip-path)">
        <path id="Path_387" data-name="Path 387" d="M76.592,377.853a14.456,14.456,0,0,1,9.083,6.753,25.506,25.506,0,0,1,3.349,11.039c.716,7.472-1.874,15.714-5.105,22.49-7.279-4.065-10.671-13.122-12.1-17.824-2.264-7.432-1.84-22.238,4.774-22.457" transform="translate(28.491 152.532)" fill="#455a64"/>
        <path id="Path_388" data-name="Path 388" d="M87.28,419.4a12.329,12.329,0,0,1,1.474-12.293,16.375,16.375,0,0,1,11.037-6.189c1.986-.264,4.219-.14,5.679,1.232a5.275,5.275,0,0,1,1.185,5.212A10.682,10.682,0,0,1,103.59,412c-4.618,4.466-9.907,7.941-16.309,7.406" transform="translate(34.819 161.799)" fill="#455a64"/>
        <path id="Path_389" data-name="Path 389" d="M84.807,441.116a8.6,8.6,0,0,1-.1-1.544c-.029-1.095-.067-2.51-.112-4.21-.036-3.529-.191-8.565,1.446-13.831a26.479,26.479,0,0,1,7.2-11.836,17.878,17.878,0,0,1,3.435-2.476,10.711,10.711,0,0,1,1.032-.508c.24-.107.371-.154.379-.136a28,28,0,0,0-4.583,3.4,27.34,27.34,0,0,0-6.947,11.716c-1.606,5.157-1.52,10.136-1.581,13.668-.014,1.776-.025,3.216-.06,4.211a8.117,8.117,0,0,1-.114,1.544" transform="translate(34.141 164.125)" fill="#263238"/>
        <path id="Path_390" data-name="Path 390" d="M75.344,385.906a3.152,3.152,0,0,1,.213.639l.51,1.857c.432,1.616,1.029,3.961,1.741,6.864,1.425,5.807,3.282,13.859,5.13,22.793s3.338,17.066,4.333,22.961c.5,2.948.882,5.337,1.124,6.992.111.782.2,1.414.27,1.906a3.117,3.117,0,0,1,.058.671,3.215,3.215,0,0,1-.166-.653c-.1-.488-.218-1.115-.369-1.889l-1.3-6.959c-1.092-5.876-2.64-13.986-4.486-22.919s-3.644-16.987-4.973-22.814c-.653-2.864-1.185-5.206-1.572-6.9-.167-.772-.3-1.4-.41-1.881a3.2,3.2,0,0,1-.107-.665" transform="translate(30.413 155.783)" fill="#263238"/>
        <path id="Path_391" data-name="Path 391" d="M87.813,423.927A28.851,28.851,0,0,0,68.033,406.51c-2.261-.549-5.079-.625-6.443,1.259s-.408,4.552.867,6.5A24.646,24.646,0,0,0,87.8,424.557" transform="translate(24.593 163.963)" fill="#455a64"/>
        <path id="Path_392" data-name="Path 392" d="M67.74,411.2a7.356,7.356,0,0,1,1.425.293,13.974,13.974,0,0,1,1.639.473c.625.229,1.363.424,2.124.78a25.433,25.433,0,0,1,2.487,1.162,28.634,28.634,0,0,1,2.723,1.592,32.125,32.125,0,0,1,5.518,4.659,31.433,31.433,0,0,1,4.225,5.86,27.413,27.413,0,0,1,1.357,2.848,23.675,23.675,0,0,1,.931,2.584,21.749,21.749,0,0,1,.57,2.191,12.964,12.964,0,0,1,.3,1.68,7.293,7.293,0,0,1,.14,1.447c-.121.02-.34-2.049-1.38-5.2a25.089,25.089,0,0,0-.98-2.525,29.163,29.163,0,0,0-1.38-2.782,32.684,32.684,0,0,0-4.186-5.733,33.447,33.447,0,0,0-5.4-4.612A29.66,29.66,0,0,0,75.2,414.3c-.841-.5-1.676-.855-2.427-1.206-3.04-1.335-5.069-1.785-5.036-1.9" transform="translate(27.345 165.989)" fill="#263238"/>
      </g>
    </g>
    <g id="Group_412" data-name="Group 412" transform="translate(218.377 2276.662)" clip-path="url(#clip-path)">
      <path id="Path_393" data-name="Path 393" d="M130.985,147.478l-5.2-16.206a56.369,56.369,0,1,0-13.5,15.019l-.02.025Z" transform="translate(8.709 18.378)" fill="#fafafa"/>
      <path id="Path_394" data-name="Path 394" d="M131.083,147.57s-.385-.008-1.178-.048l-3.556-.185-13.992-.771a.158.158,0,0,1-.15-.166.179.179,0,0,1,.034-.09l.02-.024.222.222a56.333,56.333,0,0,1-25.405,11.159,54.994,54.994,0,0,1-8.71.752,62.464,62.464,0,0,1-9.336-.744,56.2,56.2,0,0,1-36.07-21.52,56.869,56.869,0,0,1-10.244-21.9,55.767,55.767,0,0,1,.225-25.649q.413-1.609.828-3.224c.316-1.065.747-2.1,1.116-3.153A30.014,30.014,0,0,1,26.117,79.1q.731-1.52,1.467-3.047a24.539,24.539,0,0,1,1.655-2.965l1.778-2.917,2.054-2.747L34.1,66.051c.351-.453.762-.859,1.143-1.291A56.1,56.1,0,0,1,57.61,49.082a57.586,57.586,0,0,1,25.843-3.534,56.229,56.229,0,0,1,23.308,7.685,56.563,56.563,0,0,1,25.7,33.826,61.974,61.974,0,0,1,1.734,9.273,73.651,73.651,0,0,1,.163,8.784,56.039,56.039,0,0,1-8.343,26.329l.015-.126,3.791,12.132q.623,2.019.956,3.092c.211.689.3,1.027.3,1.027s-.135-.371-.369-1.074c-.24-.721-.584-1.756-1.033-3.111l-3.937-11.975a.153.153,0,0,1,.015-.126,56.082,56.082,0,0,0,8.126-26.2,73.738,73.738,0,0,0-.2-8.707,61.662,61.662,0,0,0-1.752-9.179A56.12,56.12,0,0,0,83.386,46.243,56.931,56.931,0,0,0,57.87,49.757,55.417,55.417,0,0,0,35.8,65.239c-.375.427-.782.827-1.13,1.275l-1.016,1.36-2.03,2.712-1.755,2.879a24.194,24.194,0,0,0-1.634,2.925L26.782,79.4a29.853,29.853,0,0,0-1.214,3.088c-.366,1.04-.792,2.061-1.1,3.111q-.411,1.6-.818,3.182a55.119,55.119,0,0,0-.244,25.328,56.222,56.222,0,0,0,26.718,36.3,55.69,55.69,0,0,0,19,6.722,61.885,61.885,0,0,0,9.245.771A54.663,54.663,0,0,0,87,157.189a56.362,56.362,0,0,0,25.29-10.93.159.159,0,0,1,.223.027.162.162,0,0,1,0,.2l-.02.025-.115-.255,13.87.959,3.595.258c.811.06,1.241.1,1.241.1" transform="translate(8.611 18.287)" fill="#263238"/>
      <path id="Path_395" data-name="Path 395" d="M53.654,87.248a5.716,5.716,0,1,1-5.716-5.717,5.717,5.717,0,0,1,5.716,5.717" transform="translate(17.044 32.913)" fill="#263238"/>
      <path id="Path_396" data-name="Path 396" d="M69.953,87.248a5.717,5.717,0,1,1-5.717-5.717,5.718,5.718,0,0,1,5.717,5.717" transform="translate(23.623 32.913)" fill="#263238"/>
      <path id="Path_397" data-name="Path 397" d="M85.99,84.39A5.717,5.717,0,1,1,78.18,82.3a5.717,5.717,0,0,1,7.81,2.093" transform="translate(30.406 32.913)" fill="#263238"/>
    </g>
    <path id="Path_398" data-name="Path 398" d="M114.338,283.624l-59.188-6.182L30.175,220.607,10.72,225.683s14.379,60.057,30.451,69.36,71.052,11,71.052,11Z" transform="translate(222.705 2365.717)" fill="#72a932"/>
    <path id="Path_399" data-name="Path 399" d="M74.3,281.177a26.222,26.222,0,1,0,26.222-26.222A26.223,26.223,0,0,0,74.3,281.177" transform="translate(248.367 2379.582)" fill="#263238"/>
    <path id="Path_400" data-name="Path 400" d="M100.527,307.445a26.256,26.256,0,1,1,18.567-7.691,26.084,26.084,0,0,1-18.567,7.691m0-52.443a26.189,26.189,0,1,0,18.516,7.67A26.015,26.015,0,0,0,100.527,255" transform="translate(248.359 2379.572)" fill="#263238"/>
    <path id="Path_401" data-name="Path 401" d="M21.36,268.881a19.666,19.666,0,1,0,19.666-19.667A19.666,19.666,0,0,0,21.36,268.881" transform="translate(227 2377.265)" fill="#263238"/>
    <g id="Group_629" data-name="Group 629" transform="translate(-6 -1188)">
      <path id="Path_402" data-name="Path 402" d="M5.191,220.417a16.069,16.069,0,1,0,16.068-16.068A16.068,16.068,0,0,0,5.191,220.417" transform="translate(226.85 3550.152)" fill="#263238"/>
      <path id="Path_403" data-name="Path 403" d="M26.448,222.615l13.21-11.157a3.444,3.444,0,0,0,.41-4.852l-.326-.386a3.444,3.444,0,0,0-4.853-.409L21.678,216.968Z" transform="translate(235.721 3543.585)" fill="#263238"/>
      <path id="Path_404" data-name="Path 404" d="M24.637,212.8V196.006a3.444,3.444,0,0,0-3.445-3.445h-.5a3.444,3.444,0,0,0-3.443,3.445V212.8a.5.5,0,0,0,.5.5h6.4a.5.5,0,0,0,.5-.5" transform="translate(231.715 3545.393)" fill="#263238"/>
      <path id="Path_405" data-name="Path 405" d="M19.788,212.225l-3.666-16.389a3.444,3.444,0,0,0-4.113-2.608l-.491.11a3.444,3.444,0,0,0-2.609,4.113l3.666,16.389a.5.5,0,0,0,.594.376l6.244-1.4a.5.5,0,0,0,.376-.594" transform="translate(228.316 3545.628)" fill="#263238"/>
      <path id="Path_406" data-name="Path 406" d="M15.261,213.025l-8.4-14.544a3.446,3.446,0,0,0-4.705-1.262l-.437.254a3.443,3.443,0,0,0-1.261,4.7l8.4,14.545a.5.5,0,0,0,.679.181l5.54-3.2a.5.5,0,0,0,.182-.678" transform="translate(224.377 3551.825)" fill="#263238"/>
    </g>
    <rect id="Rectangle_244" data-name="Rectangle 244" width="19.227" height="130.468" transform="matrix(0.92, -0.391, 0.391, 0.92, 542.941, 2676.459)" fill="#72a932"/>
    <path id="Path_407" data-name="Path 407" d="M263.982,290.857A26.222,26.222,0,1,0,231.2,308.185a26.222,26.222,0,0,0,32.786-17.328" transform="translate(304.238 2380.367)" fill="#263238"/>
    <path id="Path_408" data-name="Path 408" d="M238.97,309.41a26.3,26.3,0,1,1,12.237-3.056,26.271,26.271,0,0,1-12.237,3.056m-.066-52.468a26.192,26.192,0,1,0,25.059,33.916l.032.011-.032-.011A26.224,26.224,0,0,0,238.9,256.941" transform="translate(304.227 2380.355)" fill="#263238"/>
    <path id="Path_409" data-name="Path 409" d="M280.165,339.115a19.666,19.666,0,1,0-24.59,13,19.667,19.667,0,0,0,24.59-13" transform="translate(315.947 2403.275)" fill="#263238"/>
    <path id="Path_410" data-name="Path 410" d="M296.693,370.793a16.069,16.069,0,1,0-10.154,20.33,16.068,16.068,0,0,0,10.154-20.33" transform="translate(325.504 2421.91)" fill="#263238"/>
    <path id="Path_411" data-name="Path 411" d="M271,372.267l-9,14.765a3.445,3.445,0,0,0,1.15,4.733l.43.261a3.443,3.443,0,0,0,4.733-1.148l9-14.765Z" transform="translate(323.941 2426.939)" fill="#263238"/>
    <path id="Path_412" data-name="Path 412" d="M274.058,382.252l5.317,15.93a3.444,3.444,0,0,0,4.357,2.176l.479-.159a3.444,3.444,0,0,0,2.176-4.357l-5.317-15.93a.5.5,0,0,0-.629-.314l-6.07,2.027a.5.5,0,0,0-.313.627" transform="translate(329 2429.888)" fill="#263238"/>
    <path id="Path_413" data-name="Path 413" d="M279.721,381.016l8.666,14.385a3.443,3.443,0,0,0,4.728,1.172l.432-.26a3.445,3.445,0,0,0,1.172-4.728L286.054,377.2a.5.5,0,0,0-.682-.168l-5.481,3.3a.5.5,0,0,0-.169.682" transform="translate(331.268 2428.834)" fill="#263238"/>
    <path id="Path_414" data-name="Path 414" d="M284.706,378.125l12.57,11.137a3.443,3.443,0,0,0,4.861-.293l.335-.378a3.444,3.444,0,0,0-.295-4.861l-12.57-11.137a.5.5,0,0,0-.7.042l-4.243,4.789a.5.5,0,0,0,.042.7" transform="translate(333.24 2427.02)" fill="#263238"/>
    <path id="Path_415" data-name="Path 415" d="M87.387,261.8s1.892,184.069,105.191,187.669S300.2,263.116,300.2,261.8c0,0-12.2-27.452-106.409-26.377S87.387,261.8,87.387,261.8" transform="translate(253.654 2371.685)" fill="url(#linear-gradient)"/>
    <path id="Path_416" data-name="Path 416" d="M131.7,237.484h87.315a10.316,10.316,0,0,0,10.316-10.317v-1.509a10.316,10.316,0,0,0-10.316-10.317H131.7a10.318,10.318,0,0,0-10.317,10.317v1.509A10.318,10.318,0,0,0,131.7,237.484" transform="translate(267.379 2363.591)" fill="#263238"/>
    <path id="Path_417" data-name="Path 417" d="M222.547,186.327A22.149,22.149,0,1,0,244.7,164.178a22.149,22.149,0,0,0-22.149,22.149" transform="translate(308.215 2342.938)" fill="#86c63a"/>
    <path id="Path_418" data-name="Path 418" d="M63.246,185.288a22.149,22.149,0,1,0,22.149-22.149,22.149,22.149,0,0,0-22.149,22.149" transform="translate(243.908 2342.518)" fill="#86c63a"/>
    <path id="Path_419" data-name="Path 419" d="M187.226,108.636s-90.059-1.082-104.316,76.92,61.905,79.46,83.81,80.938c9.934.67,31.184.738,49.936.413,41.515-.72,70.851-8.756,80.832-47.272a73.212,73.212,0,0,0,2.242-13.794c2.64-42.214-25.934-99.284-112.5-97.2" transform="translate(251.135 2320.494)" fill="#91d63f"/>
    <path id="Path_420" data-name="Path 420" d="M248.144,207.541l-130.839,2.042a24.834,24.834,0,1,1-.775-49.662l130.839-2.042a24.834,24.834,0,1,1,.775,49.662" transform="translate(255.549 2340.394)" fill="#263238"/>
    <path id="Path_421" data-name="Path 421" d="M133.935,178.1a7.97,7.97,0,1,1-6.288-9.354,7.969,7.969,0,0,1,6.288,9.354" transform="translate(266.068 2344.722)" fill="#fff"/>
    <path id="Path_422" data-name="Path 422" d="M199.054,177.064a7.97,7.97,0,1,1-6.288-9.354,7.969,7.969,0,0,1,6.288,9.354" transform="translate(292.355 2344.303)" fill="#fff"/>
    <path id="Path_423" data-name="Path 423" d="M213.277,321.4a39.459,39.459,0,1,1-36.478-42.23,39.459,39.459,0,0,1,36.478,42.23" transform="translate(265.076 2391.745)" fill="#263238"/>
    <path id="Path_424" data-name="Path 424" d="M198.779,316.794A28.754,28.754,0,1,1,172.2,286.021a28.753,28.753,0,0,1,26.581,30.774" transform="translate(268.898 2395.567)" fill="#fff"/>
    <g id="Group_622" data-name="Group 622" transform="translate(78.377 -215.12)">
      <rect id="Rectangle_245" data-name="Rectangle 245" width="7.538" height="38.116" transform="translate(360.611 2614.399)" fill="#263238"/>
      <path id="Path_426" data-name="Path 426" d="M151,90.385a12.424,12.424,0,1,0,12.424-12.424A12.424,12.424,0,0,0,151,90.385" transform="translate(200.956 2523.253)" fill="#86c63a"/>
    </g>
    <path id="Path_427" data-name="Path 427" d="M146,172.751c.592.063.3,2.851,2.037,6.557a16.478,16.478,0,0,0,4.231,5.56,12.771,12.771,0,0,0,15.455,1.412,16.464,16.464,0,0,0,5.167-4.7c2.382-3.33,2.6-6.123,3.191-6.079.232.006.474.709.476,2.027a12.372,12.372,0,0,1-1.45,5.383,16.548,16.548,0,0,1-5.6,6.225,15.127,15.127,0,0,1-19.517-1.783,16.536,16.536,0,0,1-4.375-7.135,12.353,12.353,0,0,1-.451-5.557c.239-1.3.6-1.946.834-1.908" transform="translate(276.92 2346.397)" fill="#fff"/>
    <path id="Path_428" data-name="Path 428" d="M231.144,213.262c-.133-.076,1.482-2.527,3.036-6.95a75.92,75.92,0,0,0,3.652-17.89,132.356,132.356,0,0,0,.421-18.318c-.109-2.346-.219-4.246-.326-5.556a10.91,10.91,0,0,1-.072-2.047,10.917,10.917,0,0,1,.355,2.018c.192,1.3.382,3.2.557,5.554a111.588,111.588,0,0,1-.209,18.419,68.956,68.956,0,0,1-3.9,18,34.543,34.543,0,0,1-2.383,5.063,11.019,11.019,0,0,1-1.137,1.708" transform="translate(311.684 2342.261)" fill="#263238"/>
    <path id="Path_429" data-name="Path 429" d="M83.538,161.6a11.154,11.154,0,0,1-.445,2c-.173.634-.376,1.414-.56,2.329s-.458,1.944-.632,3.106a69.245,69.245,0,0,0-.987,8.179,67.9,67.9,0,0,0,1.777,20.025,69.173,69.173,0,0,0,2.412,7.879c.376,1.113.82,2.079,1.169,2.945s.679,1.6.962,2.2a11.049,11.049,0,0,1,.79,1.892,10.92,10.92,0,0,1-1.046-1.767c-.323-.577-.7-1.294-1.079-2.153s-.866-1.815-1.277-2.925a61.818,61.818,0,0,1-2.584-7.9,63.774,63.774,0,0,1-1.8-20.23,61.449,61.449,0,0,1,1.152-8.234c.208-1.166.511-2.2.743-3.1s.466-1.686.684-2.31a11.077,11.077,0,0,1,.717-1.924" transform="translate(250.711 2341.898)" fill="#263238"/>
    <path id="Path_430" data-name="Path 430" d="M87.081,254.088a3.309,3.309,0,0,1,.542.159l1.564.532,5.987,2.11,4.318,1.541c1.59.532,3.342,1.032,5.21,1.614,3.751,1.115,7.972,2.556,12.769,3.685l7.487,1.92c2.607.657,5.363,1.145,8.192,1.759,5.647,1.3,11.774,2.179,18.2,3.219a325.067,325.067,0,0,0,42.213,3.019,325.262,325.262,0,0,0,42.224-3.012c6.426-1.039,12.555-1.919,18.2-3.216,2.828-.613,5.585-1.1,8.192-1.757l7.489-1.919c4.8-1.129,9.019-2.57,12.769-3.683,1.868-.581,3.62-1.081,5.21-1.611l4.318-1.541,5.985-2.11,1.564-.531a3.307,3.307,0,0,1,.542-.159,3.067,3.067,0,0,1-.514.227l-1.538.6-5.943,2.24-4.3,1.6c-1.585.55-3.332,1.071-5.2,1.672-3.744,1.152-7.962,2.63-12.76,3.791q-3.579.941-7.49,1.969c-2.608.671-5.368,1.175-8.2,1.8-5.654,1.325-11.791,2.229-18.23,3.289a319.1,319.1,0,0,1-42.32,3.077,318.94,318.94,0,0,1-42.31-3.084c-6.437-1.061-12.574-1.967-18.227-3.292-2.833-.629-5.591-1.131-8.2-1.8l-7.49-1.969c-4.8-1.164-9.016-2.642-12.759-3.8-1.865-.6-3.613-1.122-5.2-1.672l-4.3-1.6-5.943-2.24-1.538-.6a3.291,3.291,0,0,1-.515-.227" transform="translate(253.529 2379.232)" fill="#263238"/>
    <g id="Group_416" data-name="Group 416" transform="translate(341.041 2607.077)" opacity="0.3">
      <g id="Group_415" data-name="Group 415" transform="translate(0)">
        <g id="Group_414" data-name="Group 414" clip-path="url(#clip-path-4)">
          <path id="Path_431" data-name="Path 431" d="M87.387,261.8s12.2-25.3,106.409-26.377S300.2,261.8,300.2,261.8s-95.029,46.869-212.818,0" transform="translate(-87.387 -235.392)"/>
        </g>
      </g>
    </g>
    <path id="Path_432" data-name="Path 432" d="M174.6,112.783a1.122,1.122,0,0,1-.324.055l-.952.086c-.835.087-2.075.114-3.658.3a98.787,98.787,0,0,0-13.29,2.2A96.479,96.479,0,0,0,90.249,170a98.623,98.623,0,0,0-4.684,12.632c-.487,1.517-.748,2.729-.991,3.532-.107.368-.194.67-.265.919a1.14,1.14,0,0,1-.115.307,1.109,1.109,0,0,1,.042-.324c.053-.254.117-.561.2-.936.2-.817.414-2.042.86-3.577a89.557,89.557,0,0,1,4.486-12.762,94.907,94.907,0,0,1,9.9-17.453,93.548,93.548,0,0,1,37.565-31,94.875,94.875,0,0,1,19.013-6.412,89.374,89.374,0,0,1,13.383-1.983c1.592-.147,2.835-.128,3.675-.167l.957-.013a1.06,1.06,0,0,1,.326.02" transform="translate(252.363 2322.182)" fill="#fff"/>
    <path id="Path_433" data-name="Path 433" d="M86.853,195.65a10.412,10.412,0,0,1-1.28-2.8,39.83,39.83,0,0,1-2.292-14.629,10.381,10.381,0,0,1,.362-3.059c.229.01-.088,4.7.82,10.369.869,5.675,2.605,10.042,2.39,10.122" transform="translate(251.986 2347.37)" fill="#fff"/>
    <path id="Path_434" data-name="Path 434" d="M70.176,191.44c-.035.029-.319-.227-.759-.757a13.572,13.572,0,0,1-1.588-2.454,16.006,16.006,0,0,1,2.4-18.116,13.576,13.576,0,0,1,2.173-1.954c.563-.4.9-.57.929-.533.081.105-1.183.963-2.711,2.824A16.56,16.56,0,0,0,68.3,188.006c.988,2.2,1.986,3.353,1.881,3.433" transform="translate(245.043 2344.327)" fill="#fff"/>
    <path id="Path_435" data-name="Path 435" d="M163.82,80.819a18.93,18.93,0,0,0-3.3-.08,8.608,8.608,0,0,0-7.355,11.455,18.991,18.991,0,0,0,1.449,2.97c-.031.029-.292-.173-.678-.623a7.63,7.63,0,0,1-1.258-2.176,8.813,8.813,0,0,1,7.795-12.142,7.663,7.663,0,0,1,2.5.237c.571.164.863.317.849.358" transform="translate(279.762 2309.041)" fill="#fff"/>
    <path id="Path_436" data-name="Path 436" d="M251,174.135c-.153.166-2.337-1.919-5.636-3.5-3.283-1.613-6.272-2.038-6.237-2.261-.006-.18,3.137-.072,6.555,1.6,3.432,1.646,5.463,4.048,5.317,4.155" transform="translate(314.908 2344.606)" fill="#fff"/>
    <path id="Path_437" data-name="Path 437" d="M118.721,382.219a1.072,1.072,0,0,1-.178-.269c-.125-.226-.277-.5-.459-.828l-1.705-3.22c-.366-.707-.769-1.489-1.209-2.339l-1.319-2.841c-.955-2.034-2.031-4.357-3.074-6.988q-.809-1.967-1.687-4.11-.8-2.173-1.672-4.514c-1.206-3.1-2.226-6.512-3.431-10.053-2.2-7.152-4.358-15.092-6.253-23.516C95.879,315.106,94.458,307,93.34,299.6c-1.033-7.407-1.851-14.1-2.3-19.734-.272-2.814-.438-5.368-.578-7.609-.157-2.242-.262-4.173-.307-5.754q-.078-2.295-.121-3.638c-.006-.379-.01-.691-.013-.947a1.1,1.1,0,0,1,.02-.323,1.08,1.08,0,0,1,.055.32c.022.257.051.566.086.943l.257,3.63c.09,1.576.236,3.5.432,5.74.178,2.236.379,4.782.685,7.591.514,5.625,1.384,12.295,2.452,19.684,1.152,7.376,2.59,15.46,4.44,23.877,1.891,8.4,4.024,16.33,6.183,23.474,1.183,3.539,2.18,6.945,3.359,10.048q.842,2.341,1.627,4.518.855,2.146,1.638,4.116c1.011,2.637,2.051,4.969,2.969,7.014q.676,1.535,1.262,2.861.625,1.289,1.15,2.362,1,2.068,1.581,3.278c.157.344.286.627.394.862a1.065,1.065,0,0,1,.112.3" transform="translate(254.717 2382.264)" fill="#fff"/>
    <path id="Path_438" data-name="Path 438" d="M77.179,266.449c-.014.2-4.607.039-10.257-.362s-10.22-.893-10.206-1.095,4.605-.039,10.258.365,10.219.893,10.2,1.092" transform="translate(241.273 2383.599)" fill="#fff"/>
    <path id="Path_439" data-name="Path 439" d="M36.564,249.985c-.177.1-2.569-3.975-5.342-9.093s-4.876-9.347-4.7-9.443,2.569,3.975,5.342,9.094,4.876,9.346,4.7,9.441" transform="translate(224.941 2372.093)" fill="#fff"/>
    <path id="Path_440" data-name="Path 440" d="M155.5,385.794a7.2,7.2,0,0,1-1.644-.2,34.7,34.7,0,0,1-4.391-1.06,45.68,45.68,0,0,1-6.26-2.406,47.624,47.624,0,0,1-13.4-9.419,45.542,45.542,0,0,1-4.382-5.077,34.724,34.724,0,0,1-2.483-3.772,7.213,7.213,0,0,1-.745-1.479c.119-.072,1.293,1.972,3.638,4.937a52.1,52.1,0,0,0,4.444,4.911,51.1,51.1,0,0,0,13.216,9.292,51.924,51.924,0,0,0,6.127,2.52c3.582,1.2,5.9,1.617,5.876,1.753" transform="translate(267.707 2422.947)" fill="#fff"/>
    <path id="Path_441" data-name="Path 441" d="M178.072,359.877a5.556,5.556,0,0,1-1.09.112,28.345,28.345,0,0,1-3.141.09,41.086,41.086,0,0,1-11.4-1.851,47.263,47.263,0,0,1-7.427-2.987,48.261,48.261,0,0,1-7.723-4.987,41.875,41.875,0,0,1-16.139-37.17,48.278,48.278,0,0,1,1.628-9.049,47.326,47.326,0,0,1,2.889-7.466,41.107,41.107,0,0,1,6.432-9.594,28.355,28.355,0,0,1,2.211-2.233,5.465,5.465,0,0,1,.826-.72c.061.062-1.036,1.1-2.8,3.16a43.7,43.7,0,0,0-6.155,9.636,48.1,48.1,0,0,0-2.757,7.4,48.629,48.629,0,0,0-1.532,8.925,41.581,41.581,0,0,0,15.861,36.531,48.583,48.583,0,0,0,7.566,4.972,48.036,48.036,0,0,0,7.291,3.039,43.641,43.641,0,0,0,11.242,2.081c2.708.117,4.218.026,4.221.114" transform="translate(263.15 2394.499)" fill="#fff"/>
    <path id="Path_442" data-name="Path 442" d="M45.462,254.58c-.059.118-1.085-.406-2.856-.809a15.666,15.666,0,0,0-13.275,3.185c-1.4,1.162-2.073,2.094-2.179,2.016a6.83,6.83,0,0,1,1.836-2.4,14.5,14.5,0,0,1,13.746-3.3,6.835,6.835,0,0,1,2.727,1.308" transform="translate(229.336 2378.684)" fill="#fff"/>
    <path id="Path_443" data-name="Path 443" d="M210,154.725c0,.2-17.234.365-38.489.365s-38.493-.163-38.493-.365,17.23-.365,38.493-.365,38.489.163,38.489.365" transform="translate(272.074 2338.974)" fill="#fff"/>
    <path id="Path_444" data-name="Path 444" d="M158.88,221.343a2.274,2.274,0,0,1-.651.105l-1.878.163c-.814.069-1.815.135-2.977.153s-2.489.091-3.951.045a101.668,101.668,0,0,1-10.268-.616,104.308,104.308,0,0,1-24.489-5.766,102.184,102.184,0,0,1-9.466-4.031c-1.329-.613-2.486-1.263-3.515-1.805s-1.9-1.039-2.6-1.465l-1.607-.983a2.182,2.182,0,0,1-.535-.385,2.286,2.286,0,0,1,.608.258l1.673.86c.717.387,1.6.853,2.646,1.352s2.209,1.12,3.549,1.7c2.64,1.235,5.852,2.553,9.472,3.864a112.124,112.124,0,0,0,24.338,5.733c3.824.442,7.288.695,10.2.768,1.458.079,2.775.049,3.933.062s2.157,0,2.973-.028l1.882-.024a2.247,2.247,0,0,1,.66.041" transform="translate(257.512 2360.125)" fill="#fff"/>
    <path id="Path_445" data-name="Path 445" d="M261.174,262.216a1.437,1.437,0,0,1-.335.153l-1.009.378-3.905,1.39c-1.694.611-3.777,1.324-6.232,2.044s-5.218,1.649-8.342,2.427l-4.886,1.293c-1.7.442-3.494.806-5.338,1.235-3.682.893-7.667,1.593-11.851,2.383a271.31,271.31,0,0,1-27.505,3.237,271.087,271.087,0,0,1-27.7.153c-4.25-.271-8.293-.479-12.056-.914-1.884-.2-3.707-.342-5.449-.573l-5.008-.685c-3.2-.39-6.055-.959-8.576-1.388-2.524-.414-4.678-.866-6.434-1.265l-4.045-.9-1.047-.253a.186.186,0,1,1,.015-.073c.282.049.632.108,1.063.181l4.071.766c1.762.355,3.922.766,6.449,1.143s5.382.921,8.576,1.279l5,.636c1.741.215,3.563.342,5.441.529,3.758.408,7.792.592,12.031.845,8.488.341,17.835.359,27.626-.211,9.782-.633,19.055-1.8,27.435-3.171,4.177-.769,8.157-1.447,11.836-2.312,1.843-.414,3.634-.764,5.335-1.19l4.888-1.244c3.126-.745,5.9-1.624,8.356-2.319s4.555-1.355,6.26-1.923l3.947-1.259,1.032-.309a1.39,1.39,0,0,1,.361-.083" transform="translate(267.262 2382.512)" fill="#fff"/>
    <rect id="Rectangle_247" data-name="Rectangle 247" width="640" height="606.437" transform="translate(218.377 2276.662)" fill="none"/>
    <path id="Path_259" data-name="Path 259" d="M-1.124,35.727s3.673-2.154,5.094-2.9c.443-.233.879-.479,1.319-.717.227-.122.274-.221.039-.419A17.733,17.733,0,0,1,.093,24.261,17.367,17.367,0,0,1-.995,16.719,17.726,17.726,0,0,1,4.637,4.86,17.139,17.139,0,0,1,13.778.287,17.562,17.562,0,0,1,29,4.661,17,17,0,0,1,34.629,14.9a17.52,17.52,0,0,1-5.479,16.236,17.156,17.156,0,0,1-10.125,4.675m9.736-17.775a1.073,1.073,0,0,0-.4-.823q-2.336-2.334-4.671-4.669a3.087,3.087,0,0,0-.509-.422.591.591,0,0,0-.794.1.578.578,0,0,0-.1.763,2.062,2.062,0,0,0,.349.433q1.99,1.989,3.977,3.98c.477.479.474.708-.008,1.161-.6.566-1.216,1.122-1.811,1.7-.83.8-1.656,1.6-2.467,2.424a.592.592,0,0,0-.092.9.714.714,0,0,0,.969.174,1.9,1.9,0,0,0,.433-.35l3.072-3.056c.6-.6,1.209-1.2,1.81-1.8a.6.6,0,0,0,.241-.512M11.017,11.97a.885.885,0,0,0-.492.245c-.382.375-.766.749-1.146,1.127q-1.856,1.851-3.707,3.706c-.718.724-.709,1.1.01,1.818.273.271.551.537.824.806,1.327,1.309,2.649,2.622,3.983,3.924a.667.667,0,0,0,.968.092.739.739,0,0,0-.013-1.014,2.015,2.015,0,0,0-.165-.181C10,21.232,8.734,19.966,7.451,18.712c-.677-.662-.686-.811-.008-1.492q1.91-1.92,3.818-3.842a1.6,1.6,0,0,0,.367-.5.723.723,0,0,0-.611-.9m8.452-.167c-.371-.036-.581.21-.74.558q-2.051,4.49-4.11,8.976c-.285.624-.575,1.246-.831,1.881a.549.549,0,0,0,.25.777.651.651,0,0,0,.9-.161,2.146,2.146,0,0,0,.265-.448q2.345-5.123,4.683-10.249a1.675,1.675,0,0,0,.2-.77c-.016-.368-.2-.55-.617-.564" transform="translate(424.334 2691.878)" fill="url(#linear-gradient-2)"/>
  </g>
</svg>
