<svg xmlns="http://www.w3.org/2000/svg" width="41" height="41" viewBox="0 0 41 41">
  <g id="instagram" transform="translate(19587.5 -4554)">
    <path id="Icon_awesome-instagram" data-name="Icon awesome-instagram" d="M7.87,6.073a4.037,4.037,0,1,0,4.037,4.037A4.03,4.03,0,0,0,7.87,6.073Zm0,6.661a2.624,2.624,0,1,1,2.624-2.624A2.629,2.629,0,0,1,7.87,12.734Zm5.143-6.826a.942.942,0,1,1-.942-.942A.939.939,0,0,1,13.014,5.908Zm2.674.956a4.659,4.659,0,0,0-1.272-3.3,4.69,4.69,0,0,0-3.3-1.272c-1.3-.074-5.2-.074-6.5,0a4.683,4.683,0,0,0-3.3,1.268A4.675,4.675,0,0,0,.05,6.86c-.074,1.3-.074,5.2,0,6.5a4.659,4.659,0,0,0,1.272,3.3,4.7,4.7,0,0,0,3.3,1.272c1.3.074,5.2.074,6.5,0a4.659,4.659,0,0,0,3.3-1.272,4.69,4.69,0,0,0,1.272-3.3c.074-1.3.074-5.192,0-6.492Zm-1.679,7.887a2.657,2.657,0,0,1-1.5,1.5,17.352,17.352,0,0,1-4.641.316,17.487,17.487,0,0,1-4.641-.316,2.657,2.657,0,0,1-1.5-1.5,17.351,17.351,0,0,1-.316-4.641,17.486,17.486,0,0,1,.316-4.641,2.657,2.657,0,0,1,1.5-1.5A17.352,17.352,0,0,1,7.87,3.656a17.487,17.487,0,0,1,4.641.316,2.657,2.657,0,0,1,1.5,1.5,17.351,17.351,0,0,1,.316,4.641C14.324,11.255,14.419,13.718,14.008,14.751Z" transform="translate(-19574.496 4564.762)" fill="#fff"></path>
    <g id="Ellipse_22" data-name="Ellipse 22" transform="translate(-19587.5 4554)" fill="none" stroke="#fff" stroke-width="2">
      <circle cx="20.5" cy="20.5" r="20.5" stroke="none"></circle>
      <circle cx="20.5" cy="20.5" r="19.5" fill="none"></circle>
    </g>
  </g>
</svg>
