<svg xmlns="http://www.w3.org/2000/svg" width="41" height="41" viewBox="0 0 41 41">
  <g id="Linked-in" transform="translate(19508.5 -4554)">
    <path id="Icon_awesome-linkedin-in" data-name="Icon awesome-linkedin-in" d="M3.523,15.739H.26V5.231H3.523ZM1.89,3.8A1.9,1.9,0,1,1,3.779,1.89,1.906,1.906,0,0,1,1.89,3.8ZM15.736,15.739H12.48V10.624c0-1.219-.025-2.782-1.7-2.782-1.7,0-1.956,1.324-1.956,2.695v5.2H5.567V5.231H8.7V6.665h.046a3.429,3.429,0,0,1,3.087-1.7c3.3,0,3.909,2.175,3.909,5v5.772Z" transform="translate(-19495.5 4567)" fill="#fff"></path>
    <g id="Ellipse_23" data-name="Ellipse 23" transform="translate(-19508.5 4554)" fill="none" stroke="#fff" stroke-width="2">
      <circle cx="20.5" cy="20.5" r="20.5" stroke="none"></circle>
      <circle cx="20.5" cy="20.5" r="19.5" fill="none"></circle>
    </g>
  </g>
</svg>
