<svg xmlns="http://www.w3.org/2000/svg" width="241.684" height="60.12" viewBox="0 0 241.684 60.12">
  <g id="Group_651" data-name="Group 651" transform="translate(15664.685 -5927.336)">
    <rect id="Rectangle_175" data-name="Rectangle 175" width="16.692" height="6.192" transform="translate(-15594.611 5951.61)" fill="#fff"></rect>
    <rect id="Rectangle_173" data-name="Rectangle 173" width="19.384" height="5.923" transform="translate(-15594.611 5940.842)" fill="#fff"></rect>
    <rect id="Rectangle_176" data-name="Rectangle 176" width="19.384" height="5.923" transform="translate(-15493.114 5941.111)" fill="#fff"></rect>
    <rect id="Rectangle_174" data-name="Rectangle 174" width="19.384" height="6.192" transform="translate(-15594.611 5963.726)" fill="#fff"></rect>
    <rect id="Rectangle_177" data-name="Rectangle 177" width="19.384" height="6.192" transform="translate(-15493.114 5963.995)" fill="#fff"></rect>
    <rect id="Rectangle_178" data-name="Rectangle 178" width="16.423" height="6.192" transform="translate(-15493.114 5951.88)" fill="#fff"></rect>
    <path id="Path_256" data-name="Path 256" d="M6396.813,2438.886l10.172,14.253-10.172,14.162h6.821l6.756-9.355,6.562,9.355h7.016l-10.33-14.162,10.33-14.253h-7.406l-6.172,9.379-6.756-9.379Z" transform="translate(-21968.277 3502.176)" fill="#fff"></path>
    <text id="P" transform="translate(-15543.998 5968.88)" fill="#fff" font-size="41" font-family="MyriadHebrew-Bold, Myriad Hebrew" font-weight="700" letter-spacing="-0.054em"><tspan x="0" y="0">P</tspan></text>
    <text id="SHOPIFY_SUPPORT" data-name="SHOPIFY SUPPORT" transform="translate(-15595.957 5980.456)" fill="#fff" font-size="9" font-family="MyanmarText, Myanmar Text" letter-spacing="0.764em"><tspan x="0" y="0">SHOPIFY SUPPORT</tspan></text>
    <text id="R" transform="translate(-15520.306 5968.88)" fill="#fff" font-size="41" font-family="MyriadHebrew-Bold, Myriad Hebrew" font-weight="700" letter-spacing="-0.054em"><tspan x="0" y="0">R</tspan></text>
    <text id="S" transform="translate(-15470.77 5968.88)" fill="#fff" font-size="41" font-family="MyriadHebrew-Bold, Myriad Hebrew" font-weight="700" letter-spacing="-0.054em"><tspan x="0" y="0">S</tspan></text>
    <text id="S-2" data-name="S" transform="translate(-15446.001 5968.88)" fill="#fff" font-size="41" font-family="MyriadHebrew-Bold, Myriad Hebrew" font-weight="700" letter-spacing="-0.054em"><tspan x="0" y="0">S</tspan></text>
    <path id="Path_259" data-name="Path 259" d="M-1.124,57.034S4.74,53.595,7.008,52.4c.707-.372,1.4-.765,2.105-1.144.362-.2.437-.353.062-.669A28.308,28.308,0,0,1,.819,38.729,27.725,27.725,0,0,1-.918,26.689,28.3,28.3,0,0,1,8.073,7.759,27.36,27.36,0,0,1,22.665.459,28.036,28.036,0,0,1,46.972,7.44a27.138,27.138,0,0,1,8.981,16.343c1.63,10.139-1.351,18.831-8.746,25.92a27.388,27.388,0,0,1-16.164,7.463M46.585,28.79a1.713,1.713,0,0,0-.642-1.314q-3.73-3.726-7.458-7.454a4.928,4.928,0,0,0-.813-.674.943.943,0,0,0-1.267.161.923.923,0,0,0-.152,1.218,3.292,3.292,0,0,0,.558.692q3.176,3.175,6.348,6.353c.762.764.757,1.13-.013,1.854-.962.9-1.941,1.791-2.891,2.707-1.325,1.277-2.644,2.561-3.939,3.87a.945.945,0,0,0-.147,1.434,1.139,1.139,0,0,0,1.546.278,3.024,3.024,0,0,0,.691-.559q2.452-2.44,4.9-4.878c.963-.957,1.929-1.91,2.889-2.87a.965.965,0,0,0,.385-.818M18.258,19.108a1.413,1.413,0,0,0-.785.391c-.61.6-1.223,1.2-1.829,1.8q-2.963,2.955-5.918,5.916c-1.146,1.156-1.132,1.763.016,2.9.436.432.879.857,1.316,1.287,2.118,2.089,4.229,4.186,6.358,6.264a1.065,1.065,0,0,0,1.545.147,1.179,1.179,0,0,0-.021-1.619,3.217,3.217,0,0,0-.263-.289c-2.036-2.014-4.065-4.035-6.113-6.037-1.081-1.056-1.095-1.295-.012-2.382q3.05-3.065,6.095-6.134a2.55,2.55,0,0,0,.586-.806,1.154,1.154,0,0,0-.975-1.441m13.493-.266c-.592-.058-.927.335-1.181.89Q27.3,26.9,24.009,34.062c-.455,1-.918,1.989-1.327,3a.877.877,0,0,0,.4,1.24,1.039,1.039,0,0,0,1.441-.257,3.426,3.426,0,0,0,.422-.716q3.743-8.179,7.476-16.362a2.673,2.673,0,0,0,.317-1.229c-.025-.588-.315-.878-.985-.9" transform="translate(-15663.561 5927.335)" fill="#fff"></path>
  </g>
</svg>
